<svg xmlns="http://www.w3.org/2000/svg" width="0" height="0" style="position:absolute;width:0;height:0"><defs><symbol id="icon-home" viewBox="0 0 950.8578853607178 1024"><path d="M837.425 535.762v301.664q0 16.34-11.94 28.28t-28.282 11.942h-241.33v-241.33h-160.89v241.33h-241.33q-16.34 0-28.28-11.94t-11.942-28.282V535.762q0-.628.32-1.885t.32-1.885L475.43 234.1l361.366 297.89q.628 1.257.628 3.77zm140.148-43.364l-38.965 46.507q-5.027 5.656-13.198 6.913h-1.885q-8.17 0-13.198-4.4l-434.9-362.624L40.53 541.42q-7.542 5.026-15.084 4.398-8.17-1.257-13.198-6.913l-38.965-46.507q-5.027-6.284-4.4-14.77t6.914-13.51L427.664 87.664q20.11-16.34 47.764-16.34t47.764 16.34L676.538 215.87V93.323q0-8.8 5.656-14.456t14.455-5.656h120.66q8.8 0 14.45 5.66t5.654 14.46v256.41L975.05 464.12q6.284 5.027 6.913 13.512t-4.4 14.77z" class="path1"/></symbol><symbol id="icon-paper-plane-o" viewBox="0 0 1024.5717108249664 1024"><path d="M1008 6.286q18.857 13.714 15.43 36.57L877.142 920.572q-2.857 16.572-18.286 25.715-8 4.57-17.714 4.57-6.286 0-13.714-2.856L526.285 825.14 356 1012q-10.286 12-26.857 12-8 0-13.143-2.287-10.857-4-17.143-13.43t-6.286-20.856V729.14L22.86 618.856q-21.143-8-22.857-31.43-1.713-22.285 18.287-33.713L969.143 5.143q20-12 38.857 1.14zm-195.43 856.57l126.287-756-819.43 472.572 192 78.286L804.572 292.57 531.43 748z" class="path1"/></symbol><symbol id="icon-clock-o" viewBox="0 0 877.7140070597306 1024"><path d="M512 310.857v256q0 8-5.143 13.143t-13.143 5.143H310.857q-8 0-13.143-5.143t-5.143-13.143v-36.57q0-8 5.15-13.144T310.86 512h128V310.857q0-8 5.143-13.143t13.144-5.143h36.57q8 0 13.144 5.15t5.148 13.14zM749.714 512q0-84.57-41.714-156T594.857 242.857t-156-41.714-156 41.714T169.714 356 128 512t41.714 156 113.143 113.143 156 41.714 156-41.714T708 668t41.714-156zm128 0q0 119.43-58.857 220.286T659.143 892t-220.286 58.857T218.57 892 58.858 732.286 0 512t58.857-220.286T218.57 132t220.287-58.857T659.143 132t159.714 159.714T877.714 512z" class="path1"/></symbol><symbol id="icon-tags" viewBox="0 0 1085.1428871154785 1024"><path d="M256 256q0-30.286-21.43-51.714t-51.713-21.43-51.714 21.43T109.713 256t21.43 51.714 51.714 21.43 51.714-21.43T256 256zm609.714 329.143q0 30.286-21.143 51.43L564 917.713q-22.286 21.144-52 21.144-30.286 0-51.43-21.143L52 508.572q-21.714-21.143-36.857-57.714T0 384V146.288q0-29.714 21.714-51.43t51.43-21.713h237.713q30.286 0 66.857 15.143T436 125.144l408.57 408q21.144 22.286 21.144 52zm219.43 0q0 30.286-21.144 51.43l-280.57 281.14q-22.287 21.144-52 21.144-20.572 0-33.715-8t-30.286-25.714L936 636.573q21.143-21.143 21.143-51.43 0-29.713-21.143-52l-408.57-408q-21.715-21.713-58.287-36.856t-66.857-15.143h128q30.286 0 66.857 15.143t58.286 36.857l408.57 408q21.14 22.286 21.14 52z" class="path1"/></symbol><symbol id="icon-list" viewBox="0 0 1023.9999904632568 1024"><path d="M146.286 749.714v109.714q0 7.43-5.43 12.857T128 877.715H18.286q-7.43 0-12.857-5.43T0 859.428V749.714q0-7.43 5.43-12.857t12.856-5.43H128q7.43 0 12.857 5.43t5.43 12.857zm0-219.428V640q0 7.43-5.43 12.857T128 658.287H18.286q-7.43 0-12.857-5.43T0 640V530.286q0-7.43 5.43-12.857T18.285 512H128q7.43 0 12.857 5.43t5.43 12.856zm0-219.43V420.57q0 7.43-5.43 12.86T128 438.857H18.286q-7.43 0-12.857-5.43T0 420.57V310.858q0-7.43 5.43-12.857t12.856-5.43H128q7.43 0 12.857 5.43t5.43 12.86zM1024 749.716V859.43q0 7.43-5.43 12.855t-12.856 5.43h-768q-7.43 0-12.857-5.43t-5.43-12.857V749.713q0-7.43 5.43-12.857t12.857-5.43h768q7.43 0 12.857 5.43t5.43 12.857zM146.286 91.43v109.713q0 7.43-5.43 12.857T128 219.43H18.286q-7.43 0-12.857-5.43T0 201.143V91.43Q0 84 5.43 78.57t12.856-5.43H128q7.43 0 12.857 5.43t5.43 12.857zM1024 530.285V640q0 7.43-5.43 12.857t-12.856 5.43h-768q-7.43 0-12.857-5.43T219.427 640V530.286q0-7.43 5.43-12.857t12.857-5.43h768q7.43 0 12.857 5.43t5.43 12.85zm0-219.43V420.57q0 7.43-5.43 12.858t-12.856 5.43h-768q-7.43 0-12.857-5.43t-5.43-12.857V310.86q0-7.43 5.43-12.857t12.857-5.43h768q7.43 0 12.857 5.43t5.43 12.858zm0-219.427V201.14q0 7.43-5.43 12.858t-12.856 5.43h-768q-7.43 0-12.857-5.43t-5.43-12.857V91.43q0-7.43 5.43-12.858t12.857-5.43h768q7.43 0 12.857 5.43T1024 91.43z" class="path1"/></symbol><symbol id="icon-chevron-left" viewBox="0 0 768.0010223388672 1024"><path d="M669.143 172l-303.43 303.43 303.43 303.428Q680 789.715 680 804.572t-10.857 25.714l-94.857 94.857Q563.43 936 548.572 936t-25.714-10.857l-424-424Q88 490.286 88 475.43t10.858-25.715l424-424q10.857-10.857 25.714-10.857t25.714 10.857l94.857 94.857Q680 131.43 680 146.286T669.143 172z" class="path1"/></symbol><symbol id="icon-chevron-right" viewBox="0 0 694.8569641113281 1024"><path d="M632.57 501.143l-424 424Q197.715 936 182.858 936t-25.714-10.857l-94.857-94.857Q51.43 819.43 51.43 804.572t10.856-25.714l303.43-303.43L62.286 172Q51.43 161.143 51.43 146.286t10.856-25.714l94.857-94.857Q168 14.858 182.857 14.858t25.714 10.857l424 424q10.86 10.857 10.86 25.714t-10.86 25.71z" class="path1"/></symbol><symbol id="icon-twitter-square" viewBox="0 0 877.7130457558669 1024"><path d="M731.43 348.57q-32 14.287-69.144 19.43 38.857-22.857 53.143-66.857-37.15 21.714-76.58 29.143-34.858-37.714-87.43-37.714-49.714 0-84.857 35.143t-35.143 84.857q0 16.57 2.857 27.43-73.714-4-138.286-37.144t-109.712-88.57q-16.57 28.57-16.57 60.57 0 65.143 52 100-26.856-.57-57.142-14.857v1.15q0 42.86 28.57 76.29t70.286 41.43q-16.57 4.57-29.143 4.57-7.43 0-22.288-2.286 12 36 42.57 59.43t69.43 24Q257.714 716 174.857 716q-14.856 0-28.57-1.714 84.57 53.714 184 53.714 64 0 120-20.286t96-54.286 68.857-78.286T658 522.574t14-96.287q0-10.286-.57-15.43 36-25.713 60-62.285zm146.284-110.856v548.57q0 68-48.286 116.287t-116.286 48.29h-548.57q-68 0-116.287-48.28T0 786.29v-548.57q0-68 48.285-116.29T164.57 73.14h548.572q68 0 116.286 48.286t48.286 116.286z" class="path1"/></symbol><symbol id="icon-facebook-square" viewBox="0 0 877.7150599161796 1024"><path d="M713.143 73.143q68 0 116.286 48.286t48.28 116.28v548.57q0 68-48.29 116.282t-116.285 48.29H605.71v-340h113.72l17.143-132.57H605.715V393.71q0-32 13.43-48t52.285-16l69.713-.57V210.86q-36-5.144-101.714-5.144-77.72 0-124.29 45.714t-46.57 129.14v97.716H354.286v132.57H468.57v340h-304q-68 0-116.285-48.285T0 786.29V237.72q0-68 48.286-116.287t116.286-48.29h548.57z" class="path1"/></symbol><symbol id="icon-linkedin-square" viewBox="0 0 877.7130457558669 1024"><path d="M135.43 808h132V411.43h-132V808zM276 289.143q-.57-29.714-20.57-49.143t-53.144-19.43-54 19.43-20.857 49.143q0 29.143 20.28 48.857t52.853 19.714h.57q33.715 0 54.287-19.714T276 289.143zM610.286 808h132V580.57q0-88-41.714-133.142t-110.286-45.143q-77.714 0-119.43 66.857H472v-57.714H340q1.714 37.714 0 396.57h132V586.286q0-21.714 4-32 8.57-20 25.714-34t42.286-14q66.286 0 66.286 89.714v212zm267.428-570.286v548.57q0 68-48.286 116.287t-116.286 48.29h-548.57q-68 0-116.287-48.28T0 786.29v-548.57q0-68 48.285-116.29T164.57 73.14h548.572q68 0 116.286 48.286t48.286 116.286z" class="path1"/></symbol><symbol id="icon-feed" viewBox="0 0 805.3309860229492 1024"><path d="M219.43 768q0 45.714-32 77.714t-77.715 32-77.714-32T0 768t32-77.714 77.715-32 77.714 32 32 77.714zM512 838.286q1.143 16-9.714 27.43-10.286 12-26.857 12h-77.15q-14.29 0-24.57-9.43t-11.43-23.714q-12.57-130.857-105.43-223.714T33.14 515.428Q18.856 514.288 9.43 504T0 479.43v-77.144q0-16.57 12-26.857 9.714-9.72 24.57-9.72h2.858q91.43 7.43 174.857 46t148 103.71Q427.428 580 466 663.43t46 174.856zm292.57 1.143q1.144 15.42-10.285 26.85Q784 877.71 768 877.71h-81.715q-14.857 0-25.43-10t-11.142-24.283Q642.856 720.57 592 610T459.712 418t-192-132.286-233.43-58.286Q20 226.858 10 216.285T0 191.428v-81.714q0-16 11.43-26.286 10.282-10.286 25.14-10.286h1.714q149.714 7.43 286.57 68.57t243.144 168q106.857 106.287 168 243.144t68.57 286.57z" class="path1"/></symbol><symbol id="icon-google-plus-square" viewBox="0 0 877.7130457558669 1024"><path d="M524 517.143q0-14.857-3.43-36.57H313.715V556h124q-1.714 13.715-9.43 28.572t-21.428 30.286-38 25.43-55.143 10q-56.57 0-96.57-40.572t-40-97.714 40-97.714 96.57-40.57q52.57 0 87.43 33.713l59.428-57.71q-61.712-57.14-146.856-57.14-91.43 0-155.43 64.29t-64 155.144 64 155.144 155.43 64.286q94.286 0 152.286-60t58-154.287zm197.143 26.286h62.286v-62.86h-62.29v-62.86h-62.86v62.85h-62.85v62.857h62.85v62.856h62.858v-62.85zm156.57-305.72v548.57q0 68-48.285 116.282T713.142 950.85h-548.57q-68 0-116.287-48.285T0 786.285v-548.57q0-68 48.285-116.285T164.57 73.14h548.572q68 0 116.286 48.286t48.286 116.286z" class="path1"/></symbol><symbol id="icon-smile-o" viewBox="0 0 877.7140070597306 1024"><path d="M648 614.286q-21.143 69.143-78.857 111.43T438.857 768 308.57 725.716t-78.856-111.43Q225.144 600 232 586.573t21.714-18q14.286-4.57 27.714 2.286t18 21.71q14.286 45.71 52.857 74t86.57 28.28 86.572-28.286 52.857-74q4.57-14.857 18.286-21.714t28-2.286 21.143 18 2.287 27.72zM365.714 365.714q0 30.286-21.43 51.714t-51.713 21.43-51.71-21.43-21.43-51.714T240.86 314t51.714-21.43T344.287 314t21.43 51.714zm292.572 0q0 30.286-21.43 51.714t-51.713 21.43-51.714-21.43T512 365.714 533.43 314t51.713-21.43T636.857 314t21.43 51.714zM804.57 512q0-74.286-29.142-142t-78-116.57-116.57-78-142-29.144-142 29.143-116.572 78-78 116.57-29.143 142 29.143 142 78 116.57 116.57 78 142 29.14 142-29.148 116.572-78 78-116.57 29.143-142zm73.144 0q0 119.43-58.857 220.286T659.143 892t-220.286 58.857T218.57 892 58.858 732.286 0 512t58.857-220.286T218.57 132t220.287-58.857T659.143 132t159.714 159.714T877.714 512z" class="path1"/></symbol><symbol id="icon-frown-o" viewBox="0 0 877.7140070597306 1024"><path d="M648 702.286q4.57 14.286-2.286 27.714t-21.143 18-28-2.286T578.29 724q-14.287-45.714-52.86-74t-86.57-28.286T352.286 650t-52.857 74q-4.58 14.857-18 21.714T253.71 748q-14.857-4.57-21.714-18t-2.286-27.714q21.143-69.143 78.857-111.43t130.286-42.285 130.286 42.29T648 702.29zM365.714 365.714q0 30.286-21.43 51.714t-51.713 21.43-51.71-21.43-21.43-51.714T240.86 314t51.714-21.43T344.287 314t21.43 51.714zm292.572 0q0 30.286-21.43 51.714t-51.713 21.43-51.714-21.43T512 365.714 533.43 314t51.713-21.43T636.857 314t21.43 51.714zM804.57 512q0-74.286-29.142-142t-78-116.57-116.57-78-142-29.144-142 29.143-116.572 78-78 116.57-29.143 142 29.143 142 78 116.57 116.57 78 142 29.14 142-29.148 116.572-78 78-116.57 29.143-142zm73.144 0q0 119.43-58.857 220.286T659.143 892t-220.286 58.857T218.57 892 58.858 732.286 0 512t58.857-220.286T218.57 132t220.287-58.857T659.143 132t159.714 159.714T877.714 512z" class="path1"/></symbol><symbol id="icon-question" viewBox="0 0 637.050895690918 1024"><path d="M410.667 701.716v150.857q0 10.057-7.543 17.6t-17.6 7.543H234.667q-10.057 0-17.6-7.543t-7.543-17.6V701.716q0-10.057 7.543-17.6t17.6-7.543h150.857q10.057 0 17.6 7.543t7.543 17.6zm198.628-377.142q0 33.943-9.743 63.485t-22 48.08-34.572 37.4-36.143 27.34-38.343 22.313q-25.772 14.457-43.057 40.857t-17.285 42.115q0 10.685-7.543 20.43t-17.6 9.74H232.15q-9.428 0-16.028-11.627t-6.6-23.57v-28.28q0-52.174 40.857-98.374t89.88-68.2q37.082-16.972 52.8-35.2t15.712-47.772q0-26.4-29.228-46.515t-67.57-20.11q-40.856 0-67.884 18.23-22 15.713-67.256 72.283-8.174 10.057-19.487 10.057-7.544 0-15.716-5.025L38.55 273.655q-8.172-6.285-9.743-15.715t3.457-17.6q100.576-167.2 291.66-167.2 50.286 0 101.2 19.486t91.773 52.172 66.628 80.143 25.772 99.63z" class="path1"/></symbol><symbol id="icon-info" viewBox="0 0 365.71499252319336 1024"><path d="M365.714 768v73.143q0 14.857-10.857 25.714t-25.714 10.857H36.573q-14.858 0-25.715-10.857T0 841.143V768q0-14.857 10.858-25.714t25.714-10.857h36.57V512h-36.57q-14.857 0-25.714-10.857T0 475.43v-73.144q0-14.857 10.858-25.714t25.714-10.857h219.43q14.856 0 25.713 10.857t10.857 25.714V731.43h36.57q14.858 0 25.715 10.856T365.714 768zM292.57 109.714v109.714q0 14.857-10.856 25.714T256 256H109.714Q94.857 256 84 245.14t-10.857-25.714V109.714Q73.143 94.857 84 84t25.714-10.857H256q14.857 0 25.714 10.857t10.857 25.714z" class="path1"/></symbol><symbol id="icon-reddit-square" viewBox="0 0 877.7130457558669 1024"><path d="M536.57 645.143q7.43 7.43 0 14.857-30.285 30.286-97.713 30.286T341.143 660q-7.43-7.43 0-14.857 2.857-3.43 7.43-3.43t7.428 3.43q24 24 82.86 24t82.86-24q2.86-3.43 7.43-3.43t7.43 3.43zM386.287 556q0 17.714-13.143 30.857T342.286 600t-30.857-13.143T298.28 556q0-18.286 12.857-31.143T342.287 512t31.142 12.857T386.28 556zm193.143 0q0 17.714-13.144 30.857T535.43 600t-30.858-13.143T491.43 556q0-18.286 12.856-31.143T535.43 512t31.142 12.857T579.43 556zm122.856-58.857q0-24-17.143-41.143t-41.714-17.143q-24 0-41.72 17.714-64.57-44.57-152.57-46.85L480 270.86l97.715 22.285q.57 18.286 13.43 30.857t30.57 12.57q18.286 0 31.143-12.856t12.857-31.143-12.857-31.14-31.143-12.853q-27.43 0-39.43 24.572l-108-24q-9.713-2.858-12 7.43L428 409.717q-88 3.43-151.43 47.43-17.142-18.29-42.285-18.29-24.57 0-41.714 17.14t-17.14 41.14q0 17.143 9.15 31.43t24 21.713q-2.856 14.288-2.856 27.43 0 69.715 68.57 119.144t165.144 49.43q97.144 0 165.715-49.43t68.57-119.143q0-14.28-3.43-28 14.287-7.43 23.144-21.43t8.856-31.14zm175.428-259.43v548.572q0 68-48.286 116.286t-116.286 48.29h-548.57q-68 0-116.287-48.28T0 786.29v-548.57q0-68 48.285-116.29T164.57 73.14h548.572q68 0 116.286 48.286t48.286 116.286z" class="path1"/></symbol><symbol id="icon-newspaper-o" viewBox="0 0 1170.288070678711 1024"><path d="M585.143 292.57h-219.43V512h219.43V292.57zm73.143 365.716v73.143H292.572v-73.15h365.714zm0-438.857v365.71H292.572V219.43h365.714zM1024 658.28v73.143H731.43V658.28H1024zm0-146.28v73.143H731.43V512H1024zm0-146.286v73.143H731.43v-73.143H1024zm0-146.285v73.14H731.43v-73.14H1024zM146.286 768V219.43H73.143V768q0 14.857 10.857 25.714t25.714 10.857 25.714-10.85T146.285 768zm950.857 0V146.286H219.43V768q0 18.857-6.287 36.57h847.43q14.856 0 25.713-10.856T1097.143 768zm73.143-694.857V768q0 45.714-32 77.714t-77.714 32H109.715q-45.714 0-77.714-32T0 768V146.286h146.287V73.143h1024z" class="path1"/></symbol><symbol id="icon-balance-scale" viewBox="0 0 1243.4331817626953 1024"><path d="M987.43 256L768 658.286h438.857zM256 256L36.57 658.286h438.86zm469.143-109.714q-8 22.857-26 40.857t-40.857 26v737.714h347.43q8 0 13.142 5.143t5.143 13.143v36.57q0 8-5.14 13.144t-13.14 5.143h-768q-8 0-13.14-5.143t-5.14-13.143v-36.57q0-8 5.142-13.144t13.143-5.143h347.43V213.143q-22.857-8-40.857-26t-26-40.857H237.72q-8 0-13.144-5.143T219.43 128V91.43q0-8 5.143-13.144t13.143-5.143h280.57q12-32.57 40-52.857T621.716 0t63.43 20.286 40 52.857h280.57q8 0 13.144 5.143T1024 91.43V128q0 8-5.143 13.143t-13.144 5.143h-280.57zm-103.43 9.143q18.858 0 32.287-13.43t13.43-32.29T654 77.43 621.714 64t-32.286 13.43-13.43 32.286T589.43 142t32.286 13.43zm621.717 502.85q0 41.71-26.576 74.853t-67.143 52-82.57 28.286-79.71 9.43-79.714-9.43-82.57-28.286-67.143-52-26.57-74.857q0-6.288 20-46.288T804 512.286t61.143-111.715T923.43 295.43t32-57.144q10.287-18.857 32-18.857t32 18.85q2.287 4 32 57.14t58.287 105.142 61.143 111.713 52.57 99.72 20 46.285zm-731.43 0q0 41.71-26.57 74.853t-67.148 52-82.57 28.286-79.715 9.43-79.714-9.43-82.57-28.286-67.144-52T0 658.284Q0 652 20 612t52.57-99.716 61.143-111.714T192 295.426t32-57.144q10.287-18.857 32-18.857t32 18.856q2.287 4 32 57.15t58.287 105.14 61.143 111.71T492.004 612t20 46.286z" class="path1"/></symbol><symbol id="icon-twitter" viewBox="0 0 1024 1024"><path d="M1024 226.4c-37.6 16.8-78.2 28-120.6 33 43.4-26 76.6-67.2 92.4-116.2-40.6 24-85.6 41.6-133.4 51C824 153.4 769.4 128 709 128c-116 0-210 94-210 210 0 16.4 1.8 32.4 5.4 47.8-174.6-8.8-329.4-92.4-433-219.6-18 31-28.4 67.2-28.4 105.6 0 72.8 37 137.2 93.4 174.8-34.4-1-66.8-10.6-95.2-26.2v2.6c0 101.8 72.4 186.8 168.6 206-17.6 4.8-36.2 7.4-55.4 7.4-13.6 0-26.6-1.4-39.6-3.8 26.8 83.4 104.4 144.2 196.2 146-72 56.4-162.4 90-261 90-17 0-33.6-1-50.2-3C93 925.4 203.4 960 322 960c386.4 0 597.8-320.2 597.8-597.8 0-9.2-.2-18.2-.6-27.2 41-29.4 76.6-66.4 104.8-108.6z" class="path1"/></symbol><symbol id="icon-facebook" viewBox="0 0 1024 1024"><path d="M608 192h160V0H608C484.486 0 384 100.486 384 224v96H256v192h128v512h192V512h160l32-192H576v-96c0-17.346 14.654-32 32-32z" class="path1"/></symbol><symbol id="icon-linkedin2" viewBox="0 0 1024 1024"><path d="M384 384h177.106v90.782h2.532C588.278 430.588 648.596 384 738.48 384 925.426 384 960 500.376 960 651.734V960H775.39V686.722c0-65.184-1.334-149.026-96.028-149.026-96.148 0-110.82 70.986-110.82 144.292V960H384V384z" class="path1"/><path d="M64 384h192v576H64V384z" class="path2"/><path d="M256 224c0 53.02-42.98 96-96 96s-96-42.98-96-96 42.98-96 96-96 96 42.98 96 96z" class="path3"/></symbol><symbol id="icon-github" viewBox="0 0 1024 1024"><path d="M512.008 12.642C229.27 12.642 0 241.86 0 524.64c0 226.214 146.704 418.132 350.136 485.836 25.586 4.738 34.992-11.11 34.992-24.632 0-12.204-.48-52.542-.696-95.324-142.448 30.976-172.504-60.41-172.504-60.41-23.282-59.176-56.848-74.916-56.848-74.916-46.452-31.778 3.51-31.124 3.51-31.124 51.4 3.61 78.476 52.766 78.476 52.766 45.672 78.27 119.776 55.64 149.004 42.558 4.588-33.086 17.852-55.68 32.506-68.464C304.846 737.988 185.3 694.08 185.3 497.898c0-55.898 20.004-101.574 52.76-137.428-5.316-12.9-22.854-64.972 4.952-135.5 0 0 43.006-13.752 140.84 52.49 40.836-11.348 84.636-17.036 128.154-17.234 43.502.198 87.336 5.886 128.256 17.234 97.734-66.244 140.656-52.49 140.656-52.49 27.872 70.528 10.35 122.6 5.036 135.5 32.82 35.856 52.694 81.532 52.694 137.428 0 196.654-119.778 239.95-233.79 252.624 18.364 15.89 34.724 47.046 34.724 94.812 0 68.508-.596 123.644-.596 140.508 0 13.628 9.222 29.594 35.172 24.566C877.48 942.632 1024 750.782 1024 524.64c0-282.78-229.234-511.998-511.992-511.998z" class="path1"/></symbol></defs></svg>