<svg xmlns="http://www.w3.org/2000/svg" width="0" height="0" style="position:absolute;width:0;height:0"><defs><symbol id="icon-home" viewBox="0 0 950.8578853607178 1024"><path d="M837.425 535.762v301.664q0 16.34-11.941 28.281t-28.281 11.941H555.872V636.317H394.984v241.331H153.653q-16.34 0-28.281-11.941t-11.941-28.281V535.762q0-.628.315-1.885t.315-1.885l361.368-297.893 361.368 297.893q.628 1.257.628 3.771zm140.148-43.364l-38.965 46.507q-5.027 5.656-13.198 6.913h-1.885q-8.171 0-13.198-4.399L475.428 178.794 40.529 541.419q-7.541 5.027-15.083 4.399-8.171-1.257-13.198-6.913l-38.965-46.507q-5.027-6.284-4.399-14.769t6.913-13.512L427.664 87.665q20.111-16.34 47.764-16.34t47.764 16.34l153.346 128.207V93.321q0-8.799 5.656-14.455t14.455-5.656h120.665q8.799 0 14.455 5.656t5.656 14.455v256.414l137.634 114.381q6.284 5.027 6.913 13.512t-4.399 14.769z" class="path1"/></symbol><symbol id="icon-paper-plane-o" viewBox="0 0 1024.5717108249664 1024"><path d="M1008 6.286q18.857 13.714 15.429 36.571L877.143 920.571q-2.857 16.571-18.286 25.714-8 4.571-17.714 4.571-6.286 0-13.714-2.857L526.286 825.142 356 1011.999q-10.286 12-26.857 12-8 0-13.143-2.286-10.857-4-17.143-13.429t-6.286-20.857V729.141L22.857 618.855q-21.143-8-22.857-31.429-1.714-22.286 18.286-33.714L969.143 5.141q20-12 38.857 1.143zM812.571 862.857l126.286-756-819.429 472.571 192 78.286 493.143-365.143L531.428 748z" class="path1"/></symbol><symbol id="icon-clock-o" viewBox="0 0 877.7140070597306 1024"><path d="M512 310.857v256q0 8-5.143 13.143t-13.143 5.143H310.857q-8 0-13.143-5.143t-5.143-13.143v-36.571q0-8 5.143-13.143T310.857 512h128V310.857q0-8 5.143-13.143t13.143-5.143h36.571q8 0 13.143 5.143T512 310.857zM749.714 512q0-84.571-41.714-156T594.857 242.857t-156-41.714-156 41.714T169.714 356 128 512t41.714 156 113.143 113.143 156 41.714 156-41.714T708 668t41.714-156zm128 0q0 119.429-58.857 220.286T659.143 892t-220.286 58.857T218.571 892 58.857 732.286 0 512t58.857-220.286T218.571 132t220.286-58.857T659.143 132t159.714 159.714T877.714 512z" class="path1"/></symbol><symbol id="icon-tags" viewBox="0 0 1085.1428871154785 1024"><path d="M256 256q0-30.286-21.429-51.714t-51.714-21.429-51.714 21.429T109.714 256t21.429 51.714 51.714 21.429 51.714-21.429T256 256zm609.714 329.143q0 30.286-21.143 51.429L564 917.715q-22.286 21.143-52 21.143-30.286 0-51.429-21.143L52 508.572q-21.714-21.143-36.857-57.714T0 384.001V146.287q0-29.714 21.714-51.429t51.429-21.714h237.714q30.286 0 66.857 15.143T436 125.144l408.571 408q21.143 22.286 21.143 52zm219.429 0q0 30.286-21.143 51.429L783.429 917.715q-22.286 21.143-52 21.143-20.571 0-33.714-8t-30.286-25.714L936 636.573q21.143-21.143 21.143-51.429 0-29.714-21.143-52l-408.571-408q-21.714-21.714-58.286-36.857t-66.857-15.143h128q30.286 0 66.857 15.143t58.286 36.857l408.571 408q21.143 22.286 21.143 52z" class="path1"/></symbol><symbol id="icon-list" viewBox="0 0 1023.9999904632568 1024"><path d="M146.286 749.714v109.714q0 7.429-5.429 12.857T128 877.714H18.286q-7.429 0-12.857-5.429T0 859.428V749.714q0-7.429 5.429-12.857t12.857-5.429H128q7.429 0 12.857 5.429t5.429 12.857zm0-219.428V640q0 7.429-5.429 12.857T128 658.286H18.286q-7.429 0-12.857-5.429T0 640V530.286q0-7.429 5.429-12.857T18.286 512H128q7.429 0 12.857 5.429t5.429 12.857zm0-219.429v109.714q0 7.429-5.429 12.857T128 438.857H18.286q-7.429 0-12.857-5.429T0 420.571V310.857Q0 303.428 5.429 298t12.857-5.429H128q7.429 0 12.857 5.429t5.429 12.857zM1024 749.714v109.714q0 7.429-5.429 12.857t-12.857 5.429h-768q-7.429 0-12.857-5.429t-5.429-12.857V749.714q0-7.429 5.429-12.857t12.857-5.429h768q7.429 0 12.857 5.429t5.429 12.857zM146.286 91.429v109.714q0 7.429-5.429 12.857T128 219.429H18.286q-7.429 0-12.857-5.429T0 201.143V91.429Q0 84 5.429 78.572t12.857-5.429H128q7.429 0 12.857 5.429t5.429 12.857zM1024 530.286V640q0 7.429-5.429 12.857t-12.857 5.429h-768q-7.429 0-12.857-5.429T219.428 640V530.286q0-7.429 5.429-12.857T237.714 512h768q7.429 0 12.857 5.429t5.429 12.857zm0-219.429v109.714q0 7.429-5.429 12.857t-12.857 5.429h-768q-7.429 0-12.857-5.429t-5.429-12.857V310.857q0-7.429 5.429-12.857t12.857-5.429h768q7.429 0 12.857 5.429t5.429 12.857zm0-219.428v109.714q0 7.429-5.429 12.857t-12.857 5.429h-768q-7.429 0-12.857-5.429t-5.429-12.857V91.429q0-7.429 5.429-12.857t12.857-5.429h768q7.429 0 12.857 5.429T1024 91.429z" class="path1"/></symbol><symbol id="icon-chevron-left" viewBox="0 0 768.0010223388672 1024"><path d="M669.143 172L365.714 475.429l303.429 303.429Q680 789.715 680 804.572t-10.857 25.714l-94.857 94.857Q563.429 936 548.572 936t-25.714-10.857l-424-424q-10.857-10.857-10.857-25.714t10.857-25.714l424-424q10.857-10.857 25.714-10.857t25.714 10.857l94.857 94.857Q680 131.429 680 146.286T669.143 172z" class="path1"/></symbol><symbol id="icon-chevron-right" viewBox="0 0 694.8569641113281 1024"><path d="M632.571 501.143l-424 424Q197.714 936 182.857 936t-25.714-10.857l-94.857-94.857q-10.857-10.857-10.857-25.714t10.857-25.714l303.429-303.429L62.286 172q-10.857-10.857-10.857-25.714t10.857-25.714l94.857-94.857Q168 14.858 182.857 14.858t25.714 10.857l424 424q10.857 10.857 10.857 25.714t-10.857 25.714z" class="path1"/></symbol><symbol id="icon-twitter-square" viewBox="0 0 877.7130457558669 1024"><path d="M731.429 348.571q-32 14.286-69.143 19.429 38.857-22.857 53.143-66.857-37.143 21.714-76.571 29.143-34.857-37.714-87.429-37.714-49.714 0-84.857 35.143t-35.143 84.857q0 16.571 2.857 27.429-73.714-4-138.286-37.143t-109.714-88.571q-16.571 28.571-16.571 60.571 0 65.143 52 100-26.857-.571-57.143-14.857v1.143q0 42.857 28.571 76.286t70.286 41.429q-16.571 4.571-29.143 4.571-7.429 0-22.286-2.286 12 36 42.571 59.429t69.429 24q-66.286 51.429-149.143 51.429-14.857 0-28.571-1.714 84.571 53.714 184 53.714 64 0 120-20.286t96-54.286 68.857-78.286T658 522.573t14-96.286q0-10.286-.571-15.429 36-25.714 60-62.286zm146.285-110.857v548.571q0 68-48.286 116.286t-116.286 48.286H164.571q-68 0-116.286-48.286T-.001 786.285V237.714q0-68 48.286-116.286t116.286-48.286h548.571q68 0 116.286 48.286t48.286 116.286z" class="path1"/></symbol><symbol id="icon-facebook-square" viewBox="0 0 877.7150599161796 1024"><path d="M713.143 73.143q68 0 116.286 48.286t48.286 116.286v548.571q0 68-48.286 116.286t-116.286 48.286H605.714v-340h113.714l17.143-132.571H605.714v-84.571q0-32 13.429-48t52.286-16l69.714-.571V210.859q-36-5.143-101.714-5.143-77.714 0-124.286 45.714t-46.571 129.143v97.714H354.286v132.571h114.286v340h-304q-68 0-116.286-48.286T0 786.286V237.715q0-68 48.286-116.286t116.286-48.286h548.571z" class="path1"/></symbol><symbol id="icon-linkedin-square" viewBox="0 0 877.7130457558669 1024"><path d="M135.429 808h132V411.429h-132V808zM276 289.143q-.571-29.714-20.571-49.143t-53.143-19.429-54 19.429-20.857 49.143q0 29.143 20.286 48.857t52.857 19.714h.571q33.714 0 54.286-19.714T276 289.143zM610.286 808h132V580.571q0-88-41.714-133.143t-110.286-45.143q-77.714 0-119.429 66.857H472v-57.714H340q1.714 37.714 0 396.571h132V586.285q0-21.714 4-32 8.571-20 25.714-34t42.286-14q66.286 0 66.286 89.714v212zm267.428-570.286v548.571q0 68-48.286 116.286t-116.286 48.286H164.571q-68 0-116.286-48.286T-.001 786.285V237.714q0-68 48.286-116.286t116.286-48.286h548.571q68 0 116.286 48.286t48.286 116.286z" class="path1"/></symbol><symbol id="icon-feed" viewBox="0 0 805.3309860229492 1024"><path d="M219.429 768q0 45.714-32 77.714t-77.714 32-77.714-32T.001 768t32-77.714 77.714-32 77.714 32 32 77.714zM512 838.286q1.143 16-9.714 27.429-10.286 12-26.857 12h-77.143q-14.286 0-24.571-9.429t-11.429-23.714q-12.571-130.857-105.429-223.714T33.143 515.429Q18.857 514.286 9.429 504T0 479.429v-77.143q0-16.571 12-26.857 9.714-9.714 24.571-9.714h2.857q91.429 7.429 174.857 46t148 103.714q65.143 64.571 103.714 148t46 174.857zm292.571 1.143q1.143 15.429-10.286 26.857-10.286 11.429-26.286 11.429h-81.714q-14.857 0-25.429-10t-11.143-24.286Q642.856 720.572 591.999 610T459.713 418t-192-132.286-233.429-58.286q-14.286-.571-24.286-11.143t-10-24.857v-81.714q0-16 11.429-26.286Q21.713 73.142 36.57 73.142h1.714q149.714 7.429 286.571 68.571t243.143 168q106.857 106.286 168 243.143t68.571 286.571z" class="path1"/></symbol><symbol id="icon-google-plus-square" viewBox="0 0 877.7130457558669 1024"><path d="M524 517.143q0-14.857-3.429-36.571H313.714v75.429h124q-1.714 13.714-9.429 28.571t-21.429 30.286-38 25.429-55.143 10q-56.571 0-96.571-40.571t-40-97.714 40-97.714 96.571-40.571q52.571 0 87.429 33.714l59.429-57.714q-61.714-57.143-146.857-57.143-91.429 0-155.429 64.286t-64 155.143 64 155.143 155.429 64.286q94.286 0 152.286-60t58-154.286zm197.143 26.286h62.286v-62.857h-62.286v-62.857h-62.857v62.857h-62.857v62.857h62.857v62.857h62.857v-62.857zm156.571-305.715v548.571q0 68-48.286 116.286t-116.286 48.286H164.571q-68 0-116.286-48.286T-.001 786.285V237.714q0-68 48.286-116.286t116.286-48.286h548.571q68 0 116.286 48.286t48.286 116.286z" class="path1"/></symbol><symbol id="icon-smile-o" viewBox="0 0 877.7140070597306 1024"><path d="M648 614.286q-21.143 69.143-78.857 111.429t-130.286 42.286-130.286-42.286-78.857-111.429Q225.143 600 232 586.572t21.714-18q14.286-4.571 27.714 2.286t18 21.714q14.286 45.714 52.857 74t86.571 28.286 86.571-28.286 52.857-74q4.571-14.857 18.286-21.714t28-2.286 21.143 18 2.286 27.714zM365.714 365.714q0 30.286-21.429 51.714t-51.714 21.429-51.714-21.429-21.429-51.714T240.857 314t51.714-21.429T344.285 314t21.429 51.714zm292.572 0q0 30.286-21.429 51.714t-51.714 21.429-51.714-21.429T512 365.714 533.429 314t51.714-21.429T636.857 314t21.429 51.714zM804.571 512q0-74.286-29.143-142t-78-116.571-116.571-78-142-29.143-142 29.143-116.571 78-78 116.571-29.143 142 29.143 142 78 116.571 116.571 78 142 29.143 142-29.143 116.571-78 78-116.571 29.143-142zm73.143 0q0 119.429-58.857 220.286T659.143 892t-220.286 58.857T218.571 892 58.857 732.286 0 512t58.857-220.286T218.571 132t220.286-58.857T659.143 132t159.714 159.714T877.714 512z" class="path1"/></symbol><symbol id="icon-frown-o" viewBox="0 0 877.7140070597306 1024"><path d="M648 702.286q4.571 14.286-2.286 27.714t-21.143 18-28-2.286T578.285 724q-14.286-45.714-52.857-74t-86.571-28.286T352.286 650t-52.857 74q-4.571 14.857-18 21.714T253.715 748q-14.857-4.571-21.714-18t-2.286-27.714q21.143-69.143 78.857-111.429t130.286-42.286 130.286 42.286 78.857 111.429zM365.714 365.714q0 30.286-21.429 51.714t-51.714 21.429-51.714-21.429-21.429-51.714T240.857 314t51.714-21.429T344.285 314t21.429 51.714zm292.572 0q0 30.286-21.429 51.714t-51.714 21.429-51.714-21.429T512 365.714 533.429 314t51.714-21.429T636.857 314t21.429 51.714zM804.571 512q0-74.286-29.143-142t-78-116.571-116.571-78-142-29.143-142 29.143-116.571 78-78 116.571-29.143 142 29.143 142 78 116.571 116.571 78 142 29.143 142-29.143 116.571-78 78-116.571 29.143-142zm73.143 0q0 119.429-58.857 220.286T659.143 892t-220.286 58.857T218.571 892 58.857 732.286 0 512t58.857-220.286T218.571 132t220.286-58.857T659.143 132t159.714 159.714T877.714 512z" class="path1"/></symbol><symbol id="icon-question" viewBox="0 0 637.050895690918 1024"><path d="M410.667 701.716v150.857q0 10.057-7.543 17.6t-17.6 7.543H234.667q-10.057 0-17.6-7.543t-7.543-17.6V701.716q0-10.057 7.543-17.6t17.6-7.543h150.857q10.057 0 17.6 7.543t7.543 17.6zm198.628-377.142q0 33.943-9.743 63.485t-22 48.085-34.572 37.4-36.143 27.343-38.343 22.315q-25.772 14.457-43.057 40.857t-17.285 42.115q0 10.685-7.543 20.428t-17.6 9.743H232.152q-9.428 0-16.028-11.628t-6.6-23.572V572.86q0-52.172 40.857-98.372t89.885-68.2q37.085-16.972 52.8-35.2t15.715-47.772q0-26.4-29.228-46.515t-67.572-20.115q-40.857 0-67.885 18.228-22 15.715-67.257 72.285-8.172 10.057-19.485 10.057-7.543 0-15.715-5.028L38.554 273.656q-8.172-6.285-9.743-15.715t3.457-17.6q100.572-167.2 291.657-167.2 50.285 0 101.2 19.485t91.772 52.172 66.628 80.143 25.772 99.628z" class="path1"/></symbol><symbol id="icon-info" viewBox="0 0 365.71499252319336 1024"><path d="M365.714 768v73.143q0 14.857-10.857 25.714t-25.714 10.857H36.572q-14.857 0-25.714-10.857T.001 841.143V768q0-14.857 10.857-25.714t25.714-10.857h36.571V512H36.572q-14.857 0-25.714-10.857T.001 475.429v-73.143q0-14.857 10.857-25.714t25.714-10.857h219.429q14.857 0 25.714 10.857t10.857 25.714v329.143h36.571q14.857 0 25.714 10.857T365.714 768zm-73.143-658.286v109.714q0 14.857-10.857 25.714T256 255.999H109.714q-14.857 0-25.714-10.857t-10.857-25.714V109.714Q73.143 94.857 84 84t25.714-10.857H256q14.857 0 25.714 10.857t10.857 25.714z" class="path1"/></symbol><symbol id="icon-reddit-square" viewBox="0 0 877.7130457558669 1024"><path d="M536.571 645.143q7.429 7.429 0 14.857-30.286 30.286-97.714 30.286T341.143 660q-7.429-7.429 0-14.857 2.857-3.429 7.429-3.429t7.429 3.429q24 24 82.857 24t82.857-24q2.857-3.429 7.429-3.429t7.429 3.429zM386.286 556q0 17.714-13.143 30.857T342.286 600t-30.857-13.143T298.286 556q0-18.286 12.857-31.143T342.286 512t31.143 12.857T386.286 556zm193.143 0q0 17.714-13.143 30.857T535.429 600t-30.857-13.143T491.429 556q0-18.286 12.857-31.143T535.429 512t31.143 12.857T579.429 556zm122.857-58.857q0-24-17.143-41.143t-41.714-17.143q-24 0-41.714 17.714Q537.144 412 449.144 409.714l30.857-138.857 97.714 22.286q.571 18.286 13.429 30.857t30.571 12.571q18.286 0 31.143-12.857t12.857-31.143-12.857-31.143-31.143-12.857q-27.429 0-39.429 24.571l-108-24q-9.714-2.857-12 7.429L428 409.714q-88 3.429-151.429 47.429-17.143-18.286-42.286-18.286-24.571 0-41.714 17.143t-17.143 41.143q0 17.143 9.143 31.429t24 21.714q-2.857 14.286-2.857 27.429 0 69.714 68.571 119.143t165.143 49.429q97.143 0 165.714-49.429t68.571-119.143q0-14.286-3.429-28 14.286-7.429 23.143-21.429t8.857-31.143zm175.428-259.429v548.571q0 68-48.286 116.286t-116.286 48.286H164.571q-68 0-116.286-48.286T-.001 786.285V237.714q0-68 48.286-116.286t116.286-48.286h548.571q68 0 116.286 48.286t48.286 116.286z" class="path1"/></symbol><symbol id="icon-newspaper-o" viewBox="0 0 1170.288070678711 1024"><path d="M585.143 292.571H365.714V512h219.429V292.571zm73.143 365.715v73.143H292.572v-73.143h365.714zm0-438.857v365.714H292.572V219.429h365.714zM1024 658.286v73.143H731.429v-73.143H1024zM1024 512v73.143H731.429V512H1024zm0-146.286v73.143H731.429v-73.143H1024zm0-146.285v73.143H731.429v-73.143H1024zM146.286 768V219.429H73.143V768q0 14.857 10.857 25.714t25.714 10.857 25.714-10.857T146.285 768zm950.857 0V146.286H219.429V768q0 18.857-6.286 36.571h847.429q14.857 0 25.714-10.857T1097.143 768zm73.143-694.857V768q0 45.714-32 77.714t-77.714 32H109.715q-45.714 0-77.714-32T.001 768V146.286h146.286V73.143h1024z" class="path1"/></symbol><symbol id="icon-balance-scale" viewBox="0 0 1243.4331817626953 1024"><path d="M987.429 256L768 658.286h438.857zM256 256L36.571 658.286h438.857zm469.143-109.714q-8 22.857-26 40.857t-40.857 26v737.714h347.429q8 0 13.143 5.143t5.143 13.143v36.571q0 8-5.143 13.143t-13.143 5.143h-768q-8 0-13.143-5.143t-5.143-13.143v-36.571q0-8 5.143-13.143t13.143-5.143h347.429V213.143q-22.857-8-40.857-26t-26-40.857H237.716q-8 0-13.143-5.143T219.43 128V91.429q0-8 5.143-13.143t13.143-5.143h280.571q12-32.571 40-52.857T621.716 0t63.429 20.286 40 52.857h280.571q8 0 13.143 5.143t5.143 13.143V128q0 8-5.143 13.143t-13.143 5.143H725.145zm-103.429 9.143q18.857 0 32.286-13.429t13.429-32.286T654 77.428t-32.286-13.429-32.286 13.429-13.429 32.286T589.428 142t32.286 13.429zm621.715 502.857q0 41.714-26.571 74.857t-67.143 52-82.571 28.286-79.714 9.429-79.714-9.429-82.571-28.286-67.143-52-26.571-74.857q0-6.286 20-46.286t52.571-99.714 61.143-111.714 58.286-105.143 32-57.143q10.286-18.857 32-18.857t32 18.857q2.286 4 32 57.143t58.286 105.143 61.143 111.714T1223.431 612t20 46.286zm-731.429 0q0 41.714-26.571 74.857t-67.143 52-82.571 28.286-79.714 9.429-79.714-9.429-82.571-28.286-67.143-52T.002 658.286q0-6.286 20-46.286t52.571-99.714 61.143-111.714 58.286-105.143 32-57.143q10.286-18.857 32-18.857t32 18.857q2.286 4 32 57.143t58.286 105.143 61.143 111.714T492.002 612t20 46.286z" class="path1"/></symbol><symbol id="icon-twitter" viewBox="0 0 1024 1024"><path d="M1024 226.4c-37.6 16.8-78.2 28-120.6 33 43.4-26 76.6-67.2 92.4-116.2-40.6 24-85.6 41.6-133.4 51C824 153.4 769.4 128 709 128c-116 0-210 94-210 210 0 16.4 1.8 32.4 5.4 47.8-174.6-8.8-329.4-92.4-433-219.6-18 31-28.4 67.2-28.4 105.6 0 72.8 37 137.2 93.4 174.8-34.4-1-66.8-10.6-95.2-26.2v2.6c0 101.8 72.4 186.8 168.6 206-17.6 4.8-36.2 7.4-55.4 7.4-13.6 0-26.6-1.4-39.6-3.8 26.8 83.4 104.4 144.2 196.2 146-72 56.4-162.4 90-261 90-17 0-33.6-1-50.2-3C93 925.4 203.4 960 322 960c386.4 0 597.8-320.2 597.8-597.8 0-9.2-.2-18.2-.6-27.2 41-29.4 76.6-66.4 104.8-108.6z" class="path1"/></symbol><symbol id="icon-facebook" viewBox="0 0 1024 1024"><path d="M608 192h160V0H608C484.486 0 384 100.486 384 224v96H256v192h128v512h192V512h160l32-192H576v-96c0-17.346 14.654-32 32-32z" class="path1"/></symbol><symbol id="icon-linkedin2" viewBox="0 0 1024 1024"><path d="M384 384h177.106v90.782h2.532C588.278 430.588 648.596 384 738.48 384 925.426 384 960 500.376 960 651.734V960H775.39V686.722c0-65.184-1.334-149.026-96.028-149.026-96.148 0-110.82 70.986-110.82 144.292V960H384V384z" class="path1"/><path d="M64 384h192v576H64V384z" class="path2"/><path d="M256 224c0 53.019-42.981 96-96 96s-96-42.981-96-96 42.981-96 96-96 96 42.981 96 96z" class="path3"/></symbol><symbol id="icon-github" viewBox="0 0 1024 1024"><path d="M512.008 12.642C229.27 12.642 0 241.86 0 524.64c0 226.214 146.704 418.132 350.136 485.836 25.586 4.738 34.992-11.11 34.992-24.632 0-12.204-.48-52.542-.696-95.324-142.448 30.976-172.504-60.41-172.504-60.41-23.282-59.176-56.848-74.916-56.848-74.916-46.452-31.778 3.51-31.124 3.51-31.124 51.4 3.61 78.476 52.766 78.476 52.766 45.672 78.27 119.776 55.64 149.004 42.558 4.588-33.086 17.852-55.68 32.506-68.464C304.846 737.988 185.3 694.08 185.3 497.898c0-55.898 20.004-101.574 52.76-137.428-5.316-12.9-22.854-64.972 4.952-135.5 0 0 43.006-13.752 140.84 52.49 40.836-11.348 84.636-17.036 128.154-17.234 43.502.198 87.336 5.886 128.256 17.234 97.734-66.244 140.656-52.49 140.656-52.49 27.872 70.528 10.35 122.6 5.036 135.5 32.82 35.856 52.694 81.532 52.694 137.428 0 196.654-119.778 239.95-233.79 252.624 18.364 15.89 34.724 47.046 34.724 94.812 0 68.508-.596 123.644-.596 140.508 0 13.628 9.222 29.594 35.172 24.566C877.48 942.632 1024 750.782 1024 524.64c0-282.78-229.234-511.998-511.992-511.998z" class="path1"/></symbol></defs></svg>