<svg style="position: absolute; width: 0; height: 0;" width="0" height="0" version="1.1" xmlns="http://www.w3.org/2000/svg" xmlns:xlink="http://www.w3.org/1999/xlink">
<defs>
<symbol id="icon-home" viewBox="0 0 950.8578853607178 1024">
<title>home</title>
<path class="path1" d="M837.425 535.762v301.664q0 16.34-11.941 28.281t-28.281 11.941h-241.331v-241.331h-160.888v241.331h-241.331q-16.34 0-28.281-11.941t-11.941-28.281v-301.664q0-0.628 0.315-1.885t0.315-1.885l361.368-297.893 361.368 297.893q0.628 1.257 0.628 3.771zM977.573 492.398l-38.965 46.507q-5.027 5.656-13.198 6.913h-1.885q-8.171 0-13.198-4.399l-434.899-362.625-434.899 362.625q-7.541 5.027-15.083 4.399-8.171-1.257-13.198-6.913l-38.965-46.507q-5.027-6.284-4.399-14.769t6.913-13.512l451.867-376.452q20.111-16.34 47.764-16.34t47.764 16.34l153.346 128.207v-122.551q0-8.799 5.656-14.455t14.455-5.656h120.665q8.799 0 14.455 5.656t5.656 14.455v256.414l137.634 114.381q6.284 5.027 6.913 13.512t-4.399 14.769z"></path>
</symbol>
<symbol id="icon-paper-plane-o" viewBox="0 0 1024.5717108249664 1024">
<title>paper-plane-o</title>
<path class="path1" d="M1008 6.286q18.857 13.714 15.429 36.571l-146.286 877.714q-2.857 16.571-18.286 25.714-8 4.571-17.714 4.571-6.286 0-13.714-2.857l-301.143-122.857-170.286 186.857q-10.286 12-26.857 12-8 0-13.143-2.286-10.857-4-17.143-13.429t-6.286-20.857v-258.286l-269.714-110.286q-21.143-8-22.857-31.429-1.714-22.286 18.286-33.714l950.857-548.571q20-12 38.857 1.143zM812.571 862.857l126.286-756-819.429 472.571 192 78.286 493.143-365.143-273.143 455.429z"></path>
</symbol>
<symbol id="icon-clock-o" viewBox="0 0 877.7140070597306 1024">
<title>clock-o</title>
<path class="path1" d="M512 310.857v256q0 8-5.143 13.143t-13.143 5.143h-182.857q-8 0-13.143-5.143t-5.143-13.143v-36.571q0-8 5.143-13.143t13.143-5.143h128v-201.143q0-8 5.143-13.143t13.143-5.143h36.571q8 0 13.143 5.143t5.143 13.143zM749.714 512q0-84.571-41.714-156t-113.143-113.143-156-41.714-156 41.714-113.143 113.143-41.714 156 41.714 156 113.143 113.143 156 41.714 156-41.714 113.143-113.143 41.714-156zM877.714 512q0 119.429-58.857 220.286t-159.714 159.714-220.286 58.857-220.286-58.857-159.714-159.714-58.857-220.286 58.857-220.286 159.714-159.714 220.286-58.857 220.286 58.857 159.714 159.714 58.857 220.286z"></path>
</symbol>
<symbol id="icon-tags" viewBox="0 0 1085.1428871154785 1024">
<title>tags</title>
<path class="path1" d="M256 256q0-30.286-21.429-51.714t-51.714-21.429-51.714 21.429-21.429 51.714 21.429 51.714 51.714 21.429 51.714-21.429 21.429-51.714zM865.714 585.143q0 30.286-21.143 51.429l-280.571 281.143q-22.286 21.143-52 21.143-30.286 0-51.429-21.143l-408.571-409.143q-21.714-21.143-36.857-57.714t-15.143-66.857v-237.714q0-29.714 21.714-51.429t51.429-21.714h237.714q30.286 0 66.857 15.143t58.286 36.857l408.571 408q21.143 22.286 21.143 52zM1085.143 585.143q0 30.286-21.143 51.429l-280.571 281.143q-22.286 21.143-52 21.143-20.571 0-33.714-8t-30.286-25.714l268.571-268.571q21.143-21.143 21.143-51.429 0-29.714-21.143-52l-408.571-408q-21.714-21.714-58.286-36.857t-66.857-15.143h128q30.286 0 66.857 15.143t58.286 36.857l408.571 408q21.143 22.286 21.143 52z"></path>
</symbol>
<symbol id="icon-list" viewBox="0 0 1023.9999904632568 1024">
<title>list</title>
<path class="path1" d="M146.286 749.714v109.714q0 7.429-5.429 12.857t-12.857 5.429h-109.714q-7.429 0-12.857-5.429t-5.429-12.857v-109.714q0-7.429 5.429-12.857t12.857-5.429h109.714q7.429 0 12.857 5.429t5.429 12.857zM146.286 530.286v109.714q0 7.429-5.429 12.857t-12.857 5.429h-109.714q-7.429 0-12.857-5.429t-5.429-12.857v-109.714q0-7.429 5.429-12.857t12.857-5.429h109.714q7.429 0 12.857 5.429t5.429 12.857zM146.286 310.857v109.714q0 7.429-5.429 12.857t-12.857 5.429h-109.714q-7.429 0-12.857-5.429t-5.429-12.857v-109.714q0-7.429 5.429-12.857t12.857-5.429h109.714q7.429 0 12.857 5.429t5.429 12.857zM1024 749.714v109.714q0 7.429-5.429 12.857t-12.857 5.429h-768q-7.429 0-12.857-5.429t-5.429-12.857v-109.714q0-7.429 5.429-12.857t12.857-5.429h768q7.429 0 12.857 5.429t5.429 12.857zM146.286 91.429v109.714q0 7.429-5.429 12.857t-12.857 5.429h-109.714q-7.429 0-12.857-5.429t-5.429-12.857v-109.714q0-7.429 5.429-12.857t12.857-5.429h109.714q7.429 0 12.857 5.429t5.429 12.857zM1024 530.286v109.714q0 7.429-5.429 12.857t-12.857 5.429h-768q-7.429 0-12.857-5.429t-5.429-12.857v-109.714q0-7.429 5.429-12.857t12.857-5.429h768q7.429 0 12.857 5.429t5.429 12.857zM1024 310.857v109.714q0 7.429-5.429 12.857t-12.857 5.429h-768q-7.429 0-12.857-5.429t-5.429-12.857v-109.714q0-7.429 5.429-12.857t12.857-5.429h768q7.429 0 12.857 5.429t5.429 12.857zM1024 91.429v109.714q0 7.429-5.429 12.857t-12.857 5.429h-768q-7.429 0-12.857-5.429t-5.429-12.857v-109.714q0-7.429 5.429-12.857t12.857-5.429h768q7.429 0 12.857 5.429t5.429 12.857z"></path>
</symbol>
<symbol id="icon-chevron-left" viewBox="0 0 768.0010223388672 1024">
<title>chevron-left</title>
<path class="path1" d="M669.143 172l-303.429 303.429 303.429 303.429q10.857 10.857 10.857 25.714t-10.857 25.714l-94.857 94.857q-10.857 10.857-25.714 10.857t-25.714-10.857l-424-424q-10.857-10.857-10.857-25.714t10.857-25.714l424-424q10.857-10.857 25.714-10.857t25.714 10.857l94.857 94.857q10.857 10.857 10.857 25.714t-10.857 25.714z"></path>
</symbol>
<symbol id="icon-chevron-right" viewBox="0 0 694.8569641113281 1024">
<title>chevron-right</title>
<path class="path1" d="M632.571 501.143l-424 424q-10.857 10.857-25.714 10.857t-25.714-10.857l-94.857-94.857q-10.857-10.857-10.857-25.714t10.857-25.714l303.429-303.429-303.429-303.429q-10.857-10.857-10.857-25.714t10.857-25.714l94.857-94.857q10.857-10.857 25.714-10.857t25.714 10.857l424 424q10.857 10.857 10.857 25.714t-10.857 25.714z"></path>
</symbol>
<symbol id="icon-twitter-square" viewBox="0 0 877.7130457558669 1024">
<title>twitter-square</title>
<path class="path1" d="M731.429 348.571q-32 14.286-69.143 19.429 38.857-22.857 53.143-66.857-37.143 21.714-76.571 29.143-34.857-37.714-87.429-37.714-49.714 0-84.857 35.143t-35.143 84.857q0 16.571 2.857 27.429-73.714-4-138.286-37.143t-109.714-88.571q-16.571 28.571-16.571 60.571 0 65.143 52 100-26.857-0.571-57.143-14.857v1.143q0 42.857 28.571 76.286t70.286 41.429q-16.571 4.571-29.143 4.571-7.429 0-22.286-2.286 12 36 42.571 59.429t69.429 24q-66.286 51.429-149.143 51.429-14.857 0-28.571-1.714 84.571 53.714 184 53.714 64 0 120-20.286t96-54.286 68.857-78.286 42.857-92.571 14-96.286q0-10.286-0.571-15.429 36-25.714 60-62.286zM877.714 237.714v548.571q0 68-48.286 116.286t-116.286 48.286h-548.571q-68 0-116.286-48.286t-48.286-116.286v-548.571q0-68 48.286-116.286t116.286-48.286h548.571q68 0 116.286 48.286t48.286 116.286z"></path>
</symbol>
<symbol id="icon-facebook-square" viewBox="0 0 877.7150599161796 1024">
<title>facebook-square</title>
<path class="path1" d="M713.143 73.143q68 0 116.286 48.286t48.286 116.286v548.571q0 68-48.286 116.286t-116.286 48.286h-107.429v-340h113.714l17.143-132.571h-130.857v-84.571q0-32 13.429-48t52.286-16l69.714-0.571v-118.286q-36-5.143-101.714-5.143-77.714 0-124.286 45.714t-46.571 129.143v97.714h-114.286v132.571h114.286v340h-304q-68 0-116.286-48.286t-48.286-116.286v-548.571q0-68 48.286-116.286t116.286-48.286h548.571z"></path>
</symbol>
<symbol id="icon-linkedin-square" viewBox="0 0 877.7130457558669 1024">
<title>linkedin-square</title>
<path class="path1" d="M135.429 808h132v-396.571h-132v396.571zM276 289.143q-0.571-29.714-20.571-49.143t-53.143-19.429-54 19.429-20.857 49.143q0 29.143 20.286 48.857t52.857 19.714h0.571q33.714 0 54.286-19.714t20.571-48.857zM610.286 808h132v-227.429q0-88-41.714-133.143t-110.286-45.143q-77.714 0-119.429 66.857h1.143v-57.714h-132q1.714 37.714 0 396.571h132v-221.714q0-21.714 4-32 8.571-20 25.714-34t42.286-14q66.286 0 66.286 89.714v212zM877.714 237.714v548.571q0 68-48.286 116.286t-116.286 48.286h-548.571q-68 0-116.286-48.286t-48.286-116.286v-548.571q0-68 48.286-116.286t116.286-48.286h548.571q68 0 116.286 48.286t48.286 116.286z"></path>
</symbol>
<symbol id="icon-feed" viewBox="0 0 805.3309860229492 1024">
<title>feed</title>
<path class="path1" d="M219.429 768q0 45.714-32 77.714t-77.714 32-77.714-32-32-77.714 32-77.714 77.714-32 77.714 32 32 77.714zM512 838.286q1.143 16-9.714 27.429-10.286 12-26.857 12h-77.143q-14.286 0-24.571-9.429t-11.429-23.714q-12.571-130.857-105.429-223.714t-223.714-105.429q-14.286-1.143-23.714-11.429t-9.429-24.571v-77.143q0-16.571 12-26.857 9.714-9.714 24.571-9.714h2.857q91.429 7.429 174.857 46t148 103.714q65.143 64.571 103.714 148t46 174.857zM804.571 839.429q1.143 15.429-10.286 26.857-10.286 11.429-26.286 11.429h-81.714q-14.857 0-25.429-10t-11.143-24.286q-6.857-122.857-57.714-233.429t-132.286-192-192-132.286-233.429-58.286q-14.286-0.571-24.286-11.143t-10-24.857v-81.714q0-16 11.429-26.286 10.286-10.286 25.143-10.286h1.714q149.714 7.429 286.571 68.571t243.143 168q106.857 106.286 168 243.143t68.571 286.571z"></path>
</symbol>
<symbol id="icon-smile-o" viewBox="0 0 877.7140070597306 1024">
<title>smile-o</title>
<path class="path1" d="M648 614.286q-21.143 69.143-78.857 111.429t-130.286 42.286-130.286-42.286-78.857-111.429q-4.571-14.286 2.286-27.714t21.714-18q14.286-4.571 27.714 2.286t18 21.714q14.286 45.714 52.857 74t86.571 28.286 86.571-28.286 52.857-74q4.571-14.857 18.286-21.714t28-2.286 21.143 18 2.286 27.714zM365.714 365.714q0 30.286-21.429 51.714t-51.714 21.429-51.714-21.429-21.429-51.714 21.429-51.714 51.714-21.429 51.714 21.429 21.429 51.714zM658.286 365.714q0 30.286-21.429 51.714t-51.714 21.429-51.714-21.429-21.429-51.714 21.429-51.714 51.714-21.429 51.714 21.429 21.429 51.714zM804.571 512q0-74.286-29.143-142t-78-116.571-116.571-78-142-29.143-142 29.143-116.571 78-78 116.571-29.143 142 29.143 142 78 116.571 116.571 78 142 29.143 142-29.143 116.571-78 78-116.571 29.143-142zM877.714 512q0 119.429-58.857 220.286t-159.714 159.714-220.286 58.857-220.286-58.857-159.714-159.714-58.857-220.286 58.857-220.286 159.714-159.714 220.286-58.857 220.286 58.857 159.714 159.714 58.857 220.286z"></path>
</symbol>
<symbol id="icon-frown-o" viewBox="0 0 877.7140070597306 1024">
<title>frown-o</title>
<path class="path1" d="M648 702.286q4.571 14.286-2.286 27.714t-21.143 18-28-2.286-18.286-21.714q-14.286-45.714-52.857-74t-86.571-28.286-86.571 28.286-52.857 74q-4.571 14.857-18 21.714t-27.714 2.286q-14.857-4.571-21.714-18t-2.286-27.714q21.143-69.143 78.857-111.429t130.286-42.286 130.286 42.286 78.857 111.429zM365.714 365.714q0 30.286-21.429 51.714t-51.714 21.429-51.714-21.429-21.429-51.714 21.429-51.714 51.714-21.429 51.714 21.429 21.429 51.714zM658.286 365.714q0 30.286-21.429 51.714t-51.714 21.429-51.714-21.429-21.429-51.714 21.429-51.714 51.714-21.429 51.714 21.429 21.429 51.714zM804.571 512q0-74.286-29.143-142t-78-116.571-116.571-78-142-29.143-142 29.143-116.571 78-78 116.571-29.143 142 29.143 142 78 116.571 116.571 78 142 29.143 142-29.143 116.571-78 78-116.571 29.143-142zM877.714 512q0 119.429-58.857 220.286t-159.714 159.714-220.286 58.857-220.286-58.857-159.714-159.714-58.857-220.286 58.857-220.286 159.714-159.714 220.286-58.857 220.286 58.857 159.714 159.714 58.857 220.286z"></path>
</symbol>
<symbol id="icon-question" viewBox="0 0 637.050895690918 1024">
<title>question</title>
<path class="path1" d="M410.667 701.716v150.857q0 10.057-7.543 17.6t-17.6 7.543h-150.857q-10.057 0-17.6-7.543t-7.543-17.6v-150.857q0-10.057 7.543-17.6t17.6-7.543h150.857q10.057 0 17.6 7.543t7.543 17.6zM609.295 324.574q0 33.943-9.743 63.485t-22 48.085-34.572 37.4-36.143 27.343-38.343 22.315q-25.772 14.457-43.057 40.857t-17.285 42.115q0 10.685-7.543 20.428t-17.6 9.743h-150.857q-9.428 0-16.028-11.628t-6.6-23.572v-28.285q0-52.172 40.857-98.372t89.885-68.2q37.085-16.972 52.8-35.2t15.715-47.772q0-26.4-29.228-46.515t-67.572-20.115q-40.857 0-67.885 18.228-22 15.715-67.257 72.285-8.172 10.057-19.485 10.057-7.543 0-15.715-5.028l-103.085-78.572q-8.172-6.285-9.743-15.715t3.457-17.6q100.572-167.2 291.657-167.2 50.285 0 101.2 19.485t91.772 52.172 66.628 80.143 25.772 99.628z"></path>
</symbol>
<symbol id="icon-info" viewBox="0 0 365.71499252319336 1024">
<title>info</title>
<path class="path1" d="M365.714 768v73.143q0 14.857-10.857 25.714t-25.714 10.857h-292.571q-14.857 0-25.714-10.857t-10.857-25.714v-73.143q0-14.857 10.857-25.714t25.714-10.857h36.571v-219.429h-36.571q-14.857 0-25.714-10.857t-10.857-25.714v-73.143q0-14.857 10.857-25.714t25.714-10.857h219.429q14.857 0 25.714 10.857t10.857 25.714v329.143h36.571q14.857 0 25.714 10.857t10.857 25.714zM292.571 109.714v109.714q0 14.857-10.857 25.714t-25.714 10.857h-146.286q-14.857 0-25.714-10.857t-10.857-25.714v-109.714q0-14.857 10.857-25.714t25.714-10.857h146.286q14.857 0 25.714 10.857t10.857 25.714z"></path>
</symbol>
<symbol id="icon-reddit-square" viewBox="0 0 877.7130457558669 1024">
<title>reddit-square</title>
<path class="path1" d="M536.571 645.143q7.429 7.429 0 14.857-30.286 30.286-97.714 30.286t-97.714-30.286q-7.429-7.429 0-14.857 2.857-3.429 7.429-3.429t7.429 3.429q24 24 82.857 24t82.857-24q2.857-3.429 7.429-3.429t7.429 3.429zM386.286 556q0 17.714-13.143 30.857t-30.857 13.143-30.857-13.143-13.143-30.857q0-18.286 12.857-31.143t31.143-12.857 31.143 12.857 12.857 31.143zM579.429 556q0 17.714-13.143 30.857t-30.857 13.143-30.857-13.143-13.143-30.857q0-18.286 12.857-31.143t31.143-12.857 31.143 12.857 12.857 31.143zM702.286 497.143q0-24-17.143-41.143t-41.714-17.143q-24 0-41.714 17.714-64.571-44.571-152.571-46.857l30.857-138.857 97.714 22.286q0.571 18.286 13.429 30.857t30.571 12.571q18.286 0 31.143-12.857t12.857-31.143-12.857-31.143-31.143-12.857q-27.429 0-39.429 24.571l-108-24q-9.714-2.857-12 7.429l-34.286 153.143q-88 3.429-151.429 47.429-17.143-18.286-42.286-18.286-24.571 0-41.714 17.143t-17.143 41.143q0 17.143 9.143 31.429t24 21.714q-2.857 14.286-2.857 27.429 0 69.714 68.571 119.143t165.143 49.429q97.143 0 165.714-49.429t68.571-119.143q0-14.286-3.429-28 14.286-7.429 23.143-21.429t8.857-31.143zM877.714 237.714v548.571q0 68-48.286 116.286t-116.286 48.286h-548.571q-68 0-116.286-48.286t-48.286-116.286v-548.571q0-68 48.286-116.286t116.286-48.286h548.571q68 0 116.286 48.286t48.286 116.286z"></path>
</symbol>
<symbol id="icon-newspaper-o" viewBox="0 0 1170.288070678711 1024">
<title>newspaper-o</title>
<path class="path1" d="M585.143 292.571h-219.429v219.429h219.429v-219.429zM658.286 658.286v73.143h-365.714v-73.143h365.714zM658.286 219.429v365.714h-365.714v-365.714h365.714zM1024 658.286v73.143h-292.571v-73.143h292.571zM1024 512v73.143h-292.571v-73.143h292.571zM1024 365.714v73.143h-292.571v-73.143h292.571zM1024 219.429v73.143h-292.571v-73.143h292.571zM146.286 768v-548.571h-73.143v548.571q0 14.857 10.857 25.714t25.714 10.857 25.714-10.857 10.857-25.714zM1097.143 768v-621.714h-877.714v621.714q0 18.857-6.286 36.571h847.429q14.857 0 25.714-10.857t10.857-25.714zM1170.286 73.143v694.857q0 45.714-32 77.714t-77.714 32h-950.857q-45.714 0-77.714-32t-32-77.714v-621.714h146.286v-73.143h1024z"></path>
</symbol>
<symbol id="icon-balance-scale" viewBox="0 0 1243.4331817626953 1024">
<title>balance-scale</title>
<path class="path1" d="M987.429 256l-219.429 402.286h438.857zM256 256l-219.429 402.286h438.857zM725.143 146.286q-8 22.857-26 40.857t-40.857 26v737.714h347.429q8 0 13.143 5.143t5.143 13.143v36.571q0 8-5.143 13.143t-13.143 5.143h-768q-8 0-13.143-5.143t-5.143-13.143v-36.571q0-8 5.143-13.143t13.143-5.143h347.429v-737.714q-22.857-8-40.857-26t-26-40.857h-280.571q-8 0-13.143-5.143t-5.143-13.143v-36.571q0-8 5.143-13.143t13.143-5.143h280.571q12-32.571 40-52.857t63.429-20.286 63.429 20.286 40 52.857h280.571q8 0 13.143 5.143t5.143 13.143v36.571q0 8-5.143 13.143t-13.143 5.143h-280.571zM621.714 155.429q18.857 0 32.286-13.429t13.429-32.286-13.429-32.286-32.286-13.429-32.286 13.429-13.429 32.286 13.429 32.286 32.286 13.429zM1243.429 658.286q0 41.714-26.571 74.857t-67.143 52-82.571 28.286-79.714 9.429-79.714-9.429-82.571-28.286-67.143-52-26.571-74.857q0-6.286 20-46.286t52.571-99.714 61.143-111.714 58.286-105.143 32-57.143q10.286-18.857 32-18.857t32 18.857q2.286 4 32 57.143t58.286 105.143 61.143 111.714 52.571 99.714 20 46.286zM512 658.286q0 41.714-26.571 74.857t-67.143 52-82.571 28.286-79.714 9.429-79.714-9.429-82.571-28.286-67.143-52-26.571-74.857q0-6.286 20-46.286t52.571-99.714 61.143-111.714 58.286-105.143 32-57.143q10.286-18.857 32-18.857t32 18.857q2.286 4 32 57.143t58.286 105.143 61.143 111.714 52.571 99.714 20 46.286z"></path>
</symbol>
<symbol id="icon-twitter" viewBox="0 0 1024 1024">
<title>twitter</title>
<path class="path1" d="M1024 226.4c-37.6 16.8-78.2 28-120.6 33 43.4-26 76.6-67.2 92.4-116.2-40.6 24-85.6 41.6-133.4 51-38.4-40.8-93-66.2-153.4-66.2-116 0-210 94-210 210 0 16.4 1.8 32.4 5.4 47.8-174.6-8.8-329.4-92.4-433-219.6-18 31-28.4 67.2-28.4 105.6 0 72.8 37 137.2 93.4 174.8-34.4-1-66.8-10.6-95.2-26.2 0 0.8 0 1.8 0 2.6 0 101.8 72.4 186.8 168.6 206-17.6 4.8-36.2 7.4-55.4 7.4-13.6 0-26.6-1.4-39.6-3.8 26.8 83.4 104.4 144.2 196.2 146-72 56.4-162.4 90-261 90-17 0-33.6-1-50.2-3 93.2 59.8 203.6 94.4 322.2 94.4 386.4 0 597.8-320.2 597.8-597.8 0-9.2-0.2-18.2-0.6-27.2 41-29.4 76.6-66.4 104.8-108.6z"></path>
</symbol>
<symbol id="icon-facebook" viewBox="0 0 1024 1024">
<title>facebook</title>
<path class="path1" d="M608 192h160v-192h-160c-123.514 0-224 100.486-224 224v96h-128v192h128v512h192v-512h160l32-192h-192v-96c0-17.346 14.654-32 32-32z"></path>
</symbol>
<symbol id="icon-linkedin2" viewBox="0 0 1024 1024">
<title>linkedin2</title>
<path class="path1" d="M384 384h177.106v90.782h2.532c24.64-44.194 84.958-90.782 174.842-90.782 186.946 0 221.52 116.376 221.52 267.734v308.266h-184.61v-273.278c0-65.184-1.334-149.026-96.028-149.026-96.148 0-110.82 70.986-110.82 144.292v278.012h-184.542v-576z"></path>
<path class="path2" d="M64 384h192v576h-192v-576z"></path>
<path class="path3" d="M256 224c0 53.019-42.981 96-96 96s-96-42.981-96-96c0-53.019 42.981-96 96-96s96 42.981 96 96z"></path>
</symbol>
<symbol id="icon-github" viewBox="0 0 1024 1024">
<title>github</title>
<path class="path1" d="M512.008 12.642c-282.738 0-512.008 229.218-512.008 511.998 0 226.214 146.704 418.132 350.136 485.836 25.586 4.738 34.992-11.11 34.992-24.632 0-12.204-0.48-52.542-0.696-95.324-142.448 30.976-172.504-60.41-172.504-60.41-23.282-59.176-56.848-74.916-56.848-74.916-46.452-31.778 3.51-31.124 3.51-31.124 51.4 3.61 78.476 52.766 78.476 52.766 45.672 78.27 119.776 55.64 149.004 42.558 4.588-33.086 17.852-55.68 32.506-68.464-113.73-12.942-233.276-56.85-233.276-253.032 0-55.898 20.004-101.574 52.76-137.428-5.316-12.9-22.854-64.972 4.952-135.5 0 0 43.006-13.752 140.84 52.49 40.836-11.348 84.636-17.036 128.154-17.234 43.502 0.198 87.336 5.886 128.256 17.234 97.734-66.244 140.656-52.49 140.656-52.49 27.872 70.528 10.35 122.6 5.036 135.5 32.82 35.856 52.694 81.532 52.694 137.428 0 196.654-119.778 239.95-233.79 252.624 18.364 15.89 34.724 47.046 34.724 94.812 0 68.508-0.596 123.644-0.596 140.508 0 13.628 9.222 29.594 35.172 24.566 203.322-67.776 349.842-259.626 349.842-485.768 0-282.78-229.234-511.998-511.992-511.998z"></path>
</symbol>
</defs>
</svg>
