<?xml version="1.0" encoding="UTF-8" standalone="no"?><!DOCTYPE svg PUBLIC "-//W3C//DTD SVG 1.1//EN" "http://www.w3.org/Graphics/SVG/1.1/DTD/svg11.dtd"><svg width="100%" height="100%" viewBox="0 0 144 15" version="1.1" xmlns="http://www.w3.org/2000/svg" xmlns:xlink="http://www.w3.org/1999/xlink" xml:space="preserve" xmlns:serif="http://www.serif.com/" style="fill-rule:evenodd;clip-rule:evenodd;stroke-linejoin:round;stroke-miterlimit:2;"><rect id="Publisher-Logo" serif:id="Publisher Logo" x="0" y="0" width="144" height="14.4" style="fill:none;"/><g id="Publisher-Logo1" serif:id="Publisher Logo"><path id="Title" d="M17.316,12.732c0.548,-0.033 1.389,-0.066 1.829,-0.066c0.453,0 1.387,0.033 1.961,0.049l0.12,-0.748l-0.04,-0.066c-0.227,0.033 -0.494,0.049 -0.734,0.049c-0.547,0 -0.761,-0.31 -0.761,-1.11c0,-2.661 0.107,-6.627 0.214,-7.933c1.936,0.114 1.989,0.163 2.256,2.122l0.627,-0.065c-0.093,-0.864 -0.173,-1.99 -0.2,-2.757l-0.12,-0.13l-1.135,0.179l-4.137,0l-1.108,-0.179l-0.12,0.13c-0.027,0.767 -0.107,1.893 -0.2,2.824l0.627,-0.066c0.227,-1.927 0.28,-1.976 2.363,-2.058l0,7.117c0,1.73 -0.093,1.877 -1.335,2.008l-0.107,0.7Z" style="fill:#404040;fill-rule:nonzero;"/><path d="M24.205,12.813c0.027,-0.065 1.041,-0.147 1.681,-0.147c0.401,0 1.042,0.033 1.042,0.033l0.093,-0.651l-0.026,-0.065c0,0 -0.254,0.049 -0.468,0.049c-0.374,0 -0.468,-0.18 -0.468,-0.882l0.041,-2.123c0,0 1.402,-0.131 1.749,-0.131c0.468,0 1.537,0.017 1.537,0.017l0,1.829c0,1.045 -0.147,1.29 -0.815,1.29l-0.107,0.651l1.335,-0.017c0.533,0 1.401,0.033 1.401,0.033l0.106,-0.651l-0.04,-0.065c0,0 -0.253,0.033 -0.467,0.033c-0.374,0 -0.467,-0.18 -0.467,-0.866c0,-1.143 0.067,-3.606 0.147,-5.336c0.013,-0.49 0.147,-0.637 0.694,-0.718l0.04,-0.669c0,0 -0.868,0.114 -1.388,0.114c-0.373,0 -1.147,-0.016 -1.147,-0.033l-0.081,0.619l0.027,0.065c0,0 0.241,-0.017 0.374,-0.017c0.321,0 0.401,0.131 0.401,0.686l-0.013,2.189c-0.588,0.081 -1.002,0.114 -1.537,0.114l-1.736,-0.016l0.067,-1.976c0.04,-0.831 0.093,-0.962 0.708,-1.076l0.053,-0.669c0,0 -0.801,0.114 -1.295,0.114c-0.426,0 -1.24,-0.033 -1.24,-0.033l-0.08,0.62l0.04,0.066c0,-0.002 0.227,-0.019 0.36,-0.019c0.32,0 0.401,0.131 0.401,0.686l-0.014,5.191c0,0.719 -0.173,0.947 -0.841,1.094l-0.067,0.667Z" style="fill:#404040;fill-rule:nonzero;"/><path d="M33.151,12.797c0,0 0.747,-0.131 1.614,-0.131c1.121,0 3.337,0.082 3.337,0.082l0.08,-0.082c0.094,-1.14 0.294,-2.218 0.294,-2.218l-0.054,-0.082l-0.586,0.065c-0.173,1.372 -0.373,1.536 -2.016,1.536c-0.749,0 -0.815,-0.082 -0.815,-0.768c0,-0.408 0,-0.996 0.04,-2.237c0.187,-0.033 0.507,-0.082 0.841,-0.082c0.575,0 1.497,0.033 1.497,0.033l0.16,-0.847l-0.053,-0.082c0,0 -0.936,0.131 -1.323,0.131l-1.096,-0.016l0.081,-2.319c0.013,-0.441 0.053,-0.474 0.721,-0.474c1.47,0 1.603,0.082 1.603,0.882c0,0.18 -0.027,0.539 -0.027,0.539l0.64,-0.065c0.066,-1.174 0.253,-2.186 0.253,-2.186l-0.04,-0.082c-0.706,0.098 -1.601,0.147 -3.297,0.147c-0.693,0 -1.641,-0.033 -1.641,-0.033l-0.08,0.619l0.027,0.065c0,0 0.24,-0.017 0.36,-0.017c0.321,0 0.401,0.131 0.401,0.686l-0.014,5.175c0,0.735 -0.187,0.979 -0.841,1.077l-0.066,0.684Z" style="fill:#404040;fill-rule:nonzero;"/><path d="M43.591,12.862c0.027,-0.081 1.215,-0.196 2.028,-0.196c0.4,0 1.135,0.033 1.135,0.049l0.12,-0.748l-0.027,-0.066c-0.147,0.017 -0.4,0.049 -0.601,0.049c-0.467,0 -0.587,-0.228 -0.587,-1.11l0.053,-2.923c0.895,-0.098 1.95,-0.179 2.217,-0.179c0.454,0 1.416,0.016 2.03,0.016l0,2.465c0,1.437 -0.173,1.731 -1.015,1.748l-0.12,0.732c0.481,-0.016 1.202,-0.033 1.535,-0.033c0.427,0 1.187,0.033 1.641,0.049l0.121,-0.748l-0.027,-0.066c-0.147,0.017 -0.401,0.049 -0.601,0.049c-0.467,0 -0.587,-0.212 -0.587,-1.012c0,-1.388 0.08,-4.618 0.187,-7.149c0.026,-0.635 0.2,-0.815 0.854,-0.929l0.053,-0.734c-0.534,0.081 -1.214,0.147 -1.601,0.147c-0.426,0 -1.308,-0.033 -1.308,-0.049l-0.093,0.716l0.026,0.065c0.134,-0.016 0.334,-0.033 0.455,-0.033c0.4,0 0.494,0.18 0.494,0.882l-0.014,2.972c-0.908,0.13 -1.389,0.163 -1.976,0.163l-2.244,-0.016l0.08,-2.646c0.04,-1.173 0.134,-1.32 0.881,-1.467l0.054,-0.734c-0.481,0.081 -1.095,0.147 -1.428,0.147c-0.374,0 -1.067,-0.033 -1.481,-0.049l-0.094,0.716l0.027,0.065c0.133,-0.016 0.347,-0.033 0.454,-0.033c0.4,0 0.494,0.18 0.494,0.882l-0.014,6.855c0,0.915 -0.213,1.209 -1.041,1.404l-0.08,0.749Z" style="fill:#404040;fill-rule:nonzero;"/><path d="M54.152,12.797c0,0 0.747,-0.131 1.614,-0.131c1.121,0 3.337,0.082 3.337,0.082l0.08,-0.082c0.094,-1.14 0.294,-2.218 0.294,-2.218l-0.053,-0.082l-0.587,0.065c-0.173,1.372 -0.373,1.536 -2.016,1.536c-0.748,0 -0.815,-0.082 -0.815,-0.768c0,-0.408 0,-0.996 0.04,-2.237c0.187,-0.033 0.507,-0.082 0.841,-0.082c0.575,0 1.497,0.033 1.497,0.033l0.16,-0.847l-0.053,-0.082c0,0 -0.936,0.131 -1.323,0.131l-1.095,-0.016l0.08,-2.319c0.013,-0.441 0.053,-0.474 0.721,-0.474c1.47,0 1.603,0.082 1.603,0.882c0,0.18 -0.026,0.539 -0.026,0.539l0.639,-0.065c0.067,-1.174 0.253,-2.186 0.253,-2.186l-0.04,-0.082c-0.706,0.098 -1.601,0.147 -3.297,0.147c-0.693,0 -1.641,-0.033 -1.641,-0.033l-0.08,0.619l0.027,0.065c0,0 0.24,-0.017 0.36,-0.017c0.321,0 0.401,0.131 0.401,0.686l-0.014,5.175c0,0.735 -0.186,0.979 -0.841,1.077l-0.066,0.684Z" style="fill:#404040;fill-rule:nonzero;"/><path d="M66.38,12.862l1.027,-0.13l0.067,-0.505l-0.053,-0.081c-0.561,0 -0.895,-0.294 -1.321,-1.078l-1.135,-2.089c1.001,-0.538 1.575,-1.419 1.575,-2.432c0,-1.29 -0.867,-2.055 -2.309,-2.055c0,0 -1.029,0.049 -1.429,0.049c-0.413,0 -1.254,-0.033 -1.254,-0.033l-0.08,0.62l0.04,0.066c0,-0.002 0.227,-0.019 0.374,-0.019c0.294,0 0.387,0.131 0.387,0.67l-0.013,5.207c0,0.735 -0.161,0.915 -0.815,1.012l-0.093,0.668c0,0 0.587,-0.049 1.134,-0.049c0.493,0 1.428,0.016 1.428,0.032l0.107,-0.618l-0.027,-0.049c-0.708,-0.016 -0.788,-0.13 -0.788,-1.029l0.027,-1.747l0.868,0l1.122,2.4c0.334,0.751 0.774,1.19 1.161,1.19Zm-2.042,-4.306l-1.083,-0.131c0,-0.849 0.04,-1.698 0.107,-2.939c0,-0.229 0.04,-0.294 0.187,-0.294c1.283,0 1.911,0.522 1.911,1.584c0,1.388 -1.056,1.747 -1.122,1.78Z" style="fill:#404040;fill-rule:nonzero;"/><path d="M72.522,12.895l0.387,-0.098c0.694,-2.283 1.388,-4.536 2.002,-6.447l0.067,0c0,0 0.334,4.653 0.334,5.11c0,0.392 -0.187,0.572 -0.641,0.637l-0.054,0.667c0.027,0 0.815,-0.098 1.255,-0.098c0.414,0 1.068,0.033 1.068,0.033l0.093,-0.651l-0.026,-0.049c0,0 -0.174,0.017 -0.307,0.017c-0.347,0 -0.441,-0.229 -0.534,-1.192c-0.12,-1.682 -0.28,-4.62 -0.28,-5.045c0,-0.44 0.213,-0.62 0.84,-0.701l0.067,-0.57l-0.026,-0.049c0,0 -0.815,0.082 -1.162,0.082c-0.28,0 -0.801,-0.033 -0.881,-0.016c-0.961,3.377 -1.775,5.923 -1.775,5.923l-0.067,0c0,0.001 -0.827,-2.529 -1.722,-5.956c0,0 -0.507,0.049 -0.867,0.049c-0.362,0 -1.242,-0.065 -1.242,-0.065l-0.093,0.536l0.04,0.082c0.666,0.049 0.92,0.228 0.92,0.669c0,0.376 -0.387,4.587 -0.467,5.371c-0.067,0.669 -0.24,0.898 -0.694,0.963l-0.053,0.667c0,0 0.547,-0.098 0.974,-0.098c0.373,0 1.134,0.049 1.134,0.049l0.093,-0.651l-0.026,-0.048l-0.428,0c-0.24,0 -0.347,-0.115 -0.347,-0.392c0,-0.327 0.334,-5.274 0.334,-5.274l0.067,0c0.629,1.944 1.309,4.196 2.017,6.545Z" style="fill:#404040;fill-rule:nonzero;"/><path d="M78.784,12.797c0,0 0.748,-0.131 1.614,-0.131c1.122,0 3.338,0.082 3.338,0.082l0.08,-0.082c0.093,-1.14 0.293,-2.218 0.293,-2.218l-0.053,-0.082l-0.587,0.065c-0.173,1.372 -0.373,1.536 -2.016,1.536c-0.748,0 -0.815,-0.082 -0.815,-0.768c0,-0.408 0,-0.996 0.04,-2.237c0.187,-0.033 0.508,-0.082 0.842,-0.082c0.574,0 1.496,0.033 1.496,0.033l0.16,-0.847l-0.053,-0.082c0,0 -0.935,0.131 -1.323,0.131l-1.095,-0.016l0.08,-2.319c0.013,-0.441 0.054,-0.474 0.722,-0.474c1.469,0 1.603,0.082 1.603,0.882c0,0.18 -0.027,0.539 -0.027,0.539l0.639,-0.065c0.067,-1.174 0.254,-2.186 0.254,-2.186l-0.04,-0.082c-0.706,0.098 -1.601,0.147 -3.298,0.147c-0.693,0 -1.64,-0.033 -1.64,-0.033l-0.08,0.619l0.026,0.065c0,0 0.241,-0.017 0.361,-0.017c0.32,0 0.4,0.131 0.4,0.686l-0.013,5.175c0,0.735 -0.187,0.979 -0.841,1.077l-0.067,0.684Z" style="fill:#404040;fill-rule:nonzero;"/><path d="M86.728,12.732c0,0 1.028,-0.066 1.588,-0.066c0.52,0 1.681,0.049 1.681,0.049l0.094,-0.683l-0.04,-0.049c0,0 -0.227,0.033 -0.588,0.033c-0.454,0 -0.627,-0.245 -0.627,-0.866c0,-2.008 0.08,-4.897 0.173,-5.958c1.335,0.065 1.496,0.032 1.709,1.681l0.614,-0.049c0,0 -0.12,-1.175 -0.147,-2.316l-0.106,-0.114l-0.975,0.131l-3.403,0l-0.948,-0.131l-0.106,0.114c-0.027,1.126 -0.161,2.367 -0.161,2.367l0.628,-0.051c0.187,-1.6 0.36,-1.567 1.802,-1.632l0,5.403c0,1.225 -0.067,1.388 -1.095,1.486l-0.093,0.651Z" style="fill:#404040;fill-rule:nonzero;"/><path d="M92.709,12.813c0,0 0.761,-0.147 1.335,-0.147c0.506,0 1.481,0.033 1.481,0.033l0.093,-0.651l-0.027,-0.065c0,0 -0.293,0.049 -0.547,0.049c-0.374,0 -0.467,-0.18 -0.467,-0.882c0,-1.142 0.066,-3.59 0.146,-5.336c0.027,-0.49 0.161,-0.637 0.761,-0.718l0.054,-0.669c0,0 -0.841,0.114 -1.335,0.114c-0.466,0 -1.28,-0.033 -1.36,-0.033l-0.067,0.619l0.027,0.065c0,0 0.28,-0.017 0.44,-0.017c0.321,0 0.401,0.147 0.401,0.686l-0.014,5.191c0,0.719 -0.173,0.947 -0.854,1.094l-0.067,0.667Z" style="fill:#404040;fill-rule:nonzero;"/><path d="M100.491,12.813c1.322,0 2.283,-0.504 2.283,-0.504l0.08,-0.131c0.067,-0.962 0.281,-2.17 0.281,-2.17l-0.668,0.065c-0.254,1.339 -0.801,1.926 -1.736,1.926c-1.428,0 -2.336,-1.371 -2.336,-3.559c0,-1.975 0.854,-3.15 2.243,-3.15c1.001,0 1.495,0.375 1.495,1.142c0,0.311 -0.026,0.637 -0.026,0.637l0.667,-0.049c0.067,-1.239 0.28,-2.218 0.28,-2.218l-0.053,-0.098c0,-0.001 -1.041,-0.31 -1.949,-0.31c-2.243,0 -3.83,1.843 -3.83,4.471c0,2.432 1.266,3.948 3.269,3.948Z" style="fill:#404040;fill-rule:nonzero;"/><path d="M110.839,12.944l0.854,-0.359l2.87,-8.811c0.187,-0.62 0.334,-0.751 0.881,-0.783l0.107,-0.767c0,0 -0.828,0.049 -1.468,0.049c-0.881,0 -1.909,-0.115 -1.909,-0.115l-0.08,0.7l0.027,0.065l0.694,0c0.654,0 0.921,0.196 0.921,0.653c0,0.49 -1.522,5.32 -2.216,7.507l-0.12,0c0,0.002 -1.682,-7.032 -1.682,-7.554c0,-0.473 0.24,-0.604 1.188,-0.685l0.053,-0.637l-0.04,-0.114c0,0 -1.295,0.179 -2.002,0.179c-0.454,0 -1.548,-0.048 -1.548,-0.048l-0.094,0.701l0.027,0.066c0.694,0.016 1.068,0.31 1.228,0.93c1.121,4.257 2.309,9.023 2.309,9.023Z" style="fill:#404040;fill-rule:nonzero;"/><path d="M119.317,12.781c0,0 0.814,-0.115 1.682,-0.115c0.4,0 1.214,0.033 1.214,0.033l0.067,-0.586l-0.027,-0.065c-0.6,-0.065 -0.827,-0.278 -1.001,-0.898c-0.761,-2.627 -1.695,-6.74 -1.695,-6.74l-0.093,-0.016l-0.948,0.212l-2.096,6.478c-0.227,0.67 -0.427,0.882 -0.814,0.948l-0.08,0.667c0,0 0.681,-0.033 1.228,-0.033c0.721,0 1.535,0.082 1.535,0.082l0.08,-0.618l-0.04,-0.065l-0.574,0c-0.44,0 -0.627,-0.131 -0.627,-0.491c0,-0.098 0.04,-0.245 0.093,-0.457l0.374,-1.209c0.253,-0.032 0.747,-0.098 1.148,-0.098c0.293,0 0.841,0 1.108,0.017l0.32,1.257c0.067,0.213 0.093,0.409 0.093,0.556c0,0.31 -0.2,0.408 -0.947,0.473l-0.04,0.586l0.04,0.082Zm-1.509,-3.638l0.975,-3.231l0.093,0l0.814,3.166c-0.253,0.033 -0.694,0.065 -0.974,0.065l-0.908,0Z" style="fill:#404040;fill-rule:nonzero;"/><path d="M126.313,12.813c1.749,0 2.736,-1.026 2.736,-2.838l0,-4.177c0,-0.49 0.12,-0.588 0.734,-0.702l0.04,-0.653c0,0 -0.627,0.098 -1.121,0.098c-0.413,0 -1.241,-0.033 -1.241,-0.033l-0.08,0.635l0.014,0.049l0.454,-0.017c0.307,0 0.36,0.115 0.387,0.686c0,0 0.053,3.232 0.053,4.098c0,1.306 -0.587,2.008 -1.709,2.008c-1.109,0 -1.71,-0.882 -1.71,-2.417l0.08,-3.736c0.027,-0.473 0.16,-0.637 0.681,-0.718l0.054,-0.653c0,0 -0.722,0.098 -1.188,0.098c-0.467,0 -1.321,-0.033 -1.321,-0.033l-0.08,0.635l0.027,0.049c0,0 0.24,-0.017 0.36,-0.017c0.321,0 0.401,0.131 0.401,0.686l0,4.163c0,1.812 0.853,2.789 2.429,2.789Z" style="fill:#404040;fill-rule:nonzero;"/><path d="M131.52,12.797c0,0 0.721,-0.131 1.574,-0.131c1.095,0 2.977,0.115 2.977,0.115l0.067,-0.098c0.12,-1.337 0.307,-2.561 0.307,-2.561l-0.04,-0.098l-0.587,0.082c-0.227,1.599 -0.454,1.861 -1.669,1.861c-0.748,0 -0.868,-0.131 -0.868,-0.915c0,-1.289 0.04,-3.314 0.134,-4.848c0.053,-0.782 0.013,-0.978 0.747,-1.092l0.054,-0.685c0,0 -0.828,0.114 -1.295,0.114c-0.44,0 -1.227,-0.033 -1.294,-0.033l-0.08,0.62l0.04,0.066c0,-0.002 0.227,-0.019 0.361,-0.019c0.32,0 0.4,0.131 0.4,0.686l-0.013,5.175c0,0.735 -0.174,0.979 -0.734,1.077l-0.081,0.684Z" style="fill:#404040;fill-rule:nonzero;"/><path d="M137.956,12.732c0,0 1.028,-0.066 1.588,-0.066c0.519,0 1.681,0.049 1.681,0.049l0.093,-0.683l-0.04,-0.049c0,0 -0.227,0.033 -0.587,0.033c-0.454,0 -0.628,-0.245 -0.628,-0.866c0,-2.008 0.08,-4.897 0.174,-5.958c1.335,0.065 1.495,0.032 1.709,1.681l0.614,-0.049c0,0 -0.12,-1.175 -0.147,-2.316l-0.107,-0.114l-0.974,0.131l-3.403,0l-0.948,-0.131l-0.107,0.114c-0.027,1.126 -0.16,2.367 -0.16,2.367l0.627,-0.051c0.187,-1.6 0.361,-1.567 1.803,-1.632l0,5.403c0,1.225 -0.067,1.388 -1.095,1.486l-0.093,0.651Z" style="fill:#404040;fill-rule:nonzero;"/><path id="Icon" d="M11.568,4.226l2.251,4.431l-4.502,0l2.251,-4.431Zm-7.503,0l2.251,4.431l-4.502,0l2.251,-4.431Zm4.813,-1.209l2.877,0c0.106,0 0.188,-0.088 0.188,-0.201l0,-0.403c0,-0.113 -0.082,-0.202 -0.188,-0.202l-2.877,0c-0.159,-0.472 -0.569,-0.805 -1.061,-0.805c-0.493,0 -0.903,0.333 -1.062,0.805l-2.877,0c-0.106,0 -0.188,0.089 -0.188,0.202l0,0.403c0,0.113 0.082,0.201 0.188,0.201l2.877,0c0.112,0.34 0.37,0.617 0.687,0.737l0,8.126l-3.564,0c-0.106,0 -0.188,0.088 -0.188,0.201l0,0.403c0,0.114 0.082,0.202 0.188,0.202l7.877,0c0.105,0 0.187,-0.088 0.187,-0.202l0,-0.403c0,-0.113 -0.082,-0.201 -0.187,-0.201l-3.564,0l0,-8.126c0.317,-0.12 0.575,-0.397 0.686,-0.737l0.001,0Zm-1.061,0.101c-0.258,0 -0.469,-0.227 -0.469,-0.504c0,-0.277 0.211,-0.503 0.469,-0.503c0.257,0 0.468,0.226 0.468,0.503c0,0.277 -0.211,0.504 -0.468,0.504Zm6.376,5.539c0,-0.245 -2.045,-4.135 -2.298,-4.626c-0.064,-0.126 -0.193,-0.208 -0.328,-0.208c-0.135,0 -0.263,0.082 -0.328,0.208c-0.252,0.491 -2.298,4.381 -2.298,4.626c0,1.297 1.671,1.813 2.626,1.813c0.956,0 2.626,-0.516 2.626,-1.813Zm-7.502,0c0.001,-0.245 -2.045,-4.135 -2.297,-4.626c-0.064,-0.126 -0.193,-0.208 -0.328,-0.208c-0.135,0 -0.264,0.082 -0.328,0.208c-0.253,0.491 -2.298,4.381 -2.298,4.626c0,1.297 1.67,1.813 2.625,1.813c0.956,0 2.626,-0.516 2.626,-1.813Z" style="fill:#404040;fill-rule:nonzero;"/></g></svg>