<?xml version="1.0" encoding="UTF-8" standalone="no"?><!DOCTYPE svg PUBLIC "-//W3C//DTD SVG 1.1//EN" "http://www.w3.org/Graphics/SVG/1.1/DTD/svg11.dtd"><svg width="100%" height="100%" viewBox="0 0 16 16" version="1.1" xmlns="http://www.w3.org/2000/svg" xmlns:xlink="http://www.w3.org/1999/xlink" xml:space="preserve" xmlns:serif="http://www.serif.com/" style="fill-rule:evenodd;clip-rule:evenodd;stroke-linejoin:round;stroke-miterlimit:2;"><rect id="Feed-Icon" serif:id="Feed Icon" x="0" y="0" width="15.36" height="15.36" style="fill:none;"/><path id="Icon" d="M12.003,4.43l2.594,5.107l-5.188,0l2.594,-5.107Zm-8.646,0l2.594,5.107l-5.188,0l2.594,-5.107Zm5.546,-1.393l3.316,0c0.122,0 0.216,-0.101 0.216,-0.232l0,-0.464c0,-0.131 -0.094,-0.232 -0.216,-0.232l-3.316,0c-0.183,-0.545 -0.656,-0.929 -1.223,-0.929c-0.567,0 -1.04,0.384 -1.223,0.929l-3.316,0c-0.122,0 -0.216,0.101 -0.216,0.232l0,0.464c0,0.131 0.094,0.232 0.216,0.232l3.316,0c0.128,0.392 0.426,0.711 0.791,0.849l0,9.365l-4.107,0c-0.122,0 -0.216,0.102 -0.216,0.233l0,0.464c0,0.13 0.094,0.232 0.216,0.232l9.078,0c0.121,0 0.216,-0.102 0.216,-0.232l0,-0.464c0,-0.131 -0.095,-0.233 -0.216,-0.233l-4.107,0l0,-9.365c0.365,-0.138 0.662,-0.457 0.79,-0.849l0.001,0Zm-1.223,0.116c-0.297,0 -0.54,-0.261 -0.54,-0.58c0,-0.319 0.243,-0.581 0.54,-0.581c0.297,0 0.54,0.262 0.54,0.581c0,0.319 -0.243,0.58 -0.54,0.58Zm7.349,6.384c0,-0.283 -2.358,-4.766 -2.648,-5.332c-0.074,-0.145 -0.223,-0.239 -0.378,-0.239c-0.156,0 -0.304,0.094 -0.379,0.239c-0.29,0.566 -2.647,5.049 -2.647,5.332c0,1.495 1.925,2.089 3.026,2.089c1.101,0 3.026,-0.594 3.026,-2.089Zm-8.646,0c0,-0.283 -2.357,-4.766 -2.647,-5.332c-0.075,-0.145 -0.223,-0.239 -0.379,-0.239c-0.155,0 -0.304,0.094 -0.378,0.239c-0.291,0.566 -2.648,5.049 -2.648,5.332c0,1.495 1.925,2.089 3.026,2.089c1.101,0 3.026,-0.594 3.026,-2.089Z" style="fill:#404040;fill-rule:nonzero;"/></svg>