<?xml version="1.0" encoding="UTF-8" standalone="no"?><!DOCTYPE svg PUBLIC "-//W3C//DTD SVG 1.1//EN" "http://www.w3.org/Graphics/SVG/1.1/DTD/svg11.dtd"><svg width="100%" height="100%" viewBox="0 0 600 60" version="1.1" xmlns="http://www.w3.org/2000/svg" xmlns:xlink="http://www.w3.org/1999/xlink" xml:space="preserve" xmlns:serif="http://www.serif.com/" style="fill-rule:evenodd;clip-rule:evenodd;stroke-linejoin:round;stroke-miterlimit:2;"><rect id="Publisher-Logo" serif:id="Publisher Logo" x="0" y="0" width="600" height="60" style="fill:none;"/><g id="Publisher-Logo1" serif:id="Publisher Logo"><path id="Title" d="M72.151,53.048c2.281,-0.136 5.785,-0.272 7.618,-0.272c1.888,0 5.782,0.136 8.174,0.204l0.5,-3.119l-0.166,-0.272c-0.946,0.136 -2.059,0.204 -3.06,0.204c-2.281,0 -3.171,-1.293 -3.171,-4.625c0,-11.087 0.445,-27.615 0.89,-33.056c8.066,0.476 8.289,0.68 9.401,8.842l2.615,-0.272c-0.389,-3.597 -0.723,-8.289 -0.834,-11.485l-0.501,-0.544l-4.729,0.748l-17.238,0l-4.617,-0.748l-0.5,0.544c-0.112,3.196 -0.445,7.888 -0.835,11.764l2.615,-0.272c0.945,-8.033 1.168,-8.237 9.846,-8.577l0,29.655c0,7.21 -0.389,7.822 -5.563,8.365l-0.445,2.916Z" style="fill:#404040;fill-rule:nonzero;"/><path d="M100.856,53.388c0.111,-0.272 4.338,-0.612 7.003,-0.612c1.668,0 4.34,0.136 4.34,0.136l0.389,-2.711l-0.111,-0.272c0,0 -1.057,0.204 -1.948,0.204c-1.558,0 -1.948,-0.749 -1.948,-3.675l0.167,-8.845c0,0 5.844,-0.545 7.291,-0.545c1.948,0 6.401,0.068 6.401,0.068l0,7.621c0,4.355 -0.613,5.376 -3.395,5.376l-0.446,2.711l5.562,-0.068c2.221,0 5.837,0.136 5.837,0.136l0.445,-2.711l-0.167,-0.272c0,0 -1.057,0.136 -1.947,0.136c-1.557,0 -1.947,-0.749 -1.947,-3.607c0,-4.763 0.279,-15.025 0.612,-22.233c0.056,-2.04 0.612,-2.652 2.893,-2.992l0.167,-2.788c0,0 -3.616,0.476 -5.782,0.476c-1.555,0 -4.782,-0.068 -4.782,-0.136l-0.334,2.576l0.111,0.271c0,0 1.002,-0.068 1.559,-0.068c1.335,0 1.669,0.545 1.669,2.858l-0.055,9.118c-2.449,0.341 -4.175,0.477 -6.401,0.477l-7.235,-0.068l0.278,-8.234c0.167,-3.462 0.39,-4.006 2.95,-4.482l0.222,-2.788c0,0 -3.339,0.476 -5.394,0.476c-1.777,0 -5.17,-0.136 -5.17,-0.136l-0.334,2.584l0.167,0.272c0,-0.009 0.946,-0.077 1.502,-0.077c1.335,0 1.669,0.545 1.669,2.858l-0.056,21.628c0,2.994 -0.723,3.947 -3.504,4.557l-0.278,2.781Z" style="fill:#404040;fill-rule:nonzero;"/><path d="M138.127,53.32c0,0 3.115,-0.544 6.727,-0.544c4.672,0 13.905,0.34 13.905,0.34l0.333,-0.34c0.39,-4.752 1.224,-9.243 1.224,-9.243l-0.222,-0.341l-2.445,0.273c-0.721,5.715 -1.554,6.396 -8.401,6.396c-3.117,0 -3.395,-0.34 -3.395,-3.198c0,-1.701 0,-4.151 0.167,-9.322c0.779,-0.137 2.115,-0.341 3.506,-0.341c2.394,0 6.235,0.136 6.235,0.136l0.667,-3.527l-0.222,-0.341c0,0 -3.896,0.545 -5.511,0.545l-4.564,-0.068l0.334,-9.663c0.055,-1.838 0.222,-1.974 3.006,-1.974c6.123,0 6.68,0.34 6.68,3.675c0,0.748 -0.111,2.246 -0.111,2.246l2.663,-0.273c0.278,-4.891 1.057,-9.107 1.057,-9.107l-0.167,-0.34c-2.943,0.408 -6.671,0.612 -13.74,0.612c-2.888,0 -6.836,-0.136 -6.836,-0.136l-0.334,2.576l0.112,0.271c0,0 1.001,-0.068 1.502,-0.068c1.335,0 1.668,0.545 1.668,2.858l-0.055,21.56c0,3.062 -0.779,4.082 -3.505,4.489l-0.278,2.849Z" style="fill:#404040;fill-rule:nonzero;"/><path d="M181.629,53.592c0.111,-0.34 5.062,-0.816 8.449,-0.816c1.669,0 4.73,0.136 4.73,0.204l0.501,-3.119l-0.112,-0.272c-0.612,0.068 -1.669,0.204 -2.504,0.204c-1.948,0 -2.448,-0.953 -2.448,-4.627l0.222,-12.177c3.729,-0.409 8.125,-0.749 9.238,-0.749c1.892,0 5.899,0.068 8.459,0.068l0,10.273c0,5.987 -0.724,7.212 -4.23,7.28l-0.5,3.051c2.003,-0.068 5.008,-0.136 6.396,-0.136c1.777,0 4.947,0.136 6.838,0.204l0.501,-3.119l-0.111,-0.272c-0.612,0.068 -1.669,0.204 -2.504,0.204c-1.947,0 -2.447,-0.885 -2.447,-4.218c0,-5.783 0.334,-19.244 0.779,-29.789c0.111,-2.645 0.834,-3.393 3.56,-3.869l0.222,-3.06c-2.225,0.34 -5.061,0.612 -6.671,0.612c-1.777,0 -5.45,-0.136 -5.45,-0.204l-0.39,2.984l0.111,0.271c0.557,-0.068 1.392,-0.136 1.893,-0.136c1.669,0 2.059,0.749 2.059,3.674l-0.056,12.382c-3.784,0.545 -5.788,0.681 -8.236,0.681l-9.35,-0.068l0.334,-11.022c0.167,-4.89 0.557,-5.502 3.673,-6.114l0.223,-3.06c-2.004,0.34 -4.563,0.612 -5.952,0.612c-1.555,0 -4.446,-0.136 -6.17,-0.204l-0.389,2.984l0.111,0.271c0.556,-0.068 1.446,-0.136 1.891,-0.136c1.669,0 2.058,0.749 2.058,3.674l-0.055,28.564c0,3.81 -0.89,5.035 -4.339,5.849l-0.334,3.121Z" style="fill:#404040;fill-rule:nonzero;"/><path d="M225.632,53.32c0,0 3.115,-0.544 6.726,-0.544c4.673,0 13.905,0.34 13.905,0.34l0.334,-0.34c0.389,-4.752 1.224,-9.243 1.224,-9.243l-0.223,-0.341l-2.445,0.273c-0.721,5.715 -1.553,6.396 -8.401,6.396c-3.117,0 -3.394,-0.34 -3.394,-3.198c0,-1.701 0,-4.151 0.166,-9.322c0.779,-0.137 2.115,-0.341 3.507,-0.341c2.394,0 6.235,0.136 6.235,0.136l0.667,-3.527l-0.222,-0.341c0,0 -3.897,0.545 -5.511,0.545l-4.565,-0.068l0.334,-9.663c0.056,-1.838 0.223,-1.974 3.006,-1.974c6.124,0 6.68,0.34 6.68,3.675c0,0.748 -0.111,2.246 -0.111,2.246l2.663,-0.273c0.278,-4.891 1.057,-9.107 1.057,-9.107l-0.167,-0.34c-2.942,0.408 -6.67,0.612 -13.739,0.612c-2.888,0 -6.836,-0.136 -6.836,-0.136l-0.334,2.576l0.111,0.271c0,0 1.001,-0.068 1.502,-0.068c1.335,0 1.669,0.545 1.669,2.858l-0.056,21.56c0,3.062 -0.778,4.082 -3.504,4.489l-0.278,2.849Z" style="fill:#404040;fill-rule:nonzero;"/><path d="M276.582,53.592l4.282,-0.542l0.278,-2.102l-0.222,-0.339c-2.337,0 -3.727,-1.225 -5.505,-4.491l-4.726,-8.707c4.171,-2.238 6.559,-5.913 6.559,-10.131c0,-5.376 -3.61,-8.563 -9.62,-8.563c0,0 -4.287,0.204 -5.953,0.204c-1.721,0 -5.225,-0.136 -5.225,-0.136l-0.334,2.584l0.167,0.272c0,-0.009 0.946,-0.077 1.558,-0.077c1.224,0 1.613,0.544 1.613,2.79l-0.056,21.696c0,3.062 -0.667,3.811 -3.393,4.219l-0.389,2.779c0,0 2.447,-0.204 4.726,-0.204c2.055,0 5.95,0.068 5.95,0.136l0.445,-2.576l-0.111,-0.203c-2.951,-0.068 -3.285,-0.545 -3.285,-4.287l0.111,-7.282l3.619,0l4.676,10.003c1.391,3.126 3.224,4.957 4.835,4.957Zm-8.509,-17.944l-4.509,-0.543c0,-3.539 0.167,-7.077 0.445,-12.248c0,-0.953 0.167,-1.225 0.779,-1.225c5.345,0 7.961,2.178 7.961,6.6c0,5.784 -4.398,7.28 -4.676,7.416Z" style="fill:#404040;fill-rule:nonzero;"/><path d="M302.174,53.728l1.613,-0.408c2.892,-9.514 5.784,-18.901 8.343,-26.86l0.278,0c0,0 1.39,19.387 1.39,21.292c0,1.633 -0.779,2.381 -2.67,2.652l-0.222,2.78c0.111,0 3.393,-0.408 5.228,-0.408c1.724,0 4.449,0.136 4.449,0.136l0.39,-2.712l-0.111,-0.203c0,0 -0.723,0.068 -1.28,0.068c-1.446,0 -1.835,-0.953 -2.224,-4.966c-0.501,-7.006 -1.168,-19.249 -1.168,-21.018c0,-1.836 0.89,-2.585 3.504,-2.925l0.278,-2.371l-0.112,-0.204c0,0 -3.392,0.34 -4.838,0.34c-1.168,0 -3.337,-0.136 -3.671,-0.068c-4.005,14.071 -7.397,24.682 -7.397,24.682l-0.278,0c0,0.002 -3.449,-10.538 -7.175,-24.818c0,0 -2.114,0.204 -3.615,0.204c-1.507,0 -5.174,-0.272 -5.174,-0.272l-0.389,2.236l0.167,0.339c2.778,0.204 3.833,0.953 3.833,2.789c0,1.565 -1.611,19.114 -1.944,22.379c-0.278,2.788 -1,3.741 -2.889,4.012l-0.223,2.78c0,0 2.278,-0.408 4.056,-0.408c1.556,0 4.727,0.204 4.727,0.204l0.389,-2.712l-0.111,-0.203l-1.78,0c-1.002,0 -1.447,-0.476 -1.447,-1.633c0,-1.36 1.391,-21.972 1.391,-21.972l0.278,0c2.62,8.096 5.456,17.483 8.404,27.268Z" style="fill:#404040;fill-rule:nonzero;"/><path d="M328.267,53.32c0,0 3.115,-0.544 6.727,-0.544c4.672,0 13.905,0.34 13.905,0.34l0.333,-0.34c0.39,-4.752 1.224,-9.243 1.224,-9.243l-0.222,-0.341l-2.445,0.273c-0.721,5.715 -1.554,6.396 -8.401,6.396c-3.117,0 -3.395,-0.34 -3.395,-3.198c0,-1.701 0,-4.151 0.167,-9.322c0.779,-0.137 2.115,-0.341 3.506,-0.341c2.394,0 6.235,0.136 6.235,0.136l0.667,-3.527l-0.222,-0.341c0,0 -3.896,0.545 -5.511,0.545l-4.564,-0.068l0.334,-9.663c0.055,-1.838 0.222,-1.974 3.006,-1.974c6.123,0 6.68,0.34 6.68,3.675c0,0.748 -0.111,2.246 -0.111,2.246l2.663,-0.273c0.278,-4.891 1.057,-9.107 1.057,-9.107l-0.167,-0.34c-2.943,0.408 -6.671,0.612 -13.74,0.612c-2.888,0 -6.836,-0.136 -6.836,-0.136l-0.334,2.576l0.112,0.271c0,0 1.001,-0.068 1.502,-0.068c1.335,0 1.668,0.545 1.668,2.858l-0.055,21.56c0,3.062 -0.779,4.082 -3.505,4.489l-0.278,2.849Z" style="fill:#404040;fill-rule:nonzero;"/><path d="M361.366,53.048c0,0 4.284,-0.272 6.617,-0.272c2.166,0 7.006,0.204 7.006,0.204l0.389,-2.847l-0.167,-0.204c0,0 -0.946,0.136 -2.448,0.136c-1.891,0 -2.614,-1.021 -2.614,-3.605c0,-8.367 0.334,-20.407 0.723,-24.828c5.563,0.272 6.23,0.136 7.12,7.006l2.559,-0.204c0,0 -0.5,-4.897 -0.611,-9.649l-0.446,-0.476l-4.06,0.544l-14.179,0l-3.95,-0.544l-0.445,0.476c-0.111,4.692 -0.667,9.86 -0.667,9.86l2.614,-0.211c0.779,-6.666 1.502,-6.53 7.51,-6.802l0,22.515c0,5.102 -0.278,5.782 -4.561,6.189l-0.39,2.712Z" style="fill:#404040;fill-rule:nonzero;"/><path d="M386.288,53.388c0,0 3.171,-0.612 5.56,-0.612c2.11,0 6.171,0.136 6.171,0.136l0.389,-2.711l-0.111,-0.272c0,0 -1.224,0.204 -2.281,0.204c-1.557,0 -1.947,-0.748 -1.947,-3.673c0,-4.759 0.278,-14.959 0.612,-22.235c0.111,-2.04 0.668,-2.652 3.171,-2.992l0.223,-2.788c0,0 -3.505,0.476 -5.561,0.476c-1.943,0 -5.336,-0.136 -5.67,-0.136l-0.278,2.576l0.112,0.271c0,0 1.168,-0.068 1.835,-0.068c1.335,0 1.669,0.612 1.669,2.857l-0.055,21.631c0,2.992 -0.724,3.945 -3.561,4.555l-0.278,2.781Z" style="fill:#404040;fill-rule:nonzero;"/><path d="M418.713,53.388c5.507,0 9.513,-2.102 9.513,-2.102l0.333,-0.543c0.278,-4.011 1.168,-9.045 1.168,-9.045l-2.781,0.272c-1.057,5.578 -3.338,8.027 -7.232,8.027c-5.952,0 -9.735,-5.714 -9.735,-14.829c0,-8.23 3.56,-13.128 9.346,-13.128c4.172,0 6.23,1.565 6.23,4.762c0,1.292 -0.111,2.652 -0.111,2.652l2.782,-0.204c0.278,-5.161 1.168,-9.241 1.168,-9.241l-0.223,-0.408c0,-0.003 -4.339,-1.292 -8.122,-1.292c-9.345,0 -15.958,7.676 -15.958,18.628c0,10.135 5.278,16.451 13.622,16.451Z" style="fill:#404040;fill-rule:nonzero;"/><path d="M461.829,53.932l3.56,-1.496l11.958,-36.711c0.779,-2.584 1.39,-3.128 3.671,-3.264l0.444,-3.196c0,0 -3.448,0.204 -6.117,0.204c-3.671,0 -7.954,-0.476 -7.954,-0.476l-0.333,2.916l0.111,0.271l2.892,0c2.725,0 3.838,0.816 3.838,2.72c0,2.04 -6.341,22.168 -9.233,31.28l-0.501,0c0,0.009 -7.007,-29.299 -7.007,-31.475c0,-1.972 1.001,-2.516 4.95,-2.856l0.222,-2.652l-0.167,-0.476c0,0 -5.395,0.748 -8.343,0.748c-1.891,0 -6.451,-0.204 -6.451,-0.204l-0.39,2.924l0.112,0.272c2.892,0.068 4.449,1.292 5.117,3.876c4.671,17.739 9.621,37.595 9.621,37.595Z" style="fill:#404040;fill-rule:nonzero;"/><path d="M497.153,53.252c0,0 3.393,-0.476 7.008,-0.476c1.668,0 5.061,0.136 5.061,0.136l0.278,-2.44l-0.112,-0.271c-2.502,-0.273 -3.448,-1.157 -4.171,-3.744c-3.17,-10.944 -7.063,-28.08 -7.063,-28.08l-0.389,-0.068l-3.949,0.884l-8.732,26.992c-0.945,2.791 -1.779,3.675 -3.392,3.948l-0.334,2.779c0,0 2.837,-0.136 5.117,-0.136c3.003,0 6.396,0.34 6.396,0.34l0.333,-2.576l-0.167,-0.271l-2.391,0c-1.835,0 -2.614,-0.545 -2.614,-2.042c0,-0.408 0.167,-1.021 0.389,-1.906l1.558,-5.036c1.056,-0.136 3.114,-0.409 4.782,-0.409c1.224,0 3.504,0 4.617,0.068l1.334,5.241c0.278,0.885 0.39,1.702 0.39,2.314c0,1.293 -0.835,1.702 -3.949,1.973l-0.167,2.44l0.167,0.34Zm-6.285,-15.155l4.06,-13.464l0.39,0l3.392,13.192c-1.056,0.136 -2.892,0.272 -4.06,0.272l-3.782,0Z" style="fill:#404040;fill-rule:nonzero;"/><path d="M526.302,53.388c7.291,0 11.401,-4.275 11.401,-11.826l0,-17.405c0,-2.04 0.501,-2.448 3.06,-2.924l0.167,-2.72c0,0 -2.615,0.408 -4.67,0.408c-1.72,0 -5.171,-0.136 -5.171,-0.136l-0.334,2.644l0.056,0.203l1.892,-0.068c1.28,0 1.503,0.476 1.614,2.857c0,0 0.223,13.468 0.223,17.073c0,5.442 -2.449,8.367 -7.124,8.367c-4.62,0 -7.124,-3.673 -7.124,-10.067l0.333,-15.569c0.112,-1.972 0.668,-2.652 2.839,-2.992l0.223,-2.72c0,0 -3.006,0.408 -4.95,0.408c-1.944,0 -5.503,-0.136 -5.503,-0.136l-0.334,2.644l0.111,0.203c0,0 1.001,-0.068 1.502,-0.068c1.335,0 1.669,0.544 1.669,2.857l0,17.345c0,7.551 3.554,11.622 10.12,11.622Z" style="fill:#404040;fill-rule:nonzero;"/><path d="M548.002,53.32c0,0 3.004,-0.544 6.558,-0.544c4.561,0 12.404,0.476 12.404,0.476l0.278,-0.408c0.501,-5.568 1.28,-10.67 1.28,-10.67l-0.167,-0.408l-2.448,0.34c-0.945,6.666 -1.891,7.755 -6.953,7.755c-3.116,0 -3.616,-0.544 -3.616,-3.809c0,-5.374 0.167,-13.809 0.556,-20.203c0.223,-3.256 0.056,-4.072 3.115,-4.548l0.223,-2.856c0,0 -3.449,0.476 -5.393,0.476c-1.833,0 -5.114,-0.136 -5.392,-0.136l-0.334,2.584l0.167,0.272c0,-0.009 0.946,-0.077 1.502,-0.077c1.335,0 1.669,0.544 1.669,2.857l-0.056,21.563c0,3.061 -0.723,4.08 -3.059,4.487l-0.334,2.849Z" style="fill:#404040;fill-rule:nonzero;"/><path d="M574.815,53.048c0,0 4.283,-0.272 6.617,-0.272c2.165,0 7.005,0.204 7.005,0.204l0.39,-2.847l-0.167,-0.204c0,0 -0.946,0.136 -2.448,0.136c-1.891,0 -2.615,-1.021 -2.615,-3.605c0,-8.367 0.334,-20.407 0.724,-24.828c5.562,0.272 6.23,0.136 7.12,7.006l2.559,-0.204c0,0 -0.501,-4.897 -0.612,-9.649l-0.445,-0.476l-4.061,0.544l-14.178,0l-3.95,-0.544l-0.445,0.476c-0.111,4.692 -0.668,9.86 -0.668,9.86l2.615,-0.211c0.779,-6.666 1.502,-6.53 7.51,-6.802l0,22.515c0,5.102 -0.278,5.782 -4.562,6.189l-0.389,2.712Z" style="fill:#404040;fill-rule:nonzero;"/><path id="Icon" d="M48.199,17.607l9.379,18.464l-18.759,0l9.38,-18.464Zm-31.26,0l9.379,18.464l-18.758,0l9.379,-18.464Zm20.051,-5.036l11.99,0c0.44,0 0.782,-0.367 0.782,-0.839l0,-1.678c0,-0.473 -0.342,-0.84 -0.782,-0.84l-11.99,0c-0.66,-1.967 -2.371,-3.357 -4.421,-3.357c-2.051,0 -3.762,1.39 -4.422,3.357l-11.989,0c-0.44,0 -0.782,0.367 -0.782,0.84l0,1.678c0,0.472 0.342,0.839 0.782,0.839l11.989,0c0.465,1.417 1.54,2.571 2.86,3.069l0,33.86l-14.849,0c-0.44,0 -0.782,0.367 -0.782,0.839l0,1.679c0,0.472 0.342,0.839 0.782,0.839l32.822,0c0.438,0 0.78,-0.367 0.78,-0.839l0,-1.679c0,-0.472 -0.342,-0.839 -0.782,-0.839l-14.848,0l0,-33.86c1.319,-0.498 2.394,-1.652 2.858,-3.069l0.002,0Zm-4.421,0.42c-1.074,0 -1.952,-0.944 -1.952,-2.098c0,-1.154 0.878,-2.098 1.952,-2.098c1.073,0 1.952,0.944 1.952,2.098c0,1.154 -0.879,2.098 -1.952,2.098Zm26.569,23.08c0,-1.022 -8.523,-17.231 -9.573,-19.277c-0.269,-0.524 -0.806,-0.865 -1.368,-0.865c-0.562,0 -1.099,0.341 -1.368,0.865c-1.05,2.046 -9.573,18.255 -9.573,19.277c0,5.403 6.96,7.554 10.941,7.554c3.983,0 10.941,-2.151 10.941,-7.554Zm-31.26,0c0.003,-1.022 -8.52,-17.231 -9.57,-19.277c-0.268,-0.524 -0.806,-0.865 -1.367,-0.865c-0.562,0 -1.099,0.341 -1.368,0.865c-1.052,2.046 -9.573,18.255 -9.573,19.277c0,5.403 6.958,7.554 10.939,7.554c3.982,0 10.939,-2.151 10.939,-7.554Z" style="fill:#404040;fill-rule:nonzero;"/></g></svg>