<?xml version="1.0"?><svg xmlns="http://www.w3.org/2000/svg" viewBox="0 0 16 16"><path d="M12.706,4l2.824,6.286l-5.648,0l2.824,-6.286Zm-9.412,0l2.824,6.286l-5.648,0l2.824,-6.286Zm6.037,-1.714l3.611,0c0.132,0 0.235,-0.125 0.235,-0.286l0,-0.571c0,-0.161 -0.103,-0.286 -0.235,-0.286l-3.611,0c-0.198,-0.67 -0.714,-1.143 -1.331,-1.143c-0.617,0 -1.133,0.473 -1.331,1.143l-3.61,0c-0.133,0 -0.236,0.125 -0.236,0.286l0,0.571c0,0.161 0.103,0.286 0.236,0.286l3.61,0c0.14,0.482 0.463,0.875 0.861,1.044l0,11.527l-4.471,0c-0.133,0 -0.236,0.125 -0.236,0.286l0,0.571c0,0.161 0.103,0.286 0.236,0.286l9.883,0c0.131,0 0.234,-0.125 0.234,-0.286l0,-0.571c0,-0.161 -0.103,-0.286 -0.235,-0.286l-4.471,0l0,-11.527c0.397,-0.169 0.721,-0.562 0.86,-1.044l0.001,0Zm-1.331,0.143c-0.323,0 -0.588,-0.322 -0.588,-0.715c0,-0.393 0.265,-0.714 0.588,-0.714c0.323,0 0.588,0.321 0.588,0.714c0,0.393 -0.265,0.715 -0.588,0.715Zm8,7.857c0,-0.349 -2.566,-5.866 -2.883,-6.563c-0.08,-0.178 -0.242,-0.294 -0.411,-0.294c-0.169,0 -0.331,0.116 -0.412,0.294c-0.316,0.697 -2.883,6.214 -2.883,6.563c0,1.839 2.096,2.571 3.295,2.571c1.199,0 3.294,-0.732 3.294,-2.571Zm-9.412,0c0.001,-0.349 -2.566,-5.866 -2.882,-6.563c-0.081,-0.178 -0.243,-0.294 -0.412,-0.294c-0.169,0 -0.331,0.116 -0.411,0.294c-0.317,0.697 -2.883,6.214 -2.883,6.563c0,1.839 2.095,2.571 3.294,2.571c1.199,0 3.294,-0.732 3.294,-2.571Z"/></svg>
