<svg xmlns="http://www.w3.org/2000/svg" fill-rule="evenodd" stroke-linejoin="round" stroke-miterlimit="2" clip-rule="evenodd" viewBox="0 0 16 16"><defs/><path fill="#404040" fill-rule="nonzero" d="M12.213 4.419l2.527 5.627H9.685l2.528-5.627zm-8.426 0l2.528 5.627H1.26l2.527-5.627zm5.404-1.534h3.233c.118 0 .21-.112.21-.256v-.511c0-.144-.092-.256-.21-.256H9.191C9.014 1.262 8.552.839 8 .839s-1.014.423-1.191 1.023H3.577c-.119 0-.211.112-.211.256v.511c0 .144.092.256.211.256h3.232c.125.432.414.783.77.935v10.318H3.577c-.119 0-.211.112-.211.256v.511c0 .144.092.256.211.256h8.847c.117 0 .209-.112.209-.256v-.511c0-.144-.092-.256-.21-.256H8.421V3.82c.355-.152.645-.503.77-.935zM8 3.013c-.289 0-.526-.288-.526-.64 0-.352.237-.639.526-.639.289 0 .526.287.526.639 0 .352-.237.64-.526.64zm7.161 7.033c0-.312-2.297-5.251-2.581-5.875-.071-.159-.216-.263-.367-.263-.152 0-.297.104-.369.263-.283.624-2.581 5.563-2.581 5.875 0 1.646 1.876 2.302 2.95 2.302 1.073 0 2.948-.656 2.948-2.302zm-8.425 0c.001-.312-2.297-5.251-2.58-5.875-.072-.159-.217-.263-.369-.263-.151 0-.296.104-.367.263-.284.624-2.581 5.563-2.581 5.875 0 1.646 1.875 2.302 2.948 2.302 1.074 0 2.949-.656 2.949-2.302z"/></svg>