<?xml version="1.0" encoding="UTF-8" standalone="no"?><svg xmlns:rdf="http://www.w3.org/1999/02/22-rdf-syntax-ns#" xmlns="http://www.w3.org/2000/svg" height="100%" width="100%" version="1.1" xmlns:cc="http://creativecommons.org/ns#" xmlns:dc="http://purl.org/dc/elements/1.1/" viewBox="0 0 128 128"><g transform="translate(-5.3515 -919.27)"><g transform="scale(.90839 1.1009)"><path style="" d="m115.89 865.06 23.271 42.663h-46.542l23.271-42.663zm-77.569 0 23.271 42.663h-46.542l23.271-42.663zm49.754-11.635h29.755c1.0908 0 1.9392-.84841 1.9392-1.9392v-3.8785c0-1.0908-.84841-1.9392-1.9392-1.9392h-29.755c-1.6362-4.5451-5.8783-7.757-10.969-7.757-5.0905 0-9.3326 3.2119-10.969 7.757h-29.755c-1.0908 0-1.9392.84841-1.9392 1.9392v3.8785c0 1.0908.84842 1.9392 1.9392 1.9392h29.755c1.1514 3.2725 3.8179 5.9389 7.0903 7.0903v78.236h-36.845c-1.0908 0-1.9392.84841-1.9392 1.9392v3.8785c0 1.0908.84842 1.9392 1.9392 1.9392h81.448c1.0908 0 1.9392-.84841 1.9392-1.9392v-3.8785c0-1.0908-.84841-1.9392-1.9392-1.9392h-36.845v-78.236c3.2725-1.1514 5.9389-3.8179 7.0903-7.0903zm-10.969.96962c-2.6664 0-4.8481-2.1816-4.8481-4.8481 0-2.6664 2.1816-4.8481 4.8481-4.8481 2.6664 0 4.8481 2.1816 4.8481 4.8481 0 2.6664-2.1816 4.8481-4.8481 4.8481zm65.934 53.329c0-2.3634-21.15-39.815-23.756-44.542-.66661-1.212-1.9998-1.9998-3.3937-1.9998-1.3938 0-2.727.78782-3.3937 1.9998-2.6058 4.7269-23.756 42.178-23.756 44.542 0 12.484 17.271 17.453 27.149 17.453s27.149-4.9693 27.149-17.453zm-77.569 0c0-2.3634-21.15-39.815-23.756-44.542-.66661-1.212-1.9998-1.9998-3.3937-1.9998-1.3938 0-2.727.78782-3.3937 1.9998-2.6058 4.7269-23.756 42.178-23.756 44.542 0 12.484 17.271 17.453 27.149 17.453s27.149-4.9693 27.149-17.453z"/></g></g></svg>
