<?xml version="1.0"?><svg xmlns="http://www.w3.org/2000/svg" viewBox="0 0 128 128"><path d="M99.922 33.075l21.14 46.967H78.78l21.14-46.967zm-70.463 0l21.133 46.967H8.32l21.14-46.967zm45.19-12.81h27.03c.99 0 1.76-.933 1.76-2.134v-4.27c0-1.2-.77-2.13-1.76-2.13H74.65c-1.485-5.003-5.34-8.54-9.963-8.54-4.624 0-8.478 3.537-9.964 8.54h-27.03c-.99 0-1.76.935-1.76 2.136v4.27c0 1.202.77 2.136 1.76 2.136h27.03c1.046 3.6 3.468 6.538 6.44 7.805v86.13h-33.47c-.99 0-1.76.935-1.76 2.136v4.27c0 1.2.77 2.135 1.76 2.135h73.987c.99 0 1.763-.933 1.763-2.134v-4.27c0-1.2-.77-2.134-1.762-2.134H68.21V28.07c2.974-1.266 5.397-4.202 6.44-7.804zm-9.964 1.068c-2.42 0-4.404-2.402-4.404-5.337 0-2.936 1.982-5.338 4.404-5.338 2.424 0 4.406 2.402 4.406 5.338 0 2.935-1.982 5.337-4.404 5.337zm59.894 58.71c0-2.602-19.212-43.832-21.58-49.036-.605-1.335-1.816-2.202-3.082-2.202-1.266 0-2.477.867-3.083 2.202-2.37 5.203-21.58 46.433-21.58 49.036 0 13.744 15.688 19.214 24.66 19.214s24.663-5.47 24.663-19.214zm-70.462 0c0-2.602-19.213-43.832-21.58-49.036-.606-1.335-1.817-2.202-3.083-2.202-1.268 0-2.48.867-3.085 2.202C24.01 36.21 4.795 77.44 4.795 80.043c0 13.744 15.69 19.214 24.664 19.214s24.66-5.47 24.66-19.214z"/></svg>
