<?xml version="1.0" encoding="UTF-8" standalone="no"?><!DOCTYPE svg PUBLIC "-//W3C//DTD SVG 1.1//EN" "http://www.w3.org/Graphics/SVG/1.1/DTD/svg11.dtd"><svg width="100%" height="100%" viewBox="0 0 16 16" version="1.1" xmlns="http://www.w3.org/2000/svg" xmlns:xlink="http://www.w3.org/1999/xlink" xml:space="preserve" xmlns:serif="http://www.serif.com/" style="fill-rule:evenodd;clip-rule:evenodd;stroke-linejoin:round;stroke-miterlimit:2;"><path id="Icon" d="M12.213,4.419l2.527,5.627l-5.055,0l2.528,-5.627Zm-8.426,0l2.528,5.627l-5.055,0l2.527,-5.627Zm5.404,-1.534l3.233,0c0.118,0 0.21,-0.112 0.21,-0.256l0,-0.511c0,-0.144 -0.092,-0.256 -0.21,-0.256l-3.233,0c-0.177,-0.6 -0.639,-1.023 -1.191,-1.023c-0.552,0 -1.014,0.423 -1.191,1.023l-3.232,0c-0.119,0 -0.211,0.112 -0.211,0.256l0,0.511c0,0.144 0.092,0.256 0.211,0.256l3.232,0c0.125,0.432 0.414,0.783 0.77,0.935l0,10.318l-4.002,0c-0.119,0 -0.211,0.112 -0.211,0.256l0,0.511c0,0.144 0.092,0.256 0.211,0.256l8.847,0c0.117,0 0.209,-0.112 0.209,-0.256l0,-0.511c0,-0.144 -0.092,-0.256 -0.21,-0.256l-4.002,0l0,-10.318c0.355,-0.152 0.645,-0.503 0.77,-0.935l0,0Zm-1.191,0.128c-0.289,0 -0.526,-0.288 -0.526,-0.64c0,-0.352 0.237,-0.639 0.526,-0.639c0.289,0 0.526,0.287 0.526,0.639c0,0.352 -0.237,0.64 -0.526,0.64Zm7.161,7.033c0,-0.312 -2.297,-5.251 -2.581,-5.875c-0.071,-0.159 -0.216,-0.263 -0.367,-0.263c-0.152,0 -0.297,0.104 -0.369,0.263c-0.283,0.624 -2.581,5.563 -2.581,5.875c0,1.646 1.876,2.302 2.95,2.302c1.073,0 2.948,-0.656 2.948,-2.302Zm-8.425,0c0.001,-0.312 -2.297,-5.251 -2.58,-5.875c-0.072,-0.159 -0.217,-0.263 -0.369,-0.263c-0.151,0 -0.296,0.104 -0.367,0.263c-0.284,0.624 -2.581,5.563 -2.581,5.875c0,1.646 1.875,2.302 2.948,2.302c1.074,0 2.949,-0.656 2.949,-2.302Z" style="fill:#404040;fill-rule:nonzero;"/></svg>