<svg xmlns="http://www.w3.org/2000/svg" viewBox="0 0 644 551"><defs/><path fill="#FFDEAD" stroke="#404040" stroke-width="1.5" d="M82 24h84l7 27.609h411V314H82V24z"/><path stroke="#404040" stroke-width="1.5" d="M82 51.609h91"/><text x="88" y="42.533" fill="#404040" font-family="alegreya-sans, sans-serif" font-size="14" font-weight="bold" lengthAdjust="spacingAndGlyphs" textLength="74">User Code</text><path fill="#FFDEAD" stroke="#404040" stroke-width="1.5" d="M22 384h99l7 27.609h494V539H22V384z"/><path stroke="#404040" stroke-width="1.5" d="M22 411.609h106"/><text x="28" y="402.533" fill="#404040" font-family="alegreya-sans, sans-serif" font-size="14" font-weight="bold" lengthAdjust="spacingAndGlyphs" textLength="89">Library Code</text><path fill="snow" stroke="#8b0000" stroke-width="1.5" d="M354.5 69.5h213v80.766h-213z"/><text x="431" y="88.957" fill="#404040" font-family="alegreya-sans, sans-serif" font-size="12" lengthAdjust="spacingAndGlyphs" textLength="60">Application</text><path stroke="#8b0000" stroke-width="1.5" d="M355.5 98.594h211m-211 8h211"/><text x="362.5" y="124.013" fill="#404040" font-family="alegreya-sans, sans-serif" font-size="11" lengthAdjust="spacingAndGlyphs" textLength="118">-void OnWindowShow()</text><text x="362.5" y="141.849" fill="#404040" font-family="alegreya-sans, sans-serif" font-size="11" lengthAdjust="spacingAndGlyphs" textLength="197">-bool OnWindowClose(bool force_close)</text><path fill="snow" stroke="#8b0000" stroke-width="1.5" d="M370.5 217h197v80.766h-197z"/><text x="447" y="236.457" fill="#404040" font-family="alegreya-sans, sans-serif" font-size="12" lengthAdjust="spacingAndGlyphs" textLength="44">Window</text><path stroke="#8b0000" stroke-width="1.5" d="M371.5 246.094h195m-195 8h195"/><text x="378.5" y="271.513" fill="#404040" font-family="alegreya-sans, sans-serif" font-size="11" lengthAdjust="spacingAndGlyphs" textLength="66">+void Show()</text><text x="378.5" y="289.349" fill="#404040" font-family="alegreya-sans, sans-serif" font-size="11" lengthAdjust="spacingAndGlyphs" textLength="181">+bool Close(bool force_close = false)</text><path fill="snow" stroke="#8b0000" stroke-width="1.5" d="M224.5 235h111v45.094h-111z"/><text x="229.5" y="254.457" fill="#404040" font-family="alegreya-sans, sans-serif" font-size="12" lengthAdjust="spacingAndGlyphs" textLength="101">WindowObservers</text><path stroke="#8b0000" stroke-width="1.5" d="M225.5 264.094h109m-109 8h109"/><path fill="snow" stroke="#8b0000" stroke-width="1.5" d="M244 64h72v91.859h-72z"/><text x="257" y="83.457" fill="#404040" font-family="alegreya-sans, sans-serif" font-size="12" font-style="italic" lengthAdjust="spacingAndGlyphs" textLength="46">«enum»</text><text x="278.5" y="102.551" fill="#404040" font-family="alegreya-sans, sans-serif" font-size="12" lengthAdjust="spacingAndGlyphs" textLength="3">:</text><path stroke="#8b0000" stroke-width="1.5" d="M245 112.188h70"/><text x="252" y="129.606" fill="#404040" font-family="alegreya-sans, sans-serif" font-size="11" lengthAdjust="spacingAndGlyphs" textLength="56">ShowEvent</text><text x="252" y="147.442" fill="#404040" font-family="alegreya-sans, sans-serif" font-size="11" lengthAdjust="spacingAndGlyphs" textLength="54">CloseEvent</text><path fill="snow" stroke="#8b0000" stroke-width="1.5" d="M98.5 233.5h91v48.188h-91z"/><text x="111" y="252.957" fill="#404040" font-family="alegreya-sans, sans-serif" font-size="12" font-style="italic" lengthAdjust="spacingAndGlyphs" textLength="66">«type alias»</text><text x="103.5" y="272.051" fill="#404040" font-family="alegreya-sans, sans-serif" font-size="12" lengthAdjust="spacingAndGlyphs" textLength="81">ObserverTable</text><path fill="snow" stroke="#8b0000" stroke-width="1.5" d="M360.5 424h245v98.602h-245z"/><text x="388.5" y="443.457" fill="#404040" font-family="alegreya-sans, sans-serif" font-size="12" lengthAdjust="spacingAndGlyphs" textLength="63">Observable</text><path fill="#FFF" stroke="#404040" stroke-dasharray="2 2" d="M484.5 421h124v21.094h-124z"/><text x="487.5" y="436.457" fill="#404040" font-family="alegreya-sans, sans-serif" font-size="12" font-style="italic" lengthAdjust="spacingAndGlyphs" textLength="118">Observers: typename</text><path stroke="#8b0000" stroke-width="1.5" d="M361.5 453.094h243"/><text x="368.5" y="470.513" fill="#404040" font-family="alegreya-sans, sans-serif" font-size="11" lengthAdjust="spacingAndGlyphs" textLength="183">-signals_ : Observers::ObserverTable</text><path stroke="#8b0000" stroke-width="1.5" d="M361.5 478.93h243"/><text x="368.5" y="496.349" fill="#404040" font-family="alegreya-sans, sans-serif" font-size="11" lengthAdjust="spacingAndGlyphs" textLength="216">+boost::signals2::connection Register(F&amp;&amp; f)</text><text x="368.5" y="514.185" fill="#404040" font-family="alegreya-sans, sans-serif" font-size="11" lengthAdjust="spacingAndGlyphs" textLength="229">#Observer::Result Notify(Args&amp;&amp;... args) const</text><path fill="snow" stroke="#8b0000" stroke-width="1.5" d="M38 442h228v62.93H38z"/><text x="66" y="461.457" fill="#404040" font-family="alegreya-sans, sans-serif" font-size="12" lengthAdjust="spacingAndGlyphs" textLength="50">Observer</text><path fill="#FFF" stroke="#404040" stroke-dasharray="2 2" d="M149 439h120v21.094H149z"/><text x="152" y="454.457" fill="#404040" font-family="alegreya-sans, sans-serif" font-size="12" font-style="italic" lengthAdjust="spacingAndGlyphs" textLength="114">Signature: typename</text><path stroke="#8b0000" stroke-width="1.5" d="M39 471.094h226"/><text x="46" y="488.513" fill="#404040" font-family="alegreya-sans, sans-serif" font-size="11" lengthAdjust="spacingAndGlyphs" textLength="212">-signal_ : boost::signals2::signal&lt;Signature&gt;</text><path stroke="#8b0000" stroke-width="1.5" d="M39 496.93h226"/><path fill="none" stroke="#8b0000" d="M463.9 163.745l2.917 53.045"/><path fill="#FFF" stroke="#8b0000" d="M463.186 150.759l-3.664 6.211 4.323 5.771 3.665-6.211-4.324-5.771z"/><path fill="none" stroke="#8b0000" d="M280 156.24v65.375"/><path fill="#8B0000" stroke="#8b0000" d="M280 234.867l4-6-4-6-4 6 4 6z"/><path fill="none" stroke="#8b0000" d="M211.025 257.5h-21.337"/><path fill="#8B0000" stroke="#8b0000" d="M224.26 257.5l-6-4-6 4 6 4 6-4z"/><path fill="none" stroke="#8b0000" stroke-dasharray="7 7" d="M360.434 473.5h-73.815"/><path fill="none" stroke="#8b0000" d="M286.375 480.5l-20-7 20-7v14z"/><text x="294.25" y="464.995" fill="#404040" font-family="alegreya-sans, sans-serif" font-size="13" font-style="italic" lengthAdjust="spacingAndGlyphs" textLength="46">«friend»</text><path fill="none" stroke="#8b0000" d="M471.584 298l6.909 105.606m7.003-.175l-5.679 20.414-8.291-19.5 13.97-.914z"/><path fill="none" stroke="#8b0000" stroke-dasharray="7 7" d="M273.209 280.031C267.179 303.493 261.61 341.249 278 368c15.346 25.047 38.789 44.327 64.411 59.086"/><path fill="none" stroke="#8b0000" d="M346.008 421.069l14.418 15.528-20.955-3.148 6.537-12.38z"/><text x="352" y="346.495" fill="#404040" font-family="alegreya-sans, sans-serif" font-size="13" font-style="italic" lengthAdjust="spacingAndGlyphs" textLength="39">«bind»</text><text x="281" y="362.847" fill="#404040" font-family="alegreya-sans, sans-serif" font-size="13" lengthAdjust="spacingAndGlyphs" textLength="181">Observers → WindowObservers</text><path fill="none" stroke="#8b0000" d="M170.344 441.832l89.947-150.381"/><path fill="#8B0000" stroke="#8b0000" d="M267.022 280.197l-6.513 3.096.354 7.203 6.512-3.097-.353-7.202z"/><text x="187.106" y="429.165" fill="#404040" font-family="alegreya-sans, sans-serif" font-size="13" lengthAdjust="spacingAndGlyphs" textLength="20">1..*</text><text x="240.055" y="303.693" fill="#404040" font-family="alegreya-sans, sans-serif" font-size="13" lengthAdjust="spacingAndGlyphs" textLength="7">1</text><path fill="none" stroke="#8b0000" stroke-dasharray="7 7" d="M141.563 281.654C140.214 295.635 138.678 313.82 138 330c-.707 16.874-1.124 21.149 0 38 1.18 17.691 3.471 36.955 5.864 54.069"/><path fill="none" stroke="#8b0000" d="M150.806 421.16l-3.987 20.812-9.862-18.756 13.849-2.056z"/><text x="149" y="346.495" fill="#404040" font-family="alegreya-sans, sans-serif" font-size="13" font-style="italic" lengthAdjust="spacingAndGlyphs" textLength="39">«bind»</text><text x="141" y="362.847" fill="#404040" font-family="alegreya-sans, sans-serif" font-size="13" lengthAdjust="spacingAndGlyphs" textLength="55">Signature</text><text x="126.265" y="305.066" fill="#404040" font-family="alegreya-sans, sans-serif" font-size="13" lengthAdjust="spacingAndGlyphs" textLength="7">1</text><text x="112.45" y="428.945" fill="#404040" font-family="alegreya-sans, sans-serif" font-size="13" lengthAdjust="spacingAndGlyphs" textLength="20">1..*</text></svg>