<svg xmlns="http://www.w3.org/2000/svg" viewBox="0 0 676 556"><path fill="#FFDEAD" stroke="#404040" stroke-width="1.5" d="M93 16h83l7 26.488h425V344H93V16z"/><path stroke="#404040" stroke-width="1.5" d="M93 42.488h90"/><text x="99" y="33.535" fill="#404040" font-family="alegreya-sans, sans-serif" font-size="14" font-weight="bold" lengthAdjust="spacingAndGlyphs" textLength="73">User Code</text><path fill="#FFDEAD" stroke="#404040" stroke-width="1.5" d="M14 410h101l7 26.488h532V544H14V410z"/><path stroke="#404040" stroke-width="1.5" d="M14 436.488h108"/><text x="20" y="427.535" fill="#404040" font-family="alegreya-sans, sans-serif" font-size="14" font-weight="bold" lengthAdjust="spacingAndGlyphs" textLength="91">Library Code</text><path id="Application" fill="snow" stroke="#8b0000" stroke-width="1.5" d="M366.5 52h233v78.043h-233z"/><text x="451" y="70.602" fill="#404040" font-family="alegreya-sans, sans-serif" font-size="12" lengthAdjust="spacingAndGlyphs" textLength="64">Application</text><path stroke="#8b0000" stroke-width="1.5" d="M367.5 80.133h231m-231 8h231"/><text x="374.5" y="104.768" fill="#404040" font-family="alegreya-sans, sans-serif" font-size="11" lengthAdjust="spacingAndGlyphs" textLength="125">-void OnWindowShow()</text><text x="374.5" y="121.723" fill="#404040" font-family="alegreya-sans, sans-serif" font-size="11" lengthAdjust="spacingAndGlyphs" textLength="217">-bool OnWindowClose(bool force_close)</text><path id="Window" fill="snow" stroke="#8b0000" stroke-width="1.5" d="M380.5 258h219v78.043h-219z"/><text x="468" y="276.602" fill="#404040" font-family="alegreya-sans, sans-serif" font-size="12" lengthAdjust="spacingAndGlyphs" textLength="44">Window</text><path stroke="#8b0000" stroke-width="1.5" d="M381.5 286.133h217m-217 8h217"/><text x="388.5" y="310.768" fill="#404040" font-family="alegreya-sans, sans-serif" font-size="11" lengthAdjust="spacingAndGlyphs" textLength="71">+void Show()</text><text x="388.5" y="327.723" fill="#404040" font-family="alegreya-sans, sans-serif" font-size="11" lengthAdjust="spacingAndGlyphs" textLength="203">+bool Close(bool force_close = false)</text><path id="WindowObservers" fill="snow" stroke="#8b0000" stroke-width="1.5" d="M232.5 275h113v44.133h-113z"/><text x="237.5" y="293.602" fill="#404040" font-family="alegreya-sans, sans-serif" font-size="12" lengthAdjust="spacingAndGlyphs" textLength="103">WindowObservers</text><path stroke="#8b0000" stroke-width="1.5" d="M233.5 303.133h111m-111 8h111"/><path id="Events" fill="snow" stroke="#8b0000" stroke-width="1.5" d="M251.5 47h75v88.176h-75z"/><text x="267" y="65.602" fill="#404040" font-family="alegreya-sans, sans-serif" font-size="12" font-style="italic" lengthAdjust="spacingAndGlyphs" textLength="44">«enum»</text><text x="287" y="83.734" fill="#404040" font-family="alegreya-sans, sans-serif" font-size="12" lengthAdjust="spacingAndGlyphs" textLength="4">:</text><path stroke="#8b0000" stroke-width="1.5" d="M252.5 93.266h73"/><text x="259.5" y="109.9" fill="#404040" font-family="alegreya-sans, sans-serif" font-size="11" lengthAdjust="spacingAndGlyphs" textLength="57">ShowEvent</text><text x="259.5" y="126.856" fill="#404040" font-family="alegreya-sans, sans-serif" font-size="11" lengthAdjust="spacingAndGlyphs" textLength="59">CloseEvent</text><path id="ObserverTable" fill="snow" stroke="#8b0000" stroke-width="1.5" d="M101 274h96v46.266h-96z"/><text x="115.5" y="292.602" fill="#404040" font-family="alegreya-sans, sans-serif" font-size="12" font-style="italic" lengthAdjust="spacingAndGlyphs" textLength="67">«type alias»</text><text x="106" y="310.734" fill="#404040" font-family="alegreya-sans, sans-serif" font-size="12" lengthAdjust="spacingAndGlyphs" textLength="86">ObserverTable</text><path id="Observable" fill="snow" stroke="#8b0000" stroke-width="1.5" d="M380 441h266v94.998H380z"/><text x="414" y="459.602" fill="#404040" font-family="alegreya-sans, sans-serif" font-size="12" lengthAdjust="spacingAndGlyphs" textLength="66">Observable</text><path fill="#FFF" stroke="#404040" stroke-dasharray="2,2" d="M519 438h130v20.133H519z"/><text x="522" y="452.602" fill="#404040" font-family="alegreya-sans, sans-serif" font-size="12" font-style="italic" lengthAdjust="spacingAndGlyphs" textLength="124">Observers: typename</text><path stroke="#8b0000" stroke-width="1.5" d="M381 469.133h264"/><text x="388" y="485.768" fill="#404040" font-family="alegreya-sans, sans-serif" font-size="11" lengthAdjust="spacingAndGlyphs" textLength="200">-signals_ : Observers::ObserverTable</text><path stroke="#8b0000" stroke-width="1.5" d="M381 494.088h264"/><text x="388" y="510.723" fill="#404040" font-family="alegreya-sans, sans-serif" font-size="11" lengthAdjust="spacingAndGlyphs" textLength="241">+boost::signals2::connection Register(F&amp;&amp; f)</text><text x="388" y="527.678" fill="#404040" font-family="alegreya-sans, sans-serif" font-size="11" lengthAdjust="spacingAndGlyphs" textLength="250">#Observer::Result Notify(Args&amp;&amp;... args) const</text><path id="Observer" fill="snow" stroke="#8b0000" stroke-width="1.5" d="M22 458h258v61.088H22z"/><text x="61.5" y="476.602" fill="#404040" font-family="alegreya-sans, sans-serif" font-size="12" lengthAdjust="spacingAndGlyphs" textLength="53">Observer</text><path fill="#FFF" stroke="#404040" stroke-dasharray="2,2" d="M159 455h124v20.133H159z"/><text x="162" y="469.602" fill="#404040" font-family="alegreya-sans, sans-serif" font-size="12" font-style="italic" lengthAdjust="spacingAndGlyphs" textLength="118">Signature: typename</text><path stroke="#8b0000" stroke-width="1.5" d="M23 486.133h256"/><text x="30" y="502.768" fill="#404040" font-family="alegreya-sans, sans-serif" font-size="11" lengthAdjust="spacingAndGlyphs" textLength="242">-signal_ : boost::signals2::signal&lt;Signature&gt;</text><path stroke="#8b0000" stroke-width="1.5" d="M23 511.088h256"/><path id="Application&lt;-Window" fill="none" stroke="#8b0000" stroke-width="1" d="M484.778 143.321l3.894 114.593"/><path fill="#FFF" stroke="#8b0000" d="M484.333 130.232l-3.794 6.132 4.202 5.861 3.794-6.132-4.202-5.861z"/><path id="Events-&gt;WindowObservers" fill="none" stroke="#8b0000" stroke-width="1" d="M289 135.192V261.45"/><path fill="#8B0000" stroke="#8b0000" d="M289 274.769l4-6-4-6-4 6 4 6z"/><path id="WindowObservers&lt;-ObserverTable" fill="none" stroke="#8b0000" stroke-width="1" d="M219.107 297h-21.982"/><path fill="#8B0000" stroke="#8b0000" d="M232.296 297l-6-4-6 4 6 4 6-4z"/><path id="Observable-&gt;Observer" fill="none" stroke="#8b0000" stroke-dasharray="7,7" stroke-width="1" d="M379.922 488.5h-79.38"/><path fill="none" stroke="#8b0000" d="M300.157 495.5l-20-7 20-7v14z"/><text x="308.5" y="480.068" fill="#404040" font-family="alegreya-sans, sans-serif" font-size="13" font-style="italic" lengthAdjust="spacingAndGlyphs" textLength="51">«friend»</text><path id="Window-&gt;Observable" fill="none" stroke="#8b0000" stroke-width="1" d="M494.71 336.215l10.183 84.786"/><path fill="none" stroke="#8b0000" d="M511.844 420.17l-4.565 20.692-9.336-19.023 13.9-1.669z"/><path id="WindowObservers-&gt;Observable" fill="none" stroke="#8b0000" stroke-dasharray="7,7" stroke-width="1" d="M281.931 319.228c-5.81 22.848-10.652 58.43 6.069 82.772 5.447 7.93 36.014 21.325 72.95 35.235"/><path fill="none" stroke="#8b0000" d="M363.476 430.705l16.343 13.488-21.187-.353 4.844-13.135z"/><text x="368" y="381.568" fill="#404040" font-family="alegreya-sans, sans-serif" font-size="13" font-style="italic" lengthAdjust="spacingAndGlyphs" textLength="42">«bind»</text><text x="291" y="396.879" fill="#404040" font-family="alegreya-sans, sans-serif" font-size="13" lengthAdjust="spacingAndGlyphs" textLength="196">Observers → WindowObservers</text><path id="Observer-&gt;WindowObservers" fill="none" stroke="#8b0000" stroke-width="1" d="M173.133 457.786l91.932-127.572"/><path fill="#8B0000" stroke="#8b0000" d="M272.9 319.342l-6.753 2.53-.263 7.206 6.753-2.53.263-7.206z"/><text x="191.204" y="445.083" fill="#404040" font-family="alegreya-sans, sans-serif" font-size="13" lengthAdjust="spacingAndGlyphs" textLength="22">1..*</text><text x="244.05" y="341.694" fill="#404040" font-family="alegreya-sans, sans-serif" font-size="13" lengthAdjust="spacingAndGlyphs" textLength="8">1</text><path id="ObserverTable-&gt;Observer" fill="none" stroke="#8b0000" stroke-dasharray="7,7" stroke-width="1" d="M146.47 320.282c-1.326 13.36-2.808 30.461-3.47 45.718-.694 15.985-.738 20.017 0 36 .534 11.582 1.47 24.008 2.516 35.727"/><path fill="none" stroke="#8b0000" d="M152.492 437.139l-5.034 20.583-8.9-19.23 13.934-1.353z"/><text x="154.5" y="381.568" fill="#404040" font-family="alegreya-sans, sans-serif" font-size="13" font-style="italic" lengthAdjust="spacingAndGlyphs" textLength="42">«bind»</text><text x="146" y="396.879" fill="#404040" font-family="alegreya-sans, sans-serif" font-size="13" lengthAdjust="spacingAndGlyphs" textLength="59">Signature</text><text x="129.902" y="342.847" fill="#404040" font-family="alegreya-sans, sans-serif" font-size="13" lengthAdjust="spacingAndGlyphs" textLength="8">1</text><text x="111.414" y="445.382" fill="#404040" font-family="alegreya-sans, sans-serif" font-size="13" lengthAdjust="spacingAndGlyphs" textLength="22">1..*</text></svg>