<svg xmlns="http://www.w3.org/2000/svg" style="width:700px;height:536px" viewBox="0 0 700 536"><defs/><path fill="#FFDEAD" stroke="#404040" stroke-width="1.5" d="M101 24h83l7 26.488h441V306H101V24z"/><path stroke="#404040" stroke-width="1.5" d="M101 50.488h90"/><text x="107" y="41.535" fill="#404040" font-family="alegreya-sans, sans-serif" font-size="14" font-weight="bold" lengthAdjust="spacingAndGlyphs" textLength="73">User Code</text><path fill="#FFDEAD" stroke="#404040" stroke-width="1.5" d="M22 374h101l7 26.488h548V524H22V374z"/><path stroke="#404040" stroke-width="1.5" d="M22 400.488h108"/><text x="28" y="391.535" fill="#404040" font-family="alegreya-sans, sans-serif" font-size="14" font-weight="bold" lengthAdjust="spacingAndGlyphs" textLength="91">Library Code</text><path fill="snow" stroke="#8b0000" stroke-width="1.5" d="M382.5 68h233v78.043h-233z"/><text x="467" y="86.602" fill="#404040" font-family="alegreya-sans, sans-serif" font-size="12" lengthAdjust="spacingAndGlyphs" textLength="64">Application</text><path stroke="#8b0000" stroke-width="1.5" d="M383.5 96.133h231m-231 8h231"/><text x="390.5" y="120.768" fill="#404040" font-family="alegreya-sans, sans-serif" font-size="11" lengthAdjust="spacingAndGlyphs" textLength="125">-void OnWindowShow()</text><text x="390.5" y="137.723" fill="#404040" font-family="alegreya-sans, sans-serif" font-size="11" lengthAdjust="spacingAndGlyphs" textLength="217">-bool OnWindowClose(bool force_close)</text><path fill="snow" stroke="#8b0000" stroke-width="1.5" d="M396.5 212h219v78.043h-219z"/><text x="484" y="230.602" fill="#404040" font-family="alegreya-sans, sans-serif" font-size="12" lengthAdjust="spacingAndGlyphs" textLength="44">Window</text><path stroke="#8b0000" stroke-width="1.5" d="M397.5 240.133h217m-217 8h217"/><text x="404.5" y="264.768" fill="#404040" font-family="alegreya-sans, sans-serif" font-size="11" lengthAdjust="spacingAndGlyphs" textLength="71">+void Show()</text><text x="404.5" y="281.723" fill="#404040" font-family="alegreya-sans, sans-serif" font-size="11" lengthAdjust="spacingAndGlyphs" textLength="203">+bool Close(bool force_close = false)</text><path fill="snow" stroke="#8b0000" stroke-width="1.5" d="M248.5 229h113v44.133h-113z"/><text x="253.5" y="247.602" fill="#404040" font-family="alegreya-sans, sans-serif" font-size="12" lengthAdjust="spacingAndGlyphs" textLength="103">WindowObservers</text><path stroke="#8b0000" stroke-width="1.5" d="M249.5 257.133h111m-111 8h111"/><path fill="snow" stroke="#8b0000" stroke-width="1.5" d="M267.5 63h75v88.176h-75z"/><text x="283" y="81.602" fill="#404040" font-family="alegreya-sans, sans-serif" font-size="12" font-style="italic" lengthAdjust="spacingAndGlyphs" textLength="44">«enum»</text><text x="303" y="99.734" fill="#404040" font-family="alegreya-sans, sans-serif" font-size="12" lengthAdjust="spacingAndGlyphs" textLength="4">:</text><path stroke="#8b0000" stroke-width="1.5" d="M268.5 109.266h73"/><text x="275.5" y="125.9" fill="#404040" font-family="alegreya-sans, sans-serif" font-size="11" lengthAdjust="spacingAndGlyphs" textLength="57">ShowEvent</text><text x="275.5" y="142.856" fill="#404040" font-family="alegreya-sans, sans-serif" font-size="11" lengthAdjust="spacingAndGlyphs" textLength="59">CloseEvent</text><path fill="snow" stroke="#8b0000" stroke-width="1.5" d="M117 228h96v46.266h-96z"/><text x="131.5" y="246.602" fill="#404040" font-family="alegreya-sans, sans-serif" font-size="12" font-style="italic" lengthAdjust="spacingAndGlyphs" textLength="67">«type alias»</text><text x="122" y="264.734" fill="#404040" font-family="alegreya-sans, sans-serif" font-size="12" lengthAdjust="spacingAndGlyphs" textLength="86">ObserverTable</text><path fill="snow" stroke="#8b0000" stroke-width="1.5" d="M396 413h266v94.998H396z"/><text x="430" y="431.602" fill="#404040" font-family="alegreya-sans, sans-serif" font-size="12" lengthAdjust="spacingAndGlyphs" textLength="66">Observable</text><path fill="#FFF" stroke="#404040" stroke-dasharray="2 2" d="M535 410h130v20.133H535z"/><text x="538" y="424.602" fill="#404040" font-family="alegreya-sans, sans-serif" font-size="12" font-style="italic" lengthAdjust="spacingAndGlyphs" textLength="124">Observers: typename</text><path stroke="#8b0000" stroke-width="1.5" d="M397 441.133h264"/><text x="404" y="457.768" fill="#404040" font-family="alegreya-sans, sans-serif" font-size="11" lengthAdjust="spacingAndGlyphs" textLength="200">-signals_ : Observers::ObserverTable</text><path stroke="#8b0000" stroke-width="1.5" d="M397 466.088h264"/><text x="404" y="482.723" fill="#404040" font-family="alegreya-sans, sans-serif" font-size="11" lengthAdjust="spacingAndGlyphs" textLength="241">+boost::signals2::connection Register(F&amp;&amp; f)</text><text x="404" y="499.678" fill="#404040" font-family="alegreya-sans, sans-serif" font-size="11" lengthAdjust="spacingAndGlyphs" textLength="250">#Observer::Result Notify(Args&amp;&amp;... args) const</text><path fill="snow" stroke="#8b0000" stroke-width="1.5" d="M38 430h258v61.088H38z"/><text x="77.5" y="448.602" fill="#404040" font-family="alegreya-sans, sans-serif" font-size="12" lengthAdjust="spacingAndGlyphs" textLength="53">Observer</text><path fill="#FFF" stroke="#404040" stroke-dasharray="2 2" d="M175 427h124v20.133H175z"/><text x="178" y="441.602" fill="#404040" font-family="alegreya-sans, sans-serif" font-size="12" font-style="italic" lengthAdjust="spacingAndGlyphs" textLength="118">Signature: typename</text><path stroke="#8b0000" stroke-width="1.5" d="M39 458.133h256"/><text x="46" y="474.768" fill="#404040" font-family="alegreya-sans, sans-serif" font-size="11" lengthAdjust="spacingAndGlyphs" textLength="242">-signal_ : boost::signals2::signal&lt;Signature&gt;</text><path stroke="#8b0000" stroke-width="1.5" d="M39 483.088h256"/><path fill="none" stroke="#8b0000" d="M501.53 159.22c.85 17.37 1.79 36.45 2.59 52.62"/><path fill="#FFF" stroke="#8b0000" d="M500.88 146.05l-3.698 6.19 4.291 5.795 3.699-6.19-4.292-5.795z"/><path fill="none" stroke="#8b0000" d="M305 151.38v64.21"/><path fill="#8B0000" stroke="#8b0000" d="M305 228.65l4-6-4-6-4 6 4 6z"/><path fill="none" stroke="#8b0000" d="M235.11 251h-21.99"/><path fill="#8B0000" stroke="#8b0000" d="M248.3 251l-6-4-6 4 6 4 6-4z"/><path fill="none" stroke="#8b0000" stroke-dasharray="7 7" d="M395.92 460.5h-79.38"/><path fill="none" stroke="#8b0000" d="M316.16 467.5l-20-7 20-7v14z"/><text x="324.5" y="452.068" fill="#404040" font-family="alegreya-sans, sans-serif" font-size="13" font-style="italic" lengthAdjust="spacingAndGlyphs" textLength="51">«friend»</text><path fill="none" stroke="#8b0000" d="M510.22 290.06c3.18 28.68 7.62 68.73 11.38 102.7m7-.44l-4.76 20.65-9.16-19.11 13.92-1.54z"/><path fill="none" stroke="#8b0000" stroke-dasharray="7 7" d="M298.36 273.41c-5.72 22.87-10.74 59.24 5.64 84.59 6.09 9.43 44.9 28.15 88.62 46.97"/><path fill="none" stroke="#8b0000" d="M395.56 398.62l15.68 14.25-21.15-1.37 5.47-12.88z"/><text x="384" y="337.568" fill="#404040" font-family="alegreya-sans, sans-serif" font-size="13" font-style="italic" lengthAdjust="spacingAndGlyphs" textLength="42">«bind»</text><text x="307" y="352.879" fill="#404040" font-family="alegreya-sans, sans-serif" font-size="13" lengthAdjust="spacingAndGlyphs" textLength="196">Observers → WindowObservers</text><path fill="none" stroke="#8b0000" d="M186.78 429.76c25.73-38.69 70.53-106.05 96.97-145.81"/><path fill="#8B0000" stroke="#8b0000" d="M291.01 273.04l-6.653 2.782.009 7.211 6.653-2.782-.009-7.211z"/><text x="204.366" y="417.052" fill="#404040" font-family="alegreya-sans, sans-serif" font-size="13" lengthAdjust="spacingAndGlyphs" textLength="22">1..*</text><text x="262.35" y="295.713" fill="#404040" font-family="alegreya-sans, sans-serif" font-size="13" lengthAdjust="spacingAndGlyphs" textLength="8">1</text><path fill="none" stroke="#8b0000" stroke-dasharray="7 7" d="M162.62 274.04c-1.36 13.77-2.93 31.87-3.62 47.96-1.24 29.02.5 61.46 2.67 87.54"/><path fill="none" stroke="#8b0000" d="M168.66 409.18l-5.13 20.56-8.81-19.27 13.94-1.29z"/><text x="170.5" y="337.568" fill="#404040" font-family="alegreya-sans, sans-serif" font-size="13" font-style="italic" lengthAdjust="spacingAndGlyphs" textLength="42">«bind»</text><text x="162" y="352.879" fill="#404040" font-family="alegreya-sans, sans-serif" font-size="13" lengthAdjust="spacingAndGlyphs" textLength="59">Signature</text><text x="145.96" y="296.952" fill="#404040" font-family="alegreya-sans, sans-serif" font-size="13" lengthAdjust="spacingAndGlyphs" textLength="8">1</text><text x="127.308" y="417.028" fill="#404040" font-family="alegreya-sans, sans-serif" font-size="13" lengthAdjust="spacingAndGlyphs" textLength="22">1..*</text></svg>