<svg xmlns="http://www.w3.org/2000/svg" fill-rule="evenodd" stroke-linejoin="round" stroke-miterlimit="2" clip-rule="evenodd" viewBox="0 0 16 16"><path id="Feed-Icon" fill="none" d="M0 0h15.36v15.36H0z"/><path id="Icon" fill="#404040" fill-rule="nonzero" d="M12.003 4.43l2.594 5.107H9.409l2.594-5.107zm-8.646 0l2.594 5.107H.763L3.357 4.43zm5.546-1.393h3.316c.122 0 .216-.101.216-.232v-.464c0-.131-.094-.232-.216-.232H8.903c-.183-.545-.656-.929-1.223-.929-.567 0-1.04.384-1.223.929H3.141c-.122 0-.216.101-.216.232v.464c0 .131.094.232.216.232h3.316c.128.392.426.711.791.849v9.365H3.141c-.122 0-.216.102-.216.233v.464c0 .13.094.232.216.232h9.078c.121 0 .216-.102.216-.232v-.464c0-.131-.095-.233-.216-.233H8.112V3.886c.365-.138.662-.457.79-.849h.001zm-1.223.116c-.297 0-.54-.261-.54-.58 0-.319.243-.581.54-.581.297 0 .54.262.54.581 0 .319-.243.58-.54.58zm7.349 6.384c0-.283-2.358-4.766-2.648-5.332a.433.433 0 00-.378-.239.435.435 0 00-.379.239c-.29.566-2.647 5.049-2.647 5.332 0 1.495 1.925 2.089 3.026 2.089 1.101 0 3.026-.594 3.026-2.089zm-8.646 0c0-.283-2.357-4.766-2.647-5.332a.435.435 0 00-.379-.239.433.433 0 00-.378.239C2.688 4.771.331 9.254.331 9.537c0 1.495 1.925 2.089 3.026 2.089 1.101 0 3.026-.594 3.026-2.089z"/></svg>