<svg xmlns="http://www.w3.org/2000/svg" fill-rule="evenodd" stroke-linejoin="round" stroke-miterlimit="2" clip-rule="evenodd" viewBox="0 0 16 16"><path id="Feed-Icon" fill="none" d="M0 0h16v16H0z"/><clipPath id="_clip1"><path d="M0 0h16v16H0z"/></clipPath><g clip-path="url(#_clip1)"><path id="Icon" fill="#404040" fill-rule="nonzero" d="M12.706 4l2.824 6.286H9.882L12.706 4zM3.294 4l2.824 6.286H.47L3.294 4zm6.037-1.714h3.611c.132 0 .235-.125.235-.286v-.571c0-.161-.103-.286-.235-.286H9.331C9.133.473 8.617 0 8 0S6.867.473 6.669 1.143h-3.61c-.133 0-.236.125-.236.286V2c0 .161.103.286.236.286h3.61c.14.482.463.875.861 1.044v11.527H3.059c-.133 0-.236.125-.236.286v.571c0 .161.103.286.236.286h9.883c.131 0 .234-.125.234-.286v-.571c0-.161-.103-.286-.235-.286H8.47V3.33c.397-.169.721-.562.86-1.044h.001zM8 2.429c-.323 0-.588-.322-.588-.715C7.412 1.321 7.677 1 8 1c.323 0 .588.321.588.714 0 .393-.265.715-.588.715zm8 7.857c0-.349-2.566-5.866-2.883-6.563-.08-.178-.242-.294-.411-.294-.169 0-.331.116-.412.294-.316.697-2.883 6.214-2.883 6.563 0 1.839 2.096 2.571 3.295 2.571 1.199 0 3.294-.732 3.294-2.571zm-9.412 0c.001-.349-2.566-5.866-2.882-6.563-.081-.178-.243-.294-.412-.294-.169 0-.331.116-.411.294C2.566 4.42 0 9.937 0 10.286c0 1.839 2.095 2.571 3.294 2.571 1.199 0 3.294-.732 3.294-2.571z"/></g></svg>