<svg xmlns="http://www.w3.org/2000/svg" fill-rule="evenodd" stroke-linejoin="round" stroke-miterlimit="2" clip-rule="evenodd" viewBox="0 0 600 60"><path id="Publisher-Logo" fill="none" d="M0 0h600v60H0z"/><g id="Publisher-Logo1" fill="#404040" fill-rule="nonzero"><path id="Title" d="M72.151 53.048c2.281-.136 5.785-.272 7.618-.272 1.888 0 5.782.136 8.174.204l.5-3.119-.166-.272a22.52 22.52 0 01-3.06.204c-2.281 0-3.171-1.293-3.171-4.625 0-11.087.445-27.615.89-33.056 8.066.476 8.289.68 9.401 8.842l2.615-.272c-.389-3.597-.723-8.289-.834-11.485l-.501-.544-4.729.748H71.65l-4.617-.748-.5.544c-.112 3.196-.445 7.888-.835 11.764l2.615-.272c.945-8.033 1.168-8.237 9.846-8.577v29.655c0 7.21-.389 7.822-5.563 8.365l-.445 2.916z"/><path d="M100.856 53.388c.111-.272 4.338-.612 7.003-.612 1.668 0 4.34.136 4.34.136l.389-2.711-.111-.272s-1.057.204-1.948.204c-1.558 0-1.948-.749-1.948-3.675l.167-8.845s5.844-.545 7.291-.545c1.948 0 6.401.068 6.401.068v7.621c0 4.355-.613 5.376-3.395 5.376l-.446 2.711 5.562-.068c2.221 0 5.837.136 5.837.136l.445-2.711-.167-.272s-1.057.136-1.947.136c-1.557 0-1.947-.749-1.947-3.607 0-4.763.279-15.025.612-22.233.056-2.04.612-2.652 2.893-2.992l.167-2.788s-3.616.476-5.782.476c-1.555 0-4.782-.068-4.782-.136l-.334 2.576.111.271s1.002-.068 1.559-.068c1.335 0 1.669.545 1.669 2.858l-.055 9.118c-2.449.341-4.175.477-6.401.477l-7.235-.068.278-8.234c.167-3.462.39-4.006 2.95-4.482l.222-2.788s-3.339.476-5.394.476c-1.777 0-5.17-.136-5.17-.136l-.334 2.584.167.272c0-.009.946-.077 1.502-.077 1.335 0 1.669.545 1.669 2.858l-.056 21.628c0 2.994-.723 3.947-3.504 4.557l-.278 2.781zm37.271-.068s3.115-.544 6.727-.544c4.672 0 13.905.34 13.905.34l.333-.34c.39-4.752 1.224-9.243 1.224-9.243l-.222-.341-2.445.273c-.721 5.715-1.554 6.396-8.401 6.396-3.117 0-3.395-.34-3.395-3.198 0-1.701 0-4.151.167-9.322.779-.137 2.115-.341 3.506-.341 2.394 0 6.235.136 6.235.136l.667-3.527-.222-.341s-3.896.545-5.511.545l-4.564-.068.334-9.663c.055-1.838.222-1.974 3.006-1.974 6.123 0 6.68.34 6.68 3.675 0 .748-.111 2.246-.111 2.246l2.663-.273a81.863 81.863 0 011.057-9.107l-.167-.34c-2.943.408-6.671.612-13.74.612-2.888 0-6.836-.136-6.836-.136l-.334 2.576.112.271s1.001-.068 1.502-.068c1.335 0 1.668.545 1.668 2.858l-.055 21.56c0 3.062-.779 4.082-3.505 4.489l-.278 2.849zm43.502.272c.111-.34 5.062-.816 8.449-.816 1.669 0 4.73.136 4.73.204l.501-3.119-.112-.272c-.612.068-1.669.204-2.504.204-1.948 0-2.448-.953-2.448-4.627l.222-12.177c3.729-.409 8.125-.749 9.238-.749 1.892 0 5.899.068 8.459.068v10.273c0 5.987-.724 7.212-4.23 7.28l-.5 3.051c2.003-.068 5.008-.136 6.396-.136 1.777 0 4.947.136 6.838.204l.501-3.119-.111-.272c-.612.068-1.669.204-2.504.204-1.947 0-2.447-.885-2.447-4.218 0-5.783.334-19.244.779-29.789.111-2.645.834-3.393 3.56-3.869l.222-3.06c-2.225.34-5.061.612-6.671.612-1.777 0-5.45-.136-5.45-.204l-.39 2.984.111.271a18.816 18.816 0 011.893-.136c1.669 0 2.059.749 2.059 3.674l-.056 12.382c-3.784.545-5.788.681-8.236.681l-9.35-.068.334-11.022c.167-4.89.557-5.502 3.673-6.114l.223-3.06c-2.004.34-4.563.612-5.952.612-1.555 0-4.446-.136-6.17-.204l-.389 2.984.111.271a19.984 19.984 0 011.891-.136c1.669 0 2.058.749 2.058 3.674l-.055 28.564c0 3.81-.89 5.035-4.339 5.849l-.334 3.121zm44.003-.272s3.115-.544 6.726-.544c4.673 0 13.905.34 13.905.34l.334-.34c.389-4.752 1.224-9.243 1.224-9.243l-.223-.341-2.445.273c-.721 5.715-1.553 6.396-8.401 6.396-3.117 0-3.394-.34-3.394-3.198 0-1.701 0-4.151.166-9.322.779-.137 2.115-.341 3.507-.341 2.394 0 6.235.136 6.235.136l.667-3.527-.222-.341s-3.897.545-5.511.545l-4.565-.068.334-9.663c.056-1.838.223-1.974 3.006-1.974 6.124 0 6.68.34 6.68 3.675 0 .748-.111 2.246-.111 2.246l2.663-.273a81.863 81.863 0 011.057-9.107l-.167-.34c-2.942.408-6.67.612-13.739.612-2.888 0-6.836-.136-6.836-.136l-.334 2.576.111.271s1.001-.068 1.502-.068c1.335 0 1.669.545 1.669 2.858l-.056 21.56c0 3.062-.778 4.082-3.504 4.489l-.278 2.849zm50.95.272l4.282-.542.278-2.102-.222-.339c-2.337 0-3.727-1.225-5.505-4.491l-4.726-8.707c4.171-2.238 6.559-5.913 6.559-10.131 0-5.376-3.61-8.563-9.62-8.563 0 0-4.287.204-5.953.204-1.721 0-5.225-.136-5.225-.136l-.334 2.584.167.272c0-.009.946-.077 1.558-.077 1.224 0 1.613.544 1.613 2.79l-.056 21.696c0 3.062-.667 3.811-3.393 4.219l-.389 2.779s2.447-.204 4.726-.204c2.055 0 5.95.068 5.95.136l.445-2.576-.111-.203c-2.951-.068-3.285-.545-3.285-4.287l.111-7.282h3.619l4.676 10.003c1.391 3.126 3.224 4.957 4.835 4.957zm-8.509-17.944l-4.509-.543c0-3.539.167-7.077.445-12.248 0-.953.167-1.225.779-1.225 5.345 0 7.961 2.178 7.961 6.6 0 5.784-4.398 7.28-4.676 7.416zm34.101 18.08l1.613-.408c2.892-9.514 5.784-18.901 8.343-26.86h.278s1.39 19.387 1.39 21.292c0 1.633-.779 2.381-2.67 2.652l-.222 2.78c.111 0 3.393-.408 5.228-.408 1.724 0 4.449.136 4.449.136l.39-2.712-.111-.203s-.723.068-1.28.068c-1.446 0-1.835-.953-2.224-4.966-.501-7.006-1.168-19.249-1.168-21.018 0-1.836.89-2.585 3.504-2.925l.278-2.371-.112-.204s-3.392.34-4.838.34c-1.168 0-3.337-.136-3.671-.068-4.005 14.071-7.397 24.682-7.397 24.682h-.278c0 .002-3.449-10.538-7.175-24.818 0 0-2.114.204-3.615.204-1.507 0-5.174-.272-5.174-.272l-.389 2.236.167.339c2.778.204 3.833.953 3.833 2.789 0 1.565-1.611 19.114-1.944 22.379-.278 2.788-1 3.741-2.889 4.012l-.223 2.78s2.278-.408 4.056-.408c1.556 0 4.727.204 4.727.204l.389-2.712-.111-.203h-1.78c-1.002 0-1.447-.476-1.447-1.633 0-1.36 1.391-21.972 1.391-21.972h.278c2.62 8.096 5.456 17.483 8.404 27.268zm26.093-.408s3.115-.544 6.727-.544c4.672 0 13.905.34 13.905.34l.333-.34c.39-4.752 1.224-9.243 1.224-9.243l-.222-.341-2.445.273c-.721 5.715-1.554 6.396-8.401 6.396-3.117 0-3.395-.34-3.395-3.198 0-1.701 0-4.151.167-9.322.779-.137 2.115-.341 3.506-.341 2.394 0 6.235.136 6.235.136l.667-3.527-.222-.341s-3.896.545-5.511.545l-4.564-.068.334-9.663c.055-1.838.222-1.974 3.006-1.974 6.123 0 6.68.34 6.68 3.675 0 .748-.111 2.246-.111 2.246l2.663-.273a81.863 81.863 0 011.057-9.107l-.167-.34c-2.943.408-6.671.612-13.74.612-2.888 0-6.836-.136-6.836-.136l-.334 2.576.112.271s1.001-.068 1.502-.068c1.335 0 1.668.545 1.668 2.858l-.055 21.56c0 3.062-.779 4.082-3.505 4.489l-.278 2.849zm33.099-.272s4.284-.272 6.617-.272c2.166 0 7.006.204 7.006.204l.389-2.847-.167-.204s-.946.136-2.448.136c-1.891 0-2.614-1.021-2.614-3.605 0-8.367.334-20.407.723-24.828 5.563.272 6.23.136 7.12 7.006l2.559-.204s-.5-4.897-.611-9.649l-.446-.476-4.06.544h-14.179l-3.95-.544-.445.476c-.111 4.692-.667 9.86-.667 9.86l2.614-.211c.779-6.666 1.502-6.53 7.51-6.802v22.515c0 5.102-.278 5.782-4.561 6.189l-.39 2.712zm24.922.34s3.171-.612 5.56-.612c2.11 0 6.171.136 6.171.136l.389-2.711-.111-.272s-1.224.204-2.281.204c-1.557 0-1.947-.748-1.947-3.673 0-4.759.278-14.959.612-22.235.111-2.04.668-2.652 3.171-2.992l.223-2.788s-3.505.476-5.561.476c-1.943 0-5.336-.136-5.67-.136l-.278 2.576.112.271s1.168-.068 1.835-.068c1.335 0 1.669.612 1.669 2.857l-.055 21.631c0 2.992-.724 3.945-3.561 4.555l-.278 2.781zm32.425 0c5.507 0 9.513-2.102 9.513-2.102l.333-.543c.278-4.011 1.168-9.045 1.168-9.045l-2.781.272c-1.057 5.578-3.338 8.027-7.232 8.027-5.952 0-9.735-5.714-9.735-14.829 0-8.23 3.56-13.128 9.346-13.128 4.172 0 6.23 1.565 6.23 4.762 0 1.292-.111 2.652-.111 2.652l2.782-.204c.278-5.161 1.168-9.241 1.168-9.241l-.223-.408c0-.003-4.339-1.292-8.122-1.292-9.345 0-15.958 7.676-15.958 18.628 0 10.135 5.278 16.451 13.622 16.451zm43.116.544l3.56-1.496 11.958-36.711c.779-2.584 1.39-3.128 3.671-3.264l.444-3.196s-3.448.204-6.117.204c-3.671 0-7.954-.476-7.954-.476l-.333 2.916.111.271h2.892c2.725 0 3.838.816 3.838 2.72 0 2.04-6.341 22.168-9.233 31.28h-.501c0 .009-7.007-29.299-7.007-31.475 0-1.972 1.001-2.516 4.95-2.856l.222-2.652-.167-.476s-5.395.748-8.343.748c-1.891 0-6.451-.204-6.451-.204l-.39 2.924.112.272c2.892.068 4.449 1.292 5.117 3.876 4.671 17.739 9.621 37.595 9.621 37.595zm35.324-.68s3.393-.476 7.008-.476c1.668 0 5.061.136 5.061.136l.278-2.44-.112-.271c-2.502-.273-3.448-1.157-4.171-3.744-3.17-10.944-7.063-28.08-7.063-28.08l-.389-.068-3.949.884-8.732 26.992c-.945 2.791-1.779 3.675-3.392 3.948l-.334 2.779s2.837-.136 5.117-.136c3.003 0 6.396.34 6.396.34l.333-2.576-.167-.271h-2.391c-1.835 0-2.614-.545-2.614-2.042 0-.408.167-1.021.389-1.906l1.558-5.036c1.056-.136 3.114-.409 4.782-.409 1.224 0 3.504 0 4.617.068l1.334 5.241c.278.885.39 1.702.39 2.314 0 1.293-.835 1.702-3.949 1.973l-.167 2.44.167.34zm-6.285-15.155l4.06-13.464h.39l3.392 13.192c-1.056.136-2.892.272-4.06.272h-3.782zm35.434 15.291c7.291 0 11.401-4.275 11.401-11.826V24.157c0-2.04.501-2.448 3.06-2.924l.167-2.72s-2.615.408-4.67.408c-1.72 0-5.171-.136-5.171-.136l-.334 2.644.056.203 1.892-.068c1.28 0 1.503.476 1.614 2.857 0 0 .223 13.468.223 17.073 0 5.442-2.449 8.367-7.124 8.367-4.62 0-7.124-3.673-7.124-10.067l.333-15.569c.112-1.972.668-2.652 2.839-2.992l.223-2.72s-3.006.408-4.95.408c-1.944 0-5.503-.136-5.503-.136l-.334 2.644.111.203s1.001-.068 1.502-.068c1.335 0 1.669.544 1.669 2.857v17.345c0 7.551 3.554 11.622 10.12 11.622zm21.7-.068s3.004-.544 6.558-.544c4.561 0 12.404.476 12.404.476l.278-.408c.501-5.568 1.28-10.67 1.28-10.67l-.167-.408-2.448.34c-.945 6.666-1.891 7.755-6.953 7.755-3.116 0-3.616-.544-3.616-3.809 0-5.374.167-13.809.556-20.203.223-3.256.056-4.072 3.115-4.548l.223-2.856s-3.449.476-5.393.476c-1.833 0-5.114-.136-5.392-.136l-.334 2.584.167.272c0-.009.946-.077 1.502-.077 1.335 0 1.669.544 1.669 2.857l-.056 21.563c0 3.061-.723 4.08-3.059 4.487l-.334 2.849zm26.813-.272s4.283-.272 6.617-.272c2.165 0 7.005.204 7.005.204l.39-2.847-.167-.204s-.946.136-2.448.136c-1.891 0-2.615-1.021-2.615-3.605 0-8.367.334-20.407.724-24.828 5.562.272 6.23.136 7.12 7.006l2.559-.204s-.501-4.897-.612-9.649l-.445-.476-4.061.544h-14.178l-3.95-.544-.445.476c-.111 4.692-.668 9.86-.668 9.86l2.615-.211c.779-6.666 1.502-6.53 7.51-6.802v22.515c0 5.102-.278 5.782-4.562 6.189l-.389 2.712z"/><path id="Icon" d="M48.199 17.607l9.379 18.464H38.819l9.38-18.464zm-31.26 0l9.379 18.464H7.56l9.379-18.464zm20.051-5.036h11.99c.44 0 .782-.367.782-.839v-1.678c0-.473-.342-.84-.782-.84H36.99c-.66-1.967-2.371-3.357-4.421-3.357-2.051 0-3.762 1.39-4.422 3.357H16.158c-.44 0-.782.367-.782.84v1.678c0 .472.342.839.782.839h11.989c.465 1.417 1.54 2.571 2.86 3.069V49.5H16.158c-.44 0-.782.367-.782.839v1.679c0 .472.342.839.782.839H48.98c.438 0 .78-.367.78-.839v-1.679c0-.472-.342-.839-.782-.839H34.13V15.64c1.319-.498 2.394-1.652 2.858-3.069h.002zm-4.421.42c-1.074 0-1.952-.944-1.952-2.098s.878-2.098 1.952-2.098c1.073 0 1.952.944 1.952 2.098s-.879 2.098-1.952 2.098zm26.569 23.08c0-1.022-8.523-17.231-9.573-19.277-.269-.524-.806-.865-1.368-.865s-1.099.341-1.368.865c-1.05 2.046-9.573 18.255-9.573 19.277 0 5.403 6.96 7.554 10.941 7.554 3.983 0 10.941-2.151 10.941-7.554zm-31.26 0c.003-1.022-8.52-17.231-9.57-19.277-.268-.524-.806-.865-1.367-.865-.562 0-1.099.341-1.368.865C14.521 18.84 6 35.049 6 36.071c0 5.403 6.958 7.554 10.939 7.554 3.982 0 10.939-2.151 10.939-7.554z"/></g></svg>