<svg xmlns="http://www.w3.org/2000/svg" fill-rule="evenodd" stroke-linejoin="round" stroke-miterlimit="2" clip-rule="evenodd" viewBox="0 0 144 15"><path id="Publisher-Logo" fill="none" d="M0 0h144v14.4H0z"/><g id="Publisher-Logo1" fill="#404040" fill-rule="nonzero"><path id="Title" d="M17.316 12.732a38.319 38.319 0 011.829-.066c.453 0 1.387.033 1.961.049l.12-.748-.04-.066a5.344 5.344 0 01-.734.049c-.547 0-.761-.31-.761-1.11 0-2.661.107-6.627.214-7.933 1.936.114 1.989.163 2.256 2.122l.627-.065a43.288 43.288 0 01-.2-2.757l-.12-.13-1.135.179h-4.137l-1.108-.179-.12.13a49.16 49.16 0 01-.2 2.824l.627-.066c.227-1.927.28-1.976 2.363-2.058v7.117c0 1.73-.093 1.877-1.335 2.008l-.107.7z"/><path d="M24.205 12.813c.027-.065 1.041-.147 1.681-.147.401 0 1.042.033 1.042.033l.093-.651-.026-.065s-.254.049-.468.049c-.374 0-.468-.18-.468-.882l.041-2.123s1.402-.131 1.749-.131c.468 0 1.537.017 1.537.017v1.829c0 1.045-.147 1.29-.815 1.29l-.107.651 1.335-.017c.533 0 1.401.033 1.401.033l.106-.651-.04-.065s-.253.033-.467.033c-.374 0-.467-.18-.467-.866 0-1.143.067-3.606.147-5.336.013-.49.147-.637.694-.718l.04-.669s-.868.114-1.388.114c-.373 0-1.147-.016-1.147-.033l-.081.619.027.065s.241-.017.374-.017c.321 0 .401.131.401.686l-.013 2.189c-.588.081-1.002.114-1.537.114l-1.736-.016.067-1.976c.04-.831.093-.962.708-1.076l.053-.669s-.801.114-1.295.114c-.426 0-1.24-.033-1.24-.033l-.08.62.04.066c0-.002.227-.019.36-.019.32 0 .401.131.401.686l-.014 5.191c0 .719-.173.947-.841 1.094l-.067.667zm8.946-.016s.747-.131 1.614-.131c1.121 0 3.337.082 3.337.082l.08-.082c.094-1.14.294-2.218.294-2.218l-.054-.082-.586.065c-.173 1.372-.373 1.536-2.016 1.536-.749 0-.815-.082-.815-.768 0-.408 0-.996.04-2.237a4.98 4.98 0 01.841-.082c.575 0 1.497.033 1.497.033l.16-.847-.053-.082s-.936.131-1.323.131l-1.096-.016.081-2.319c.013-.441.053-.474.721-.474 1.47 0 1.603.082 1.603.882 0 .18-.027.539-.027.539l.64-.065c.066-1.174.253-2.186.253-2.186l-.04-.082c-.706.098-1.601.147-3.297.147-.693 0-1.641-.033-1.641-.033l-.08.619.027.065s.24-.017.36-.017c.321 0 .401.131.401.686l-.014 5.175c0 .735-.187.979-.841 1.077l-.066.684zm10.44.065c.027-.081 1.215-.196 2.028-.196.4 0 1.135.033 1.135.049l.12-.748-.027-.066c-.147.017-.4.049-.601.049-.467 0-.587-.228-.587-1.11l.053-2.923c.895-.098 1.95-.179 2.217-.179.454 0 1.416.016 2.03.016v2.465c0 1.437-.173 1.731-1.015 1.748l-.12.732a60.996 60.996 0 011.535-.033c.427 0 1.187.033 1.641.049l.121-.748-.027-.066c-.147.017-.401.049-.601.049-.467 0-.587-.212-.587-1.012 0-1.388.08-4.618.187-7.149.026-.635.2-.815.854-.929L52 2.126c-.534.081-1.214.147-1.601.147-.426 0-1.308-.033-1.308-.049l-.093.716.026.065a4.62 4.62 0 01.455-.033c.4 0 .494.18.494.882l-.014 2.972c-.908.13-1.389.163-1.976.163l-2.244-.016.08-2.646c.04-1.173.134-1.32.881-1.467l.054-.734c-.481.081-1.095.147-1.428.147-.374 0-1.067-.033-1.481-.049l-.094.716.027.065a4.9 4.9 0 01.454-.033c.4 0 .494.18.494.882l-.014 6.855c0 .915-.213 1.209-1.041 1.404l-.08.749zm10.561-.065s.747-.131 1.614-.131c1.121 0 3.337.082 3.337.082l.08-.082c.094-1.14.294-2.218.294-2.218l-.053-.082-.587.065c-.173 1.372-.373 1.536-2.016 1.536-.748 0-.815-.082-.815-.768 0-.408 0-.996.04-2.237a4.98 4.98 0 01.841-.082c.575 0 1.497.033 1.497.033l.16-.847-.053-.082s-.936.131-1.323.131l-1.095-.016.08-2.319c.013-.441.053-.474.721-.474 1.47 0 1.603.082 1.603.882 0 .18-.026.539-.026.539l.639-.065c.067-1.174.253-2.186.253-2.186l-.04-.082c-.706.098-1.601.147-3.297.147-.693 0-1.641-.033-1.641-.033l-.08.619.027.065s.24-.017.36-.017c.321 0 .401.131.401.686l-.014 5.175c0 .735-.186.979-.841 1.077l-.066.684zm12.228.065l1.027-.13.067-.505-.053-.081c-.561 0-.895-.294-1.321-1.078l-1.135-2.089c1.001-.538 1.575-1.419 1.575-2.432 0-1.29-.867-2.055-2.309-2.055 0 0-1.029.049-1.429.049a45.34 45.34 0 01-1.254-.033l-.08.62.04.066c0-.002.227-.019.374-.019.294 0 .387.131.387.67l-.013 5.207c0 .735-.161.915-.815 1.012l-.093.668s.587-.049 1.134-.049c.493 0 1.428.016 1.428.032l.107-.618-.027-.049c-.708-.016-.788-.13-.788-1.029l.027-1.747h.868l1.122 2.4c.334.751.774 1.19 1.161 1.19zm-2.042-4.306l-1.083-.131c0-.849.04-1.698.107-2.939 0-.229.04-.294.187-.294 1.283 0 1.911.522 1.911 1.584 0 1.388-1.056 1.747-1.122 1.78zm8.184 4.339l.387-.098a447.047 447.047 0 012.002-6.447h.067s.334 4.653.334 5.11c0 .392-.187.572-.641.637l-.054.667c.027 0 .815-.098 1.255-.098.414 0 1.068.033 1.068.033l.093-.651-.026-.049s-.174.017-.307.017c-.347 0-.441-.229-.534-1.192-.12-1.682-.28-4.62-.28-5.045 0-.44.213-.62.84-.701l.067-.57-.026-.049s-.815.082-1.162.082c-.28 0-.801-.033-.881-.016-.961 3.377-1.775 5.923-1.775 5.923h-.067c0 .001-.827-2.529-1.722-5.956 0 0-.507.049-.867.049-.362 0-1.242-.065-1.242-.065l-.093.536.04.082c.666.049.92.228.92.669 0 .376-.387 4.587-.467 5.371-.067.669-.24.898-.694.963l-.053.667s.547-.098.974-.098c.373 0 1.134.049 1.134.049l.093-.651-.026-.048h-.428c-.24 0-.347-.115-.347-.392 0-.327.334-5.274.334-5.274h.067a356.426 356.426 0 012.017 6.545zm6.262-.098s.748-.131 1.614-.131c1.122 0 3.338.082 3.338.082l.08-.082c.093-1.14.293-2.218.293-2.218l-.053-.082-.587.065c-.173 1.372-.373 1.536-2.016 1.536-.748 0-.815-.082-.815-.768 0-.408 0-.996.04-2.237.187-.033.508-.082.842-.082.574 0 1.496.033 1.496.033l.16-.847-.053-.082s-.935.131-1.323.131l-1.095-.016.08-2.319c.013-.441.054-.474.722-.474 1.469 0 1.603.082 1.603.882 0 .18-.027.539-.027.539l.639-.065c.067-1.174.254-2.186.254-2.186l-.04-.082c-.706.098-1.601.147-3.298.147-.693 0-1.64-.033-1.64-.033l-.08.619.026.065s.241-.017.361-.017c.32 0 .4.131.4.686l-.013 5.175c0 .735-.187.979-.841 1.077l-.067.684zm7.944-.065s1.028-.066 1.588-.066c.52 0 1.681.049 1.681.049l.094-.683-.04-.049s-.227.033-.588.033c-.454 0-.627-.245-.627-.866 0-2.008.08-4.897.173-5.958 1.335.065 1.496.032 1.709 1.681l.614-.049s-.12-1.175-.147-2.316l-.106-.114-.975.131h-3.403l-.948-.131-.106.114c-.027 1.126-.161 2.367-.161 2.367l.628-.051c.187-1.6.36-1.567 1.802-1.632v5.403c0 1.225-.067 1.388-1.095 1.486l-.093.651zm5.981.081s.761-.147 1.335-.147c.506 0 1.481.033 1.481.033l.093-.651-.027-.065s-.293.049-.547.049c-.374 0-.467-.18-.467-.882 0-1.142.066-3.59.146-5.336.027-.49.161-.637.761-.718l.054-.669s-.841.114-1.335.114c-.466 0-1.28-.033-1.36-.033l-.067.619.027.065s.28-.017.44-.017c.321 0 .401.147.401.686l-.014 5.191c0 .719-.173.947-.854 1.094l-.067.667zm7.782 0c1.322 0 2.283-.504 2.283-.504l.08-.131c.067-.962.281-2.17.281-2.17l-.668.065c-.254 1.339-.801 1.926-1.736 1.926-1.428 0-2.336-1.371-2.336-3.559 0-1.975.854-3.15 2.243-3.15 1.001 0 1.495.375 1.495 1.142 0 .311-.026.637-.026.637l.667-.049c.067-1.239.28-2.218.28-2.218l-.053-.098c0-.001-1.041-.31-1.949-.31-2.243 0-3.83 1.843-3.83 4.471 0 2.432 1.266 3.948 3.269 3.948zm10.348.131l.854-.359 2.87-8.811c.187-.62.334-.751.881-.783l.107-.767s-.828.049-1.468.049c-.881 0-1.909-.115-1.909-.115l-.08.7.027.065h.694c.654 0 .921.196.921.653 0 .49-1.522 5.32-2.216 7.507h-.12c0 .002-1.682-7.032-1.682-7.554 0-.473.24-.604 1.188-.685l.053-.637-.04-.114s-1.295.179-2.002.179c-.454 0-1.548-.048-1.548-.048l-.094.701.027.066c.694.016 1.068.31 1.228.93a825.148 825.148 0 012.309 9.023zm8.478-.163s.814-.115 1.682-.115c.4 0 1.214.033 1.214.033l.067-.586-.027-.065c-.6-.065-.827-.278-1.001-.898-.761-2.627-1.695-6.74-1.695-6.74l-.093-.016-.948.212-2.096 6.478c-.227.67-.427.882-.814.948l-.08.667s.681-.033 1.228-.033c.721 0 1.535.082 1.535.082l.08-.618-.04-.065h-.574c-.44 0-.627-.131-.627-.491 0-.098.04-.245.093-.457l.374-1.209c.253-.032.747-.098 1.148-.098.293 0 .841 0 1.108.017l.32 1.257c.067.213.093.409.093.556 0 .31-.2.408-.947.473l-.04.586.04.082zm-1.509-3.638l.975-3.231h.093l.814 3.166a9.15 9.15 0 01-.974.065h-.908zm8.505 3.67c1.749 0 2.736-1.026 2.736-2.838V5.798c0-.49.12-.588.734-.702l.04-.653s-.627.098-1.121.098c-.413 0-1.241-.033-1.241-.033l-.08.635.014.049.454-.017c.307 0 .36.115.387.686 0 0 .053 3.232.053 4.098 0 1.306-.587 2.008-1.709 2.008-1.109 0-1.71-.882-1.71-2.417l.08-3.736c.027-.473.16-.637.681-.718l.054-.653s-.722.098-1.188.098c-.467 0-1.321-.033-1.321-.033l-.08.635.027.049s.24-.017.36-.017c.321 0 .401.131.401.686v4.163c0 1.812.853 2.789 2.429 2.789zm5.207-.016s.721-.131 1.574-.131c1.095 0 2.977.115 2.977.115l.067-.098c.12-1.337.307-2.561.307-2.561l-.04-.098-.587.082c-.227 1.599-.454 1.861-1.669 1.861-.748 0-.868-.131-.868-.915 0-1.289.04-3.314.134-4.848.053-.782.013-.978.747-1.092l.054-.685s-.828.114-1.295.114c-.44 0-1.227-.033-1.294-.033l-.08.62.04.066c0-.002.227-.019.361-.019.32 0 .4.131.4.686l-.013 5.175c0 .735-.174.979-.734 1.077l-.081.684zm6.436-.065s1.028-.066 1.588-.066c.519 0 1.681.049 1.681.049l.093-.683-.04-.049s-.227.033-.587.033c-.454 0-.628-.245-.628-.866 0-2.008.08-4.897.174-5.958 1.335.065 1.495.032 1.709 1.681l.614-.049s-.12-1.175-.147-2.316l-.107-.114-.974.131h-3.403l-.948-.131-.107.114c-.027 1.126-.16 2.367-.16 2.367l.627-.051c.187-1.6.361-1.567 1.803-1.632v5.403c0 1.225-.067 1.388-1.095 1.486l-.093.651z"/><path id="Icon" d="M11.568 4.226l2.251 4.431H9.317l2.251-4.431zm-7.503 0l2.251 4.431H1.814l2.251-4.431zm4.813-1.209h2.877c.106 0 .188-.088.188-.201v-.403c0-.113-.082-.202-.188-.202H8.878c-.159-.472-.569-.805-1.061-.805-.493 0-.903.333-1.062.805H3.878c-.106 0-.188.089-.188.202v.403c0 .113.082.201.188.201h2.877c.112.34.37.617.687.737v8.126H3.878c-.106 0-.188.088-.188.201v.403c0 .114.082.202.188.202h7.877c.105 0 .187-.088.187-.202v-.403c0-.113-.082-.201-.187-.201H8.191V3.754a1.18 1.18 0 00.686-.737h.001zm-1.061.101c-.258 0-.469-.227-.469-.504s.211-.503.469-.503c.257 0 .468.226.468.503s-.211.504-.468.504zm6.376 5.539c0-.245-2.045-4.135-2.298-4.626a.375.375 0 00-.328-.208.376.376 0 00-.328.208c-.252.491-2.298 4.381-2.298 4.626 0 1.297 1.671 1.813 2.626 1.813.956 0 2.626-.516 2.626-1.813zm-7.502 0c.001-.245-2.045-4.135-2.297-4.626a.375.375 0 00-.328-.208.375.375 0 00-.328.208c-.253.491-2.298 4.381-2.298 4.626 0 1.297 1.67 1.813 2.625 1.813.956 0 2.626-.516 2.626-1.813z"/></g></svg>